<svg width="552" height="373" viewBox="0 0 552 373" fill="none" xmlns="http://www.w3.org/2000/svg">
<g clip-path="url(#clip0_712_843)">
<path d="M37.1182 281.076C34.4992 281.076 31.8747 281.184 29.3118 281.402L28.9388 281.433C11.9386 282.936 -0.496192 291.655 0.0152167 301.714L0.114084 303.533C0.179282 304.683 0.248748 305.919 0.305926 307.291C0.336894 307.967 1.25983 308.486 2.40824 308.486H420.571C450.053 308.307 479.429 308.082 507.877 307.817C513.212 307.828 518.544 307.552 523.85 306.989C531.756 306.053 537.243 304.199 540.627 301.319H540.628C544.835 297.748 544.968 293.251 544.714 288.17C544.195 277.911 543.681 267.134 543.168 256.389C542.715 246.919 542.264 237.475 541.813 228.433C541.534 223.067 540.914 218.331 536.135 214.711C530.956 210.796 521.51 208.812 508.059 208.812C507.897 208.812 507.736 208.812 507.571 208.812C465.418 208.962 423.651 223.456 403.64 244.879C401.336 247.346 399.188 249.987 397.112 252.542C394.043 256.315 390.871 260.217 387.085 263.706C385.036 265.62 382.819 267.348 380.462 268.869C380.3 268.981 380.114 269.101 379.917 269.215C379.467 269.509 378.997 269.791 378.538 270.043C375.854 271.593 373.025 272.88 370.092 273.883L369.796 273.983C369.573 274.062 369.331 274.142 369.09 274.215C367.396 274.758 365.636 275.229 363.873 275.609C356.245 277.29 347.571 277.693 338.094 276.806C329.39 275.969 320.799 274.218 312.462 271.582C303.685 268.809 295.471 265.35 287.526 262.007C284.037 260.537 280.427 259.018 276.823 257.579C276.145 257.308 275.479 257.043 274.802 256.778C270.4 255.062 266.409 253.645 262.6 252.446C253.166 249.463 243.4 247.654 233.523 247.061C223.039 246.487 213.801 247.569 206.07 250.271C203.939 251.013 201.864 251.907 199.86 252.946C190.704 257.701 185.059 264.719 179.601 271.505C172.811 279.947 165.79 288.676 151.925 293.201C135.927 298.428 112.575 296.257 96.0538 292.481C90.8595 291.293 85.6716 289.927 80.6542 288.606C78.6278 288.072 76.5999 287.542 74.5707 287.015C70.583 285.986 67.3195 285.197 64.3002 284.531L63.3452 284.319C62.814 284.203 62.2823 284.088 61.7409 283.978C58.1546 283.225 54.8152 282.633 51.5265 282.167L50.7484 282.053C49.1885 281.848 47.7302 281.677 46.2991 281.533L45.7278 281.476C42.9249 281.209 40.0242 281.076 37.1182 281.076Z" fill="#F2F2F2"/>
<path d="M469.522 292.303C481.289 281.7 498.79 276.369 513.47 282.314C498.412 290.675 486.795 304.093 480.677 320.194C478.34 326.412 476.388 333.571 470.639 336.9C467.063 338.971 462.613 339.072 458.602 338.073C454.592 337.072 450.916 335.068 447.29 333.083L446.258 333.06C450.89 317.913 457.756 302.906 469.522 292.303Z" fill="#E6E6E6"/>
<path d="M513.388 282.636C500.386 284.316 488.245 290.051 478.687 299.025C476.595 300.92 474.815 303.133 473.413 305.583C472.124 308.013 471.509 310.744 471.632 313.493C471.696 316.058 472.058 318.674 471.497 321.21C471.19 322.503 470.614 323.718 469.805 324.773C468.996 325.828 467.974 326.701 466.804 327.333C463.931 328.984 460.636 329.505 457.396 329.902C453.799 330.343 450.055 330.744 446.941 332.762C446.564 333.006 446.207 332.407 446.583 332.162C452.001 328.652 458.857 329.929 464.682 327.586C467.401 326.493 469.806 324.574 470.657 321.672C471.402 319.135 471.031 316.437 470.944 313.841C470.784 311.161 471.283 308.483 472.397 306.041C473.67 303.528 475.362 301.25 477.4 299.305C481.917 294.851 487.107 291.136 492.779 288.295C499.234 285.017 506.202 282.867 513.382 281.938C513.826 281.881 513.83 282.579 513.388 282.636Z" fill="white"/>
<path d="M481.594 295.954C480.306 294.146 479.703 291.939 479.892 289.727C480.081 287.516 481.05 285.443 482.626 283.88C482.946 283.565 483.451 284.047 483.131 284.363C481.66 285.816 480.758 287.747 480.586 289.806C480.414 291.866 480.985 293.92 482.194 295.596C482.456 295.961 481.855 296.316 481.594 295.954Z" fill="white"/>
<path d="M471.429 312.197C475.897 312.988 480.499 312.067 484.318 309.616C484.696 309.373 485.053 309.972 484.675 310.215C480.697 312.758 475.906 313.707 471.258 312.873C470.815 312.794 470.988 312.117 471.429 312.197Z" fill="white"/>
<path d="M499.29 285.941C499.643 286.744 500.19 287.447 500.881 287.987C501.573 288.527 502.387 288.887 503.252 289.034C503.696 289.108 503.522 289.784 503.081 289.711C502.127 289.544 501.227 289.145 500.462 288.551C499.697 287.956 499.089 287.183 498.691 286.299C498.647 286.218 498.634 286.124 498.657 286.035C498.679 285.946 498.735 285.869 498.812 285.82C498.891 285.773 498.986 285.759 499.076 285.782C499.166 285.805 499.243 285.862 499.29 285.941Z" fill="white"/>
<path d="M529.636 333.447C529.358 333.408 529.079 333.37 528.797 333.336C525.051 332.839 521.272 332.647 517.495 332.762C517.203 332.766 516.907 332.775 516.616 332.787C507.52 333.161 498.573 335.221 490.229 338.861C486.91 340.313 483.707 342.014 480.646 343.952C476.419 346.628 472.049 349.866 467.325 350.958C466.833 351.077 466.334 351.166 465.832 351.224L446.31 334.32C446.285 334.26 446.256 334.203 446.23 334.142L445.42 333.503C445.571 333.392 445.73 333.28 445.881 333.169C445.968 333.105 446.059 333.044 446.147 332.979C446.206 332.937 446.266 332.895 446.317 332.854C446.337 332.84 446.357 332.826 446.373 332.816C446.424 332.775 446.476 332.742 446.524 332.705C447.41 332.078 448.302 331.455 449.2 330.838C449.204 330.834 449.204 330.834 449.213 330.833C456.011 326.064 463.352 322.118 471.081 319.078C471.313 318.99 471.548 318.898 471.789 318.818C475.269 317.524 478.85 316.517 482.495 315.806C484.491 315.423 486.507 315.141 488.532 314.962C493.766 314.51 499.039 314.883 504.157 316.069C514.36 318.435 523.693 324.038 529.22 332.775C529.361 332.999 529.499 333.219 529.636 333.447Z" fill="#E6E6E6"/>
<path d="M529.378 333.657C517.985 327.17 504.838 324.438 491.804 325.849C488.992 326.103 486.239 326.799 483.644 327.91C481.151 329.074 479.016 330.885 477.46 333.154C475.966 335.24 474.68 337.547 472.706 339.233C471.682 340.082 470.491 340.704 469.21 341.06C467.929 341.416 466.587 341.497 465.272 341.297C461.984 340.886 459.04 339.318 456.214 337.685C453.076 335.871 449.845 333.937 446.144 333.673C445.696 333.641 445.772 332.947 446.219 332.979C452.659 333.438 457.364 338.586 463.426 340.222C466.254 340.986 469.33 340.902 471.757 339.098C473.879 337.52 475.207 335.142 476.701 333.017C478.187 330.782 480.197 328.944 482.557 327.665C485.087 326.425 487.809 325.624 490.607 325.298C496.895 324.462 503.276 324.62 509.515 325.766C516.643 327.035 523.501 329.514 529.793 333.095C530.182 333.317 529.764 333.877 529.378 333.657Z" fill="white"/>
<path d="M495.974 325.148C496.034 322.929 496.881 320.804 498.363 319.151C499.846 317.499 501.867 316.428 504.067 316.129C504.512 316.07 504.625 316.759 504.179 316.818C502.13 317.093 500.247 318.091 498.87 319.632C497.493 321.173 496.712 323.156 496.668 325.223C496.658 325.672 495.964 325.594 495.974 325.148Z" fill="white"/>
<path d="M478.078 331.996C481.169 335.318 485.398 337.353 489.923 337.695C490.371 337.729 490.295 338.423 489.848 338.389C485.14 338.025 480.743 335.898 477.534 332.434C477.228 332.103 477.774 331.667 478.078 331.996Z" fill="white"/>
<path d="M516.132 327.807C515.929 328.661 515.943 329.551 516.17 330.399C516.397 331.246 516.831 332.024 517.433 332.662C517.742 332.988 517.196 333.424 516.889 333.1C516.227 332.391 515.749 331.532 515.496 330.596C515.243 329.66 515.223 328.677 515.438 327.732C515.45 327.641 515.497 327.558 515.569 327.501C515.64 327.443 515.731 327.415 515.822 327.422C515.914 327.433 515.998 327.479 516.056 327.551C516.114 327.623 516.141 327.715 516.132 327.807Z" fill="white"/>
<path d="M161.506 302.848C171.14 288.235 188.375 277.664 205.73 279.938C191.95 293.07 183.259 310.652 181.195 329.575C180.425 336.875 180.329 345.075 175.107 350.235C171.858 353.446 167.126 354.792 162.559 354.838C157.992 354.884 153.502 353.763 149.072 352.649L147.962 352.911C148.702 335.423 151.871 317.462 161.506 302.848Z" fill="#E6E6E6"/>
<path d="M205.732 280.306C192.294 285.72 180.903 295.231 173.177 307.487C171.467 310.097 170.179 312.959 169.361 315.969C168.658 318.927 168.76 322.019 169.657 324.924C170.438 327.65 171.553 330.347 171.659 333.215C171.691 334.684 171.412 336.143 170.841 337.497C170.27 338.851 169.419 340.068 168.344 341.07C165.73 343.635 162.351 345.109 158.996 346.435C155.271 347.907 151.379 349.378 148.61 352.402C148.274 352.769 147.725 352.227 148.06 351.861C152.878 346.599 160.566 346.058 166.145 341.931C168.748 340.006 170.787 337.284 170.89 333.944C170.98 331.023 169.833 328.241 169.018 325.488C168.102 322.666 167.89 319.664 168.402 316.742C169.065 313.7 170.24 310.793 171.878 308.145C175.471 302.126 179.988 296.708 185.264 292.092C191.256 286.79 198.11 282.552 205.531 279.561C205.99 279.376 206.189 280.122 205.732 280.306Z" fill="white"/>
<path d="M175.433 303.394C173.552 301.819 172.293 299.627 171.88 297.209C171.467 294.791 171.926 292.304 173.177 290.194C173.432 289.768 174.106 290.143 173.851 290.57C172.683 292.533 172.255 294.849 172.644 297.1C173.033 299.351 174.214 301.388 175.974 302.845C176.356 303.162 175.812 303.71 175.433 303.394Z" fill="white"/>
<path d="M169.079 323.595C174.078 323.198 178.743 320.932 182.146 317.249C182.483 316.883 183.032 317.425 182.695 317.79C179.148 321.617 174.287 323.965 169.084 324.366C168.588 324.404 168.585 323.632 169.079 323.595Z" fill="white"/>
<path d="M191.573 287.762C192.174 288.523 192.954 289.123 193.844 289.508C194.734 289.893 195.705 290.051 196.671 289.968C197.166 289.924 197.169 290.696 196.677 290.74C195.609 290.827 194.536 290.651 193.552 290.227C192.568 289.804 191.703 289.146 191.032 288.311C190.962 288.238 190.923 288.141 190.922 288.04C190.921 287.938 190.959 287.84 191.028 287.766C191.1 287.694 191.198 287.653 191.3 287.652C191.402 287.651 191.5 287.691 191.573 287.762Z" fill="white"/>
<path d="M237.245 330.129C236.937 330.165 236.628 330.202 236.317 330.244C232.172 330.754 228.077 331.6 224.069 332.774C223.758 332.86 223.444 332.951 223.136 333.046C213.512 335.976 204.516 340.668 196.604 346.883C193.459 349.358 190.506 352.07 187.771 354.994C183.995 359.032 180.222 363.711 175.473 366.192C174.98 366.457 174.471 366.691 173.95 366.892L148.368 354.245C148.324 354.187 148.278 354.134 148.234 354.076L147.189 353.618C147.32 353.457 147.458 353.294 147.589 353.133C147.664 353.039 147.745 352.949 147.82 352.855C147.872 352.794 147.925 352.733 147.968 352.674C147.985 352.654 148.003 352.633 148.017 352.618C148.061 352.56 148.107 352.51 148.148 352.458C148.921 351.54 149.702 350.626 150.491 349.716C150.494 349.71 150.494 349.71 150.503 349.707C156.531 342.788 163.19 336.311 170.621 331.051C170.845 330.893 171.071 330.729 171.306 330.576C174.669 328.224 178.218 326.15 181.918 324.376C183.947 323.411 186.024 322.55 188.141 321.795C193.613 319.854 199.357 318.787 205.161 318.632C216.731 318.323 228.271 321.719 236.613 329.526C236.827 329.726 237.035 329.923 237.245 330.129Z" fill="#E6E6E6"/>
<path d="M237.027 330.425C223.037 326.657 208.216 327.393 194.669 332.528C191.732 333.582 188.981 335.092 186.515 337.002C184.173 338.941 182.393 341.471 181.359 344.331C180.342 346.978 179.609 349.803 177.966 352.156C177.107 353.348 176.006 354.345 174.735 355.082C173.464 355.819 172.051 356.279 170.59 356.432C166.959 356.907 163.373 356.048 159.896 355.087C156.036 354.02 152.043 352.851 148.011 353.599C147.522 353.689 147.41 352.926 147.898 352.835C154.913 351.535 161.377 355.731 168.316 355.795C171.554 355.825 174.82 354.88 176.913 352.275C178.744 349.997 179.503 347.085 180.51 344.396C181.477 341.592 183.116 339.067 185.284 337.042C187.644 335.012 190.333 333.399 193.235 332.271C199.728 329.628 206.596 328.022 213.588 327.512C221.564 326.886 229.589 327.629 237.315 329.709C237.793 329.838 237.502 330.553 237.027 330.425Z" fill="white"/>
<path d="M198.933 330.618C198.381 328.228 198.695 325.719 199.821 323.54C200.947 321.36 202.811 319.652 205.08 318.72C205.54 318.533 205.852 319.239 205.392 319.426C203.277 320.29 201.541 321.881 200.497 323.913C199.452 325.945 199.169 328.283 199.697 330.505C199.811 330.988 199.047 331.098 198.933 330.618Z" fill="white"/>
<path d="M181.698 342.921C185.928 345.614 191.018 346.614 195.953 345.721C196.441 345.633 196.553 346.396 196.065 346.485C190.929 347.404 185.634 346.353 181.238 343.54C180.82 343.272 181.282 342.654 181.698 342.921Z" fill="white"/>
<path d="M221.233 327.854C221.254 328.823 221.516 329.772 221.994 330.615C222.473 331.458 223.153 332.17 223.975 332.685C224.397 332.948 223.934 333.565 223.515 333.304C222.61 332.731 221.859 331.944 221.329 331.014C220.798 330.084 220.503 329.037 220.47 327.967C220.458 327.866 220.485 327.765 220.546 327.683C220.606 327.602 220.695 327.547 220.795 327.529C220.896 327.514 220.999 327.54 221.081 327.601C221.163 327.662 221.217 327.753 221.233 327.854Z" fill="white"/>
<path d="M230.076 193.286C230.715 192.65 231.207 191.882 231.517 191.035C231.827 190.188 231.948 189.284 231.871 188.385C231.794 187.487 231.52 186.616 231.07 185.835C230.62 185.053 230.004 184.38 229.266 183.862L239.335 135.13L228.471 138.557L220.37 185.702C219.583 187 219.299 188.542 219.572 190.035C219.846 191.529 220.658 192.87 221.854 193.805C223.05 194.74 224.548 195.203 226.063 195.108C227.579 195.012 229.006 194.364 230.076 193.286Z" fill="#FFB6B6"/>
<path d="M253.35 63.0235L246.621 57.9438C246.621 57.9438 240.684 57.5234 239.633 68.2289C238.581 78.9345 231.998 120.022 231.998 120.022L221.701 167.715L235.955 170.844L246.985 119.375L258.025 83.8659L253.35 63.0235Z" fill="#E6E6E6"/>
<path d="M248.223 151.273L215.943 126.174C215.441 125.782 215.114 125.207 215.035 124.574C214.955 123.942 215.13 123.303 215.521 122.8L237.484 94.5535C237.876 94.0507 238.451 93.7239 239.084 93.6448C239.716 93.5656 240.354 93.7406 240.858 94.1313L273.138 119.231C273.641 119.622 273.967 120.198 274.047 120.83C274.126 121.463 273.951 122.101 273.56 122.605L251.597 150.851C251.205 151.354 250.63 151.68 249.998 151.76C249.365 151.839 248.727 151.664 248.223 151.273Z" fill="#3F3D56"/>
<path d="M248.046 148.676L218.504 125.706C218.058 125.358 217.768 124.847 217.697 124.285C217.627 123.724 217.782 123.157 218.129 122.71L238.04 97.1034C238.388 96.657 238.898 96.3669 239.46 96.2966C240.022 96.2263 240.588 96.3816 241.035 96.7286L270.577 119.699C271.023 120.047 271.314 120.557 271.384 121.119C271.454 121.681 271.299 122.247 270.952 122.694L251.042 148.301C250.694 148.747 250.183 149.037 249.621 149.108C249.06 149.178 248.493 149.023 248.046 148.676Z" fill="white"/>
<path d="M222.377 125.054C222.266 124.967 222.193 124.84 222.175 124.699C222.158 124.559 222.197 124.417 222.283 124.305L232.328 111.388C232.415 111.276 232.542 111.203 232.683 111.186C232.752 111.177 232.823 111.182 232.89 111.201C232.958 111.219 233.021 111.251 233.077 111.294C233.132 111.337 233.178 111.39 233.213 111.451C233.247 111.512 233.27 111.579 233.278 111.649C233.287 111.719 233.282 111.789 233.264 111.857C233.245 111.924 233.213 111.988 233.17 112.043L223.126 124.961C223.039 125.072 222.911 125.145 222.771 125.162C222.631 125.18 222.489 125.141 222.377 125.054Z" fill="#E4E4E4"/>
<path d="M224.042 126.349C223.93 126.262 223.858 126.134 223.84 125.994C223.823 125.853 223.861 125.712 223.948 125.6L233.992 112.682C234.079 112.57 234.207 112.498 234.347 112.48C234.488 112.463 234.63 112.501 234.741 112.588C234.853 112.675 234.926 112.803 234.943 112.943C234.961 113.084 234.922 113.225 234.835 113.337L224.791 126.255C224.704 126.367 224.576 126.439 224.436 126.457C224.295 126.474 224.154 126.435 224.042 126.349Z" fill="#E4E4E4"/>
<path d="M231.397 120.325C231.285 120.238 231.213 120.11 231.195 119.97C231.178 119.829 231.216 119.688 231.303 119.576L235.657 113.976C235.7 113.921 235.754 113.875 235.814 113.84C235.875 113.805 235.943 113.783 236.012 113.774C236.082 113.765 236.152 113.77 236.22 113.789C236.288 113.807 236.351 113.839 236.407 113.882C236.462 113.925 236.508 113.979 236.543 114.04C236.578 114.101 236.6 114.168 236.609 114.238C236.617 114.307 236.612 114.378 236.593 114.445C236.575 114.513 236.543 114.576 236.5 114.632L232.146 120.231C232.059 120.343 231.931 120.415 231.791 120.433C231.65 120.45 231.509 120.412 231.397 120.325Z" fill="#E4E4E4"/>
<path d="M233.641 131.313C233.53 131.226 233.457 131.099 233.44 130.958C233.422 130.818 233.461 130.676 233.548 130.564L249.404 110.171C249.447 110.116 249.501 110.07 249.562 110.035C249.623 110 249.69 109.978 249.759 109.969C249.829 109.961 249.9 109.966 249.967 109.984C250.035 110.003 250.098 110.035 250.153 110.078C250.209 110.121 250.255 110.174 250.29 110.235C250.324 110.296 250.347 110.363 250.355 110.433C250.364 110.502 250.359 110.573 250.34 110.64C250.322 110.708 250.29 110.771 250.247 110.827L234.39 131.22C234.303 131.331 234.176 131.404 234.035 131.421C233.895 131.439 233.753 131.4 233.641 131.313Z" fill="#E4E4E4"/>
<path d="M235.306 132.608C235.195 132.521 235.122 132.393 235.104 132.253C235.087 132.112 235.126 131.971 235.212 131.859L251.069 111.466C251.112 111.41 251.166 111.364 251.227 111.329C251.288 111.295 251.355 111.272 251.424 111.264C251.494 111.255 251.564 111.26 251.632 111.279C251.699 111.297 251.763 111.329 251.818 111.372C251.873 111.415 251.92 111.469 251.954 111.529C251.989 111.59 252.011 111.658 252.02 111.727C252.029 111.797 252.024 111.867 252.005 111.935C251.987 112.002 251.955 112.066 251.912 112.121L236.055 132.514C235.968 132.626 235.84 132.698 235.7 132.716C235.56 132.733 235.418 132.694 235.306 132.608Z" fill="#E4E4E4"/>
<path d="M239.085 135.546C238.973 135.459 238.901 135.331 238.883 135.191C238.866 135.051 238.905 134.909 238.991 134.797L254.848 114.404C254.891 114.349 254.945 114.302 255.005 114.268C255.066 114.233 255.134 114.211 255.203 114.202C255.273 114.193 255.343 114.198 255.411 114.217C255.478 114.236 255.542 114.267 255.597 114.31C255.652 114.353 255.699 114.407 255.733 114.468C255.768 114.529 255.79 114.596 255.799 114.665C255.808 114.735 255.802 114.805 255.784 114.873C255.765 114.941 255.734 115.004 255.691 115.059L239.834 135.452C239.747 135.564 239.619 135.636 239.479 135.654C239.338 135.672 239.197 135.633 239.085 135.546Z" fill="#E4E4E4"/>
<path d="M240.75 136.84C240.638 136.753 240.566 136.626 240.548 136.485C240.531 136.345 240.569 136.203 240.656 136.092L256.513 115.698C256.556 115.643 256.609 115.597 256.67 115.562C256.731 115.527 256.798 115.505 256.868 115.496C256.937 115.488 257.008 115.493 257.076 115.511C257.143 115.53 257.206 115.562 257.262 115.605C257.317 115.648 257.363 115.701 257.398 115.762C257.433 115.823 257.455 115.89 257.464 115.96C257.472 116.029 257.467 116.1 257.449 116.167C257.43 116.235 257.398 116.298 257.355 116.354L241.499 136.747C241.412 136.858 241.284 136.931 241.144 136.948C241.003 136.966 240.862 136.927 240.75 136.84Z" fill="#E4E4E4"/>
<path d="M244.529 139.779C244.417 139.692 244.345 139.564 244.327 139.424C244.309 139.283 244.348 139.142 244.435 139.03L260.292 118.637C260.335 118.581 260.388 118.535 260.449 118.5C260.51 118.466 260.577 118.444 260.647 118.435C260.716 118.426 260.787 118.431 260.854 118.45C260.922 118.468 260.985 118.5 261.041 118.543C261.096 118.586 261.142 118.64 261.177 118.7C261.211 118.761 261.234 118.829 261.242 118.898C261.251 118.968 261.246 119.038 261.228 119.106C261.209 119.173 261.177 119.237 261.134 119.292L245.278 139.685C245.191 139.797 245.063 139.869 244.922 139.887C244.782 139.904 244.64 139.865 244.529 139.779Z" fill="#E4E4E4"/>
<path d="M246.193 141.073C246.082 140.986 246.009 140.858 245.992 140.718C245.974 140.578 246.013 140.436 246.1 140.324L261.956 119.931C262.043 119.82 262.171 119.748 262.311 119.73C262.451 119.713 262.593 119.752 262.704 119.839C262.816 119.925 262.888 120.053 262.906 120.193C262.924 120.333 262.885 120.475 262.799 120.586L246.942 140.979C246.855 141.091 246.728 141.164 246.587 141.181C246.447 141.199 246.305 141.16 246.193 141.073Z" fill="#E4E4E4"/>
<path d="M219.692 164.757C219.813 164.757 219.911 164.658 219.911 164.537C219.911 164.416 219.813 164.318 219.692 164.318C219.571 164.318 219.473 164.416 219.473 164.537C219.473 164.658 219.571 164.757 219.692 164.757Z" fill="white"/>
<path d="M251.62 13.7755C250.85 17.9162 249.586 21.9498 247.856 25.7901C237.95 46.7454 266.16 39.915 276.241 39.915C287.263 39.915 297.809 45.711 296.198 19.9575C295.51 8.95677 287.263 0 276.241 0C266.826 0 253.589 4.1847 251.62 13.7755Z" fill="#2F2E41"/>
<path d="M286.515 321.114H277.124L272.655 284.892H286.515V321.114Z" fill="#FFB6B6"/>
<path d="M291.472 337.385H284.737L283.535 331.027L280.456 337.385H262.594C261.738 337.385 260.904 337.112 260.215 336.604C259.525 336.097 259.016 335.383 258.761 334.565C258.506 333.748 258.519 332.87 258.798 332.061C259.078 331.251 259.608 330.553 260.313 330.066L274.577 320.215V313.787L289.58 314.682L291.472 337.385Z" fill="#2F2E41"/>
<path d="M342.307 309.263L334.771 314.867L309.571 288.467L320.693 280.196L342.307 309.263Z" fill="#FFB6B6"/>
<path d="M355.993 319.362L350.589 323.381L345.831 318.996L347.154 325.935L332.821 336.594C332.134 337.104 331.301 337.382 330.445 337.387C329.589 337.391 328.754 337.122 328.062 336.618C327.369 336.114 326.856 335.402 326.598 334.586C326.339 333.77 326.347 332.892 326.622 332.082L332.19 315.665L328.355 310.507L340.928 302.273L355.993 319.362Z" fill="#2F2E41"/>
<path d="M255.758 154.408L300.337 147.465L291.472 120.795H255.758V154.408Z" fill="#FFB6B6"/>
<path d="M297.448 134.227C297.448 134.227 315.266 149.621 307.045 193.505L297.009 236.504L324.353 283.978L310.449 291.562L276.752 244.727L261.332 208.558L253.176 145.166L297.448 134.227Z" fill="#2F2E41"/>
<path d="M269.831 218.865L268.759 235.463L271.897 284.611L287.472 289.973L290.421 239.616L269.831 218.865Z" fill="#2F2E41"/>
<path d="M265.043 45.4388L282.274 46.111L289.142 57.5109L304.811 60.5697L295.457 107.89L297.177 134.824L281.575 134.729C270.331 134.661 259.458 138.746 251.04 146.2L251.507 111.238L244.796 85.1385L246.305 57.7718L258.909 56.1962L265.043 45.4388Z" fill="#E6E6E6"/>
<path d="M274.589 39.9101C283.546 39.9101 290.807 32.6492 290.807 23.6924C290.807 14.7356 283.546 7.47462 274.589 7.47462C265.633 7.47462 258.372 14.7356 258.372 23.6924C258.372 32.6492 265.633 39.9101 274.589 39.9101Z" fill="#FFB6B6"/>
<path d="M263.576 7.16062C266.418 5.42812 269.673 4.49094 273.001 4.44706C276.329 4.40319 279.608 5.25424 282.494 6.91121C285.381 8.56818 287.769 10.9702 289.409 13.8662C291.05 16.7621 291.882 20.0456 291.819 23.3733C283.556 25.4481 274.874 27.0359 266.061 23.8696L263.98 18.7761L262.753 23.8734C260.069 24.9704 257.379 25.8985 254.688 23.8628C254.578 20.5445 255.341 17.2554 256.901 14.3244C258.461 11.3934 260.762 8.9232 263.576 7.16062Z" fill="#2F2E41"/>
<path d="M301.811 167.521L303.997 187.362C304.15 187.857 304.457 188.29 304.873 188.597C305.29 188.905 305.794 189.071 306.312 189.071H316.389C316.907 189.071 317.412 188.905 317.828 188.598C318.245 188.29 318.552 187.857 318.704 187.362L320.515 172.155C321.038 172.411 321.614 172.54 322.196 172.53C322.778 172.52 323.349 172.372 323.863 172.099C324.377 171.825 324.818 171.433 325.151 170.956C325.484 170.478 325.699 169.929 325.778 169.352C325.857 168.775 325.798 168.188 325.606 167.639C325.414 167.089 325.094 166.593 324.673 166.191C324.252 165.79 323.741 165.493 323.183 165.327C322.625 165.161 322.036 165.13 321.464 165.236C321.238 164.97 320.956 164.755 320.639 164.609C320.321 164.462 319.976 164.386 319.626 164.387H304.126C303.747 164.387 303.373 164.476 303.035 164.647C302.697 164.817 302.403 165.065 302.178 165.37C301.953 165.675 301.802 166.028 301.739 166.402C301.675 166.776 301.7 167.159 301.811 167.521ZM320.832 171.127L321.941 167.521C322.069 167.105 322.082 166.662 321.977 166.239C322.025 166.237 322.069 166.225 322.117 166.225C322.814 166.225 323.482 166.502 323.974 166.994C324.467 167.487 324.743 168.155 324.743 168.851C324.743 169.548 324.467 170.216 323.974 170.708C323.482 171.2 322.814 171.477 322.117 171.477C321.666 171.474 321.222 171.353 320.832 171.127Z" fill="#1891AC"/>
<path d="M317.007 189.085C316.371 188.446 315.883 187.675 315.577 186.826C315.271 185.978 315.155 185.073 315.237 184.175C315.319 183.277 315.596 182.407 316.051 181.628C316.505 180.849 317.124 180.179 317.865 179.665L308.044 130.883L318.89 134.365L326.751 181.55C327.532 182.852 327.808 184.395 327.527 185.887C327.246 187.379 326.427 188.716 325.226 189.645C324.025 190.574 322.525 191.03 321.01 190.927C319.495 190.823 318.071 190.168 317.007 189.085Z" fill="#FFB6B6"/>
<path d="M298.081 65.6494L304.811 60.5697C304.811 60.5697 310.747 60.1493 311.798 70.8549C312.85 81.5605 319.433 122.648 319.433 122.648L329.73 170.341L315.476 173.47L304.447 122.001L293.406 86.4919L298.081 65.6494Z" fill="#E6E6E6"/>
<path d="M240.002 110.056C242.106 110.056 243.811 108.351 243.811 106.247C243.811 104.143 242.106 102.438 240.002 102.438C237.898 102.438 236.193 104.143 236.193 106.247C236.193 108.351 237.898 110.056 240.002 110.056Z" fill="#1891AC"/>
<path d="M118.53 365.305L126.469 365.304L130.246 334.684L118.529 334.685L118.53 365.305Z" fill="#FFB6B6"/>
<path d="M116.505 362.713L118.74 362.713L127.464 359.165L132.139 362.712C134.782 362.712 137.316 363.762 139.185 365.63C141.053 367.499 142.103 370.033 142.103 372.675V372.999L116.506 373L116.505 362.713Z" fill="#2F2E41"/>
<path d="M149.294 360.302L157.038 362.051L167.467 333.014L156.037 330.434L149.294 360.302Z" fill="#FFB6B6"/>
<path d="M147.89 357.328L150.069 357.82L159.36 356.281L163.14 360.771L163.14 360.771C165.718 361.353 167.958 362.936 169.369 365.17C170.78 367.404 171.246 370.107 170.664 372.684L170.593 373L145.624 367.362L147.89 357.328Z" fill="#2F2E41"/>
<path d="M103.997 207.798L111.176 288.228C111.176 288.228 108.486 336.514 117.165 353.505H129.753L135.985 283.818L136.768 237.043L163.754 276.505L146.566 352.366L162.058 353.751L189.95 271.425L159.307 194.14L103.997 207.798Z" fill="#2F2E41"/>
<path d="M111.515 79.7163C121.74 79.7163 130.029 71.4275 130.029 61.2029C130.029 50.9782 121.74 42.6894 111.515 42.6894C101.291 42.6894 93.0018 50.9782 93.0018 61.2029C93.0018 71.4275 101.291 79.7163 111.515 79.7163Z" fill="#FFB8B8"/>
<path d="M144.06 97.3586L128.872 90.8418L121.479 82.9995L103.008 85.9784L98.1073 94.3812L82.2432 109.132L100.83 193.173L100.267 211.528C100.267 211.528 112.163 216.883 163.754 204.553C164.373 204.405 163.078 203.758 163.078 203.758L144.06 97.3586Z" fill="#3F3D56"/>
<path d="M92.2641 71.7078C92.1351 71.5318 92.0074 71.3542 91.8809 71.1752C91.83 71.2827 91.7896 71.3938 91.7314 71.4988L92.2641 71.7078Z" fill="#2F2E41"/>
<path d="M129.931 47.661C128.694 44.9652 126.487 42.8336 123.75 41.6898C121.038 40.5956 118.006 40.5983 115.295 41.6972C112.847 40.1509 110.128 38.925 107.264 38.7731C104.4 38.6213 101.372 39.6838 99.607 42.0226C99.2129 42.64 98.7653 43.2216 98.2693 43.7605C96.8506 45.0743 94.6946 44.8848 92.8089 44.6162C93.6547 45.3411 94.5007 46.066 95.3469 46.7908C94.3231 47.0583 93.2992 47.3257 92.2752 47.5932C93.47 48.3178 94.6648 49.0425 95.8594 49.7671C92.3909 51.849 90.8145 56.3928 91.2309 60.5197C91.6249 64.4268 93.5112 67.9996 95.7661 71.1752C96.6657 69.2769 96.4718 67.0056 96.457 64.8676C96.4415 62.6087 96.8411 60.0435 98.6513 58.781C99.8723 57.9294 101.442 57.8914 102.915 57.8994C110.342 57.9402 117.761 58.4034 125.136 59.2867C126.137 59.33 127.112 59.613 127.981 60.1118C129.612 61.2244 129.929 63.5205 130.093 65.5348C130.955 62.2088 131.376 58.7842 131.347 55.3486C131.42 52.7151 130.937 50.0958 129.931 47.661Z" fill="#2F2E41"/>
<path d="M135.695 264.18C151.788 264.18 164.834 251.134 164.834 235.041C164.834 218.948 151.788 205.902 135.695 205.902C119.602 205.902 106.556 218.948 106.556 235.041C106.556 251.134 119.602 264.18 135.695 264.18Z" fill="white"/>
<path d="M135.695 205.254C134.197 205.255 132.702 205.367 131.221 205.591C130.463 205.701 129.725 205.844 128.993 206.019C123.618 207.258 118.692 209.966 114.766 213.841C110.84 217.717 108.068 222.607 106.759 227.966C105.45 233.325 105.656 238.942 107.353 244.191C109.051 249.44 112.174 254.114 116.373 257.691C116.872 258.112 117.377 258.52 117.901 258.909C121.681 261.727 126.077 263.608 130.726 264.396C135.375 265.184 140.145 264.856 144.643 263.44C149.141 262.025 153.238 259.561 156.598 256.252C159.957 252.944 162.483 248.884 163.968 244.409C165.452 239.933 165.852 235.169 165.136 230.508C164.419 225.848 162.606 221.424 159.845 217.601C157.085 213.778 153.456 210.665 149.257 208.519C145.059 206.372 140.411 205.253 135.695 205.254ZM135.695 263.532C129.637 263.539 123.736 261.603 118.859 258.009C118.328 257.62 117.817 257.219 117.318 256.791C113.227 253.34 110.191 248.806 108.56 243.708C106.928 238.611 106.766 233.156 108.092 227.971C109.418 222.785 112.179 218.079 116.058 214.391C119.937 210.702 124.777 208.182 130.023 207.119C130.748 206.97 131.473 206.854 132.212 206.763C133.367 206.62 134.531 206.549 135.695 206.55C143.252 206.55 150.498 209.551 155.842 214.894C161.185 220.238 164.187 227.484 164.187 235.041C164.187 242.597 161.185 249.844 155.842 255.187C150.498 260.53 143.252 263.532 135.695 263.532Z" fill="#3F3D56"/>
<path d="M121.403 229.213H149.987C151.035 229.213 151.883 228.364 151.883 227.317V227.224C151.883 226.177 151.035 225.328 149.987 225.328H121.403C120.356 225.328 119.507 226.177 119.507 227.224V227.317C119.507 228.364 120.356 229.213 121.403 229.213Z" fill="#1891AC"/>
<path d="M121.403 236.983H149.987C151.035 236.983 151.883 236.135 151.883 235.087V234.994C151.883 233.947 151.035 233.098 149.987 233.098H121.403C120.356 233.098 119.507 233.947 119.507 234.994V235.087C119.507 236.135 120.356 236.983 121.403 236.983Z" fill="#1891AC"/>
<path d="M121.403 244.754H149.987C151.035 244.754 151.883 243.905 151.883 242.858V242.765C151.883 241.718 151.035 240.869 149.987 240.869H121.403C120.356 240.869 119.507 241.718 119.507 242.765V242.858C119.507 243.905 120.356 244.754 121.403 244.754Z" fill="#1891AC"/>
<path d="M461.695 364.316L453.371 364.316L449.411 332.208L461.696 332.209L461.695 364.316Z" fill="#9E616A"/>
<path d="M422.314 364.316L413.991 364.316L410.03 332.208L422.316 332.209L422.314 364.316Z" fill="#9E616A"/>
<path d="M422.607 373L397.01 372.999V372.675C397.01 370.033 398.06 367.499 399.928 365.63C401.797 363.762 404.331 362.712 406.973 362.712H406.974L411.65 359.165L420.373 362.713L422.608 362.713L422.607 373Z" fill="#2F2E41"/>
<path d="M463.056 373L437.459 372.999V372.675C437.459 370.033 438.509 367.499 440.377 365.63C442.245 363.762 444.78 362.712 447.422 362.712H447.423L452.098 359.165L460.822 362.713L463.057 362.713L463.056 373Z" fill="#2F2E41"/>
<path d="M414.149 174.295L401.498 251.326L404.941 262.806L400.423 270.935L407.058 342.334L404.365 348.263L411.889 352.903H427.2L428.013 288.266L431.795 278.776V273.545L439.494 234.131L440.912 289.328L443.151 298.833L441.27 305.601L443.728 310.342L450.258 354.312H467.426L466.099 344.082C467.594 343.325 468.795 342.092 469.514 340.578C470.232 339.063 470.427 337.353 470.068 335.716L469.084 331.232L471.324 317.975L475.404 244.015L474.253 184.339L454.169 168.981L414.149 174.295Z" fill="#2F2E41"/>
<path d="M443.151 75.3765C451.961 75.3765 459.103 68.2349 459.103 59.4254C459.103 50.6158 451.961 43.4742 443.151 43.4742C434.342 43.4742 427.2 50.6158 427.2 59.4254C427.2 68.2349 434.342 75.3765 443.151 75.3765Z" fill="#9E616A"/>
<path d="M408.3 204.863C408.994 204.146 409.523 203.285 409.848 202.342C410.174 201.398 410.288 200.395 410.184 199.402C410.08 198.409 409.759 197.451 409.245 196.596C408.73 195.741 408.035 195.008 407.207 194.451L413.41 170.994L401.459 175.014L397.401 196.673C396.557 198.126 396.275 199.838 396.609 201.485C396.943 203.132 397.869 204.599 399.212 205.609C400.556 206.618 402.223 207.1 403.898 206.963C405.573 206.825 407.139 206.078 408.3 204.863Z" fill="#9E616A"/>
<path d="M414.828 92.2424L412.263 91.7101L410.075 92.9214C410.075 92.9214 403.964 101.069 403.964 108.538C403.964 116.007 396.495 187.978 396.495 187.978L410.075 194.089L420.939 137.734L414.828 92.2424Z" fill="#E6E6E6"/>
<path d="M457.12 47.7302C457.12 47.7302 461.292 39.7547 452.114 39.0296C452.114 39.0296 444.289 31.9316 436.313 37.732C436.313 37.732 431.963 37.732 429.584 42.6549C429.584 42.6549 426.163 41.3573 425.411 44.83C425.411 44.83 422.907 52.0806 425.411 58.606C427.914 65.1315 428.746 65.8566 428.746 65.8566C428.746 65.8566 424.632 52.1756 434.646 51.4505C444.66 50.7255 455.865 44.4675 456.7 52.4431C457.534 60.4187 458.79 62.3838 458.79 62.3838C458.79 62.3838 466.716 50.993 457.12 47.7302Z" fill="#2F2E41"/>
<path d="M515.389 270.935C514.185 270.937 513.023 270.494 512.126 269.691L463.852 226.72C462.88 225.852 462.291 224.633 462.215 223.332C462.14 222.03 462.583 220.752 463.449 219.777L494.373 185.037C495.241 184.064 496.46 183.475 497.761 183.4C499.063 183.324 500.341 183.768 501.316 184.634L549.59 227.605C550.564 228.472 551.153 229.691 551.229 230.992C551.305 232.294 550.86 233.573 549.993 234.547L519.068 269.287C518.64 269.771 518.12 270.165 517.539 270.446C516.957 270.728 516.326 270.891 515.681 270.927C515.583 270.933 515.486 270.935 515.389 270.935Z" fill="white"/>
<path d="M515.388 271.251C514.107 271.253 512.87 270.782 511.916 269.927L463.642 226.956C462.607 226.032 461.981 224.735 461.9 223.35C461.82 221.965 462.292 220.604 463.213 219.567L494.137 184.827C495.061 183.792 496.358 183.165 497.743 183.085C499.128 183.004 500.489 183.476 501.526 184.397L549.8 227.369C550.836 228.292 551.464 229.589 551.544 230.974C551.625 232.36 551.152 233.72 550.229 234.757L519.304 269.497C518.849 270.012 518.295 270.432 517.677 270.731C517.058 271.031 516.386 271.205 515.699 271.243C515.595 271.248 515.492 271.251 515.388 271.251ZM498.049 184.339C497.488 184.338 496.934 184.455 496.423 184.684C495.911 184.914 495.454 185.249 495.082 185.667L464.157 220.407C463.459 221.194 463.1 222.226 463.161 223.277C463.222 224.327 463.698 225.311 464.483 226.012L512.756 268.983C513.146 269.329 513.599 269.596 514.092 269.767C514.584 269.938 515.105 270.011 515.626 269.981C516.146 269.95 516.656 269.818 517.125 269.591C517.594 269.364 518.014 269.046 518.36 268.657L549.285 233.917C549.985 233.13 550.344 232.098 550.283 231.047C550.222 229.997 549.746 229.013 548.959 228.313L500.686 185.341C499.96 184.694 499.021 184.337 498.049 184.339Z" fill="#3F3D56"/>
<path d="M532.894 238.035C532.373 238.035 531.869 237.844 531.48 237.497L493.587 203.766C493.378 203.58 493.207 203.355 493.084 203.104C492.961 202.852 492.89 202.578 492.873 202.299C492.856 202.019 492.895 201.739 492.987 201.475C493.079 201.21 493.222 200.966 493.408 200.757C493.594 200.548 493.82 200.378 494.072 200.256C494.324 200.134 494.598 200.063 494.877 200.048C495.157 200.032 495.437 200.071 495.701 200.164C495.965 200.257 496.208 200.401 496.417 200.587L534.31 234.318C534.632 234.605 534.86 234.983 534.962 235.402C535.065 235.821 535.037 236.262 534.884 236.665C534.73 237.068 534.458 237.415 534.102 237.66C533.747 237.904 533.325 238.035 532.894 238.035Z" fill="#1891AC"/>
<path d="M525.666 246.154C525.145 246.155 524.642 245.963 524.252 245.616L486.36 211.885C486.151 211.699 485.981 211.474 485.859 211.223C485.738 210.971 485.667 210.698 485.651 210.419C485.634 210.14 485.673 209.861 485.765 209.597C485.857 209.333 486 209.09 486.186 208.881C486.371 208.673 486.596 208.503 486.848 208.381C487.099 208.259 487.372 208.188 487.651 208.172C487.93 208.156 488.21 208.195 488.474 208.287C488.737 208.379 488.981 208.521 489.189 208.707L527.082 242.438C527.405 242.725 527.632 243.103 527.735 243.522C527.837 243.941 527.81 244.381 527.656 244.785C527.502 245.188 527.23 245.535 526.874 245.779C526.519 246.024 526.098 246.154 525.666 246.154Z" fill="#1891AC"/>
<path d="M518.439 254.274C517.917 254.275 517.413 254.083 517.025 253.736L479.131 220.006C478.922 219.82 478.752 219.595 478.63 219.343C478.508 219.092 478.437 218.818 478.42 218.539C478.404 218.26 478.443 217.98 478.535 217.716C478.626 217.452 478.769 217.209 478.955 217C479.141 216.791 479.367 216.621 479.618 216.499C479.87 216.377 480.143 216.306 480.422 216.29C480.702 216.274 480.981 216.314 481.245 216.406C481.509 216.498 481.753 216.641 481.961 216.827L519.854 250.558C520.176 250.845 520.404 251.223 520.506 251.642C520.609 252.061 520.582 252.501 520.428 252.904C520.275 253.308 520.002 253.655 519.647 253.899C519.291 254.144 518.87 254.275 518.439 254.274Z" fill="#1891AC"/>
<path d="M475.105 206.248C474.619 205.376 474.329 204.408 474.258 203.413C474.186 202.417 474.333 201.418 474.689 200.485C475.045 199.553 475.602 198.71 476.319 198.016C477.036 197.321 477.897 196.793 478.84 196.467L478.881 172.204L489.395 179.163L487.744 201.137C488.186 202.758 488.018 204.485 487.272 205.991C486.525 207.497 485.253 208.676 483.695 209.306C482.137 209.936 480.402 209.973 478.819 209.409C477.235 208.845 475.914 207.72 475.105 206.248Z" fill="#9E616A"/>
<path d="M476.077 98.8913L480.774 94.3638L484.224 96.8543C484.224 96.8543 487.619 100.928 490.335 113.15C493.051 125.371 490.335 192.59 490.335 192.59L475.398 190.553L477.435 155.246L471.324 125.371L476.077 98.8913Z" fill="#E6E6E6"/>
<path d="M483.013 95.4682L467.187 87.909L456.443 77.9435L436.851 77.7968L430.531 86.0129L413.846 91.6807L416.627 149.214L414.731 153.638C414.731 153.638 416.052 154.831 416.655 155.499C417.259 156.166 415.821 161.753 415.821 161.753L415.011 167.832L417.259 169.438L414.336 172.89L413.611 178.332C413.611 178.332 464.623 165.652 474.262 186.657C474.772 187.766 473.518 176.921 473.518 176.921L472.263 168.981L473.508 161.854L475.404 159.958L472.224 156.778L474.262 141.689L483.013 95.4682Z" fill="#3F3D56"/>
<path d="M124.133 223.015C124.525 222.017 124.695 220.946 124.629 219.876C124.563 218.807 124.263 217.765 123.751 216.823C123.238 215.882 122.526 215.064 121.663 214.428C120.801 213.792 119.809 213.353 118.758 213.141L115.243 187.328L105.05 196.238L109.951 219.385C109.713 221.173 110.139 222.987 111.149 224.482C112.158 225.978 113.682 227.051 115.43 227.498C117.178 227.946 119.029 227.737 120.633 226.91C122.237 226.084 123.482 224.698 124.133 223.015Z" fill="#FFB8B8"/>
<path d="M84.1992 108.66L81.4364 109.19L79.7665 111.292C79.7665 111.292 77.0649 121.889 80.1424 129.294C83.22 136.699 105.471 211.137 105.471 211.137L121.453 211.6L109.003 151.248L84.1992 108.66Z" fill="#3F3D56"/>
<path d="M147.205 219.228C146.469 218.449 145.913 217.518 145.575 216.501C145.238 215.484 145.127 214.405 145.252 213.341C145.376 212.276 145.732 211.252 146.296 210.34C146.859 209.428 147.615 208.651 148.511 208.063L142.148 182.8L154.928 187.267L159.011 210.572C159.899 212.143 160.18 213.985 159.801 215.749C159.421 217.513 158.408 219.077 156.953 220.144C155.498 221.21 153.702 221.707 151.905 221.538C150.109 221.369 148.436 220.547 147.205 219.228Z" fill="#FFB8B8"/>
<path d="M141.622 98.2305L144.383 97.6914L146.716 99.0196C146.716 99.0196 153.174 107.845 153.079 115.863C152.985 123.882 160.093 201.249 160.093 201.249L145.436 207.638L134.485 146.995L141.622 98.2305Z" fill="#3F3D56"/>
</g>
<defs>
<clipPath id="clip0_712_843">
<rect width="551.553" height="373" fill="white"/>
</clipPath>
</defs>
</svg>
