<svg width="112" height="122" viewBox="0 0 112 122" fill="none" xmlns="http://www.w3.org/2000/svg">
<path fill-rule="evenodd" clip-rule="evenodd" d="M73.1925 50.1667C73.1071 51.1534 72.7967 52.1134 72.2808 52.9863C72.6001 53.7153 72.7467 54.4967 72.711 55.28C72.6754 56.0634 72.4584 56.8313 72.074 57.5342C71.6896 58.237 71.1464 58.8591 70.4794 59.3603C69.8125 59.8615 69.0366 60.2307 68.202 60.444C68.3698 61.6653 68.0812 62.9023 67.3819 63.9583C66.6826 65.0143 65.6128 65.8286 64.3427 66.2717C63.8302 67 63.119 67.5968 62.2776 68.0047C61.4361 68.4127 60.4927 68.618 59.5381 68.6011C59.2395 68.601 58.9413 68.5822 58.6455 68.5447C57.6021 68.4247 56.6146 68.0498 55.7892 67.4603C54.9638 68.0498 53.9763 68.4247 52.9328 68.5447C51.8409 68.7104 50.7192 68.5829 49.7066 68.1781C48.694 67.7733 47.8349 67.109 47.2357 66.2674C45.965 65.8249 44.8948 65.0107 44.1954 63.9545C43.496 62.8984 43.2077 61.6611 43.3764 60.4396C42.5411 60.2266 41.7645 59.8574 41.097 59.3559C40.4295 58.8544 39.886 58.2319 39.5015 57.5285C39.117 56.8251 38.9002 56.0565 38.8651 55.2726C38.8299 54.4887 38.9773 53.7068 39.2976 52.9776C38.3543 51.3847 38.1113 49.5286 38.6171 47.7806C39.1229 46.0327 40.3403 44.5219 42.0256 43.5506C42.0316 43.4953 42.0352 43.4421 42.0448 43.3836C42.1394 42.8284 42.3682 42.2989 42.7149 41.8328C43.0615 41.3666 43.5176 40.9753 44.0506 40.6866C43.8576 39.2169 44.2723 37.7346 45.215 36.5246C46.1576 35.3145 47.5618 34.4621 49.1575 34.1311C49.3938 33.8532 49.662 33.5987 49.9577 33.372C50.7576 32.7688 51.7343 32.3889 52.7689 32.2786C53.8034 32.1682 54.8511 32.3322 55.7844 32.7506C56.72 32.3333 57.7698 32.1712 58.8055 32.2843C59.8413 32.3973 60.8183 32.7806 61.6171 33.3872C61.9135 33.6136 62.1821 33.8681 62.4185 34.1463C64.0142 34.4773 65.4183 35.3297 66.361 36.5398C67.3036 37.7498 67.7183 39.2321 67.5254 40.7017C68.0582 40.9906 68.5142 41.382 68.8608 41.8482C69.2075 42.3143 69.4363 42.8437 69.5312 43.3987C69.5408 43.4541 69.5444 43.5072 69.5504 43.5657C70.759 44.2673 71.7355 45.2511 72.3766 46.413C73.0177 47.575 73.2996 48.8719 73.1925 50.1667ZM54.0545 35.478V64.3859C53.9273 65.0377 53.1212 65.3673 52.453 65.453C51.9752 65.5442 51.4774 65.4884 51.0387 65.2944C50.6001 65.1005 50.2458 64.7796 50.0321 64.3827C49.9273 64.1538 49.764 63.9506 49.5554 63.79C49.3468 63.6294 49.099 63.5158 48.8324 63.4587C48.4245 63.3725 48.0451 63.2 47.7254 62.9554C47.4057 62.7108 47.1547 62.401 46.9932 62.0517C46.8317 61.7023 46.7643 61.3233 46.7964 60.9457C46.8285 60.5682 46.9594 60.203 47.1781 59.8801C47.3493 59.627 47.4373 59.3352 47.432 59.0387C47.4266 58.7421 47.3281 58.4531 47.1479 58.2052C46.9676 57.9574 46.7132 57.761 46.4141 57.639C46.1151 57.5169 45.7838 57.4743 45.459 57.516C44.8371 57.5979 44.203 57.4842 43.6627 57.1941C43.1224 56.9039 42.7088 56.4548 42.4911 55.9219C43.0424 56.1961 43.628 56.4098 44.2353 56.5584C44.6782 56.6667 45.1506 56.6115 45.5484 56.405C45.9463 56.1985 46.2371 55.8575 46.3569 55.4572C46.4767 55.0568 46.4157 54.6298 46.1872 54.2702C45.9587 53.9105 45.5816 53.6476 45.1387 53.5393C44.3674 53.3512 43.6656 52.9806 43.1056 52.4656C42.5456 51.9506 42.1477 51.31 41.9529 50.6097C41.758 49.9094 41.7733 49.1747 41.9972 48.4816C42.2211 47.7884 42.6454 47.1617 43.2264 46.6662C43.6655 47.0679 44.1983 47.3758 44.786 47.5673C45.0007 47.6411 45.2296 47.6755 45.4592 47.6684C45.6888 47.6614 45.9145 47.6131 46.1232 47.5264C46.3319 47.4396 46.5195 47.3161 46.6748 47.1632C46.8302 47.0102 46.9503 46.8308 47.0281 46.6354C47.106 46.44 47.14 46.2326 47.1282 46.0252C47.1164 45.8178 47.059 45.6146 46.9594 45.4275C46.8597 45.2404 46.7199 45.0731 46.548 44.9353C46.3761 44.7976 46.1755 44.6922 45.958 44.6252C45.7914 44.5706 45.6509 44.4654 45.5604 44.3275C45.4699 44.1897 45.435 44.0278 45.4618 43.8694C45.4885 43.7109 45.5752 43.5658 45.707 43.4586C45.8388 43.3514 46.0077 43.2889 46.1848 43.2816C46.4637 43.2711 46.7357 43.1997 46.9775 43.0735C47.2193 42.9473 47.4237 42.7701 47.5733 42.557C47.7229 42.3439 47.8132 42.1012 47.8365 41.8497C47.8598 41.5982 47.8154 41.3454 47.7071 41.1127C47.5141 40.6956 47.4318 40.2434 47.467 39.7923C47.5023 39.3413 47.6539 38.904 47.9099 38.5155C47.9845 38.4046 48.0675 38.2984 48.1582 38.1978C48.2787 38.6844 48.481 39.1514 48.758 39.5826C48.873 39.7598 49.0254 39.9149 49.2066 40.0388C49.3878 40.1628 49.5942 40.2533 49.8141 40.3052C50.034 40.3571 50.2631 40.3693 50.4882 40.3411C50.7133 40.3129 50.9301 40.245 51.1261 40.1411C51.3222 40.0372 51.4937 39.8994 51.6309 39.7356C51.768 39.5718 51.8681 39.3852 51.9255 39.1864C51.9829 38.9876 51.9964 38.7806 51.9652 38.5771C51.9341 38.3736 51.8589 38.1776 51.744 38.0004C51.544 37.6919 51.4539 37.3352 51.4859 36.9788C51.5178 36.6224 51.6703 36.2836 51.9226 36.0082C52.1748 35.7328 52.5147 35.5342 52.8961 35.4393C53.2775 35.3445 53.6819 35.358 54.0545 35.478ZM69.0813 55.9186C69.0114 56.0902 68.9204 56.2543 68.8102 56.4077C68.5225 56.805 68.1169 57.12 67.6385 57.3161C67.1601 57.5122 66.6299 57.5811 66.1098 57.5149C65.7849 57.4732 65.4537 57.5158 65.1547 57.6379C64.8556 57.7599 64.6011 57.9563 64.4209 58.2042C64.2407 58.452 64.1422 58.741 64.1368 59.0376C64.1315 59.3341 64.2195 59.626 64.3907 59.879C64.6094 60.2019 64.7402 60.5671 64.7724 60.9447C64.8045 61.3222 64.737 61.7012 64.5755 62.0506C64.414 62.4 64.1631 62.7097 63.8434 62.9543C63.5236 63.1989 63.1442 63.3714 62.7364 63.4576C62.4697 63.5146 62.2218 63.6281 62.0132 63.7887C61.8046 63.9494 61.6413 64.1526 61.5367 64.3816C61.3232 64.7786 60.9689 65.0997 60.5302 65.2936C60.0915 65.4876 59.5936 65.5433 59.1158 65.4519C58.4464 65.3673 57.6403 65.0366 57.5131 64.3859V35.4769C57.8857 35.3569 58.2901 35.3434 58.6715 35.4382C59.0529 35.5331 59.3927 35.7317 59.645 36.0071C59.8973 36.2825 60.0497 36.6214 60.0817 36.9777C60.1136 37.3341 60.0235 37.6908 59.8236 37.9993C59.7025 38.1767 59.6219 38.3741 59.5864 38.58C59.551 38.786 59.5614 38.9962 59.6171 39.1984C59.6728 39.4007 59.7727 39.5908 59.9108 39.7576C60.049 39.9245 60.2226 40.0647 60.4216 40.17C60.6205 40.2753 60.8407 40.3436 61.0693 40.3709C61.2978 40.3982 61.5301 40.3839 61.7525 40.3289C61.9749 40.2738 62.1828 40.1792 62.3641 40.0505C62.5455 39.9218 62.6965 39.7616 62.8083 39.5793C63.0858 39.1483 63.2881 38.6812 63.4082 38.1945C63.4989 38.2952 63.5818 38.4013 63.6565 38.5123C63.9125 38.9007 64.0641 39.3381 64.0993 39.7891C64.1345 40.2401 64.0523 40.6924 63.8592 41.1095C63.751 41.3421 63.7066 41.595 63.7299 41.8465C63.7532 42.098 63.8435 42.3407 63.9931 42.5538C64.1426 42.7669 64.3471 42.9441 64.5889 43.0703C64.8307 43.1964 65.1026 43.2678 65.3816 43.2784C65.5592 43.2845 65.7288 43.3463 65.8616 43.453C65.9944 43.5598 66.082 43.7049 66.1095 43.8636C66.137 44.0223 66.1027 44.1847 66.0123 44.3231C65.922 44.4614 65.7813 44.5671 65.6143 44.622C65.3969 44.6889 65.1963 44.7943 65.0244 44.9321C64.8525 45.0698 64.7126 45.2371 64.613 45.4242C64.5134 45.6114 64.456 45.8146 64.4442 46.0219C64.4324 46.2293 64.4664 46.4368 64.5442 46.6322C64.6221 46.8275 64.7422 47.0069 64.8975 47.1599C65.0529 47.3129 65.2404 47.4363 65.4491 47.5231C65.6579 47.6099 65.8836 47.6582 66.1132 47.6652C66.3428 47.6722 66.5716 47.6379 66.7864 47.5641C67.3739 47.3723 67.9067 47.0644 68.3459 46.6629C68.927 47.1585 69.3513 47.7851 69.5752 48.4783C69.799 49.1715 69.8143 49.9061 69.6195 50.6064C69.4247 51.3067 69.0267 51.9474 68.4667 52.4624C67.9067 52.9773 67.2049 53.348 66.4337 53.5361C66.2144 53.5897 66.0089 53.6818 65.829 53.8072C65.6491 53.9326 65.4983 54.0888 65.3852 54.2669C65.272 54.445 65.1988 54.6415 65.1697 54.8452C65.1406 55.0488 65.1561 55.2557 65.2154 55.4539C65.2748 55.6522 65.3767 55.8379 65.5154 56.0005C65.6541 56.1631 65.8269 56.2995 66.0239 56.4017C66.2209 56.504 66.4383 56.5702 66.6636 56.5965C66.8889 56.6228 67.1177 56.6088 67.337 56.5552C67.9444 56.4065 68.53 56.1928 69.0813 55.9186Z" fill="#1891AC"/>
<path d="M67.0419 51.3108C67.4692 51.4536 67.9416 51.4382 68.3564 51.268C68.7712 51.0979 69.0951 50.7867 69.2576 50.402C69.4202 50.0173 69.4083 49.5902 69.2246 49.2134C69.0409 48.8365 68.7001 48.5404 68.2764 48.3893C67.5079 48.1239 66.6836 48.0168 65.8635 48.0757C65.0434 48.1346 64.2481 48.3581 63.5356 48.7298C62.8232 49.1016 62.2113 49.6124 61.7448 50.2249C61.2782 50.8374 60.9686 51.5362 60.8385 52.2705C60.8028 52.4736 60.8117 52.6811 60.8647 52.8811C60.9177 53.0811 61.0138 53.2696 61.1475 53.436C61.2812 53.6024 61.4499 53.7433 61.6439 53.8507C61.8379 53.9582 62.0534 54.03 62.2781 54.062C62.3694 54.0749 62.4616 54.0815 62.554 54.0816C62.965 54.0809 63.3622 53.948 63.6748 53.7068C63.9873 53.4656 64.1947 53.1318 64.2599 52.765C64.3084 52.4898 64.4243 52.2279 64.5991 51.9982C64.7738 51.7686 65.0031 51.5772 65.2701 51.4379C65.5371 51.2985 65.8352 51.2148 66.1425 51.1928C66.4499 51.1709 66.7588 51.2112 67.0467 51.3108H67.0419Z" fill="#1891AC"/>
<path d="M61.352 48.1952C61.7761 48.3196 62.237 48.291 62.6385 48.1156C63.0399 47.9402 63.3509 47.6314 63.5066 47.2537C63.6623 46.876 63.6506 46.4585 63.474 46.0884C63.2974 45.7183 62.9696 45.4241 62.5588 45.2672C62.4016 45.2142 62.258 45.1326 62.137 45.0275C62.0159 44.9224 61.92 44.796 61.855 44.6561C61.7901 44.5162 61.7575 44.3658 61.7593 44.2141C61.7611 44.0623 61.7972 43.9126 61.8654 43.774C62.053 43.3955 62.0665 42.9651 61.9031 42.5776C61.7396 42.1901 61.4126 41.8771 60.9939 41.7076C60.5752 41.538 60.0991 41.5258 59.6704 41.6735C59.2417 41.8213 58.8955 42.1169 58.7079 42.4954C58.4459 43.0241 58.3066 43.5957 58.2986 44.1749C58.2907 44.7541 58.4142 45.3287 58.6615 45.8631C58.9089 46.3975 59.2748 46.8803 59.7367 47.2818C60.1987 47.6833 60.7468 47.9949 61.3472 48.1974L61.352 48.1952Z" fill="#1891AC"/>
<path d="M61.232 55.461C60.622 55.6416 60.0642 55.9429 59.5992 56.3428C59.1342 56.7428 58.7737 57.2315 58.5439 57.7733C58.3141 58.3151 58.2208 58.8963 58.2707 59.4748C58.3207 60.0533 58.5127 60.6144 58.8327 61.1174C58.9461 61.2954 59.0971 61.4515 59.2772 61.5768C59.4572 61.702 59.6628 61.794 59.8822 61.8474C60.1016 61.9008 60.3305 61.9146 60.5559 61.8881C60.7812 61.8616 60.9985 61.7952 61.1954 61.6927C61.3923 61.5902 61.565 61.4537 61.7036 61.2909C61.8421 61.1281 61.9439 60.9423 62.003 60.7439C62.062 60.5456 62.0774 60.3387 62.048 60.135C62.0186 59.9314 61.9452 59.7349 61.8318 59.5569C61.7681 59.4569 61.7299 59.3453 61.7201 59.2303C61.7103 59.1152 61.729 58.9997 61.775 58.892C61.8211 58.7844 61.8931 58.6875 61.986 58.6083C62.0789 58.5291 62.1901 58.4697 62.3117 58.4345C62.7395 58.3002 63.092 58.0196 63.2935 57.6529C63.495 57.2863 63.5294 56.8628 63.3893 56.4735C63.2492 56.0842 62.9458 55.7601 62.5442 55.5707C62.1426 55.3814 61.675 55.342 61.2416 55.461H61.232Z" fill="#1891AC"/>
<path d="M50.332 55.4555C49.8986 55.3366 49.4309 55.376 49.0294 55.5653C48.6278 55.7546 48.3244 56.0788 48.1843 56.4681C48.0442 56.8574 48.0786 57.2809 48.2801 57.6475C48.4815 58.0142 48.834 58.2948 49.2619 58.4291C49.3834 58.4643 49.4947 58.5237 49.5876 58.6029C49.6804 58.682 49.7525 58.779 49.7985 58.8866C49.8445 58.9943 49.8633 59.1098 49.8535 59.2249C49.8437 59.3399 49.8055 59.4515 49.7417 59.5515C49.5128 59.911 49.4513 60.338 49.5706 60.7385C49.69 61.1391 49.9804 61.4803 50.3782 61.6873C50.7759 61.8942 51.2482 61.9499 51.6913 61.842C52.1344 61.7341 52.512 61.4715 52.7409 61.112C53.0609 60.609 53.2529 60.0479 53.3028 59.4694C53.3528 58.8909 53.2595 58.3096 53.0297 57.7679C52.7998 57.2261 52.4393 56.7374 51.9743 56.3374C51.5093 55.9374 50.9516 55.6362 50.3416 55.4555H50.332Z" fill="#1891AC"/>
<path d="M49.0184 54.0761C48.6074 54.0754 48.2102 53.9426 47.8976 53.7014C47.5851 53.4602 47.3777 53.1264 47.3125 52.7596C47.2639 52.4844 47.1481 52.2224 46.9733 51.9928C46.7985 51.7632 46.5693 51.5718 46.3023 51.4324C46.0353 51.2931 45.7372 51.2094 45.4298 51.1874C45.1225 51.1654 44.8136 51.2057 44.5257 51.3054C44.0984 51.4482 43.626 51.4328 43.2112 51.2626C42.7963 51.0925 42.4725 50.7813 42.3099 50.3966C42.1474 50.0119 42.1593 49.5848 42.343 49.2079C42.5267 48.8311 42.8674 48.535 43.2912 48.3839C44.0597 48.1185 44.884 48.0113 45.7041 48.0702C46.5242 48.1292 47.3195 48.3526 48.0319 48.7244C48.7444 49.0962 49.3562 49.607 49.8228 50.2195C50.2894 50.832 50.599 51.5308 50.7291 52.2651C50.7648 52.4682 50.7559 52.6757 50.7029 52.8757C50.6498 53.0756 50.5537 53.2642 50.42 53.4306C50.2863 53.597 50.1177 53.7379 49.9237 53.8453C49.7297 53.9527 49.5142 54.0245 49.2895 54.0566C49.1998 54.0693 49.1091 54.0758 49.0184 54.0761Z" fill="#1891AC"/>
<path d="M49.6122 48.2885C49.817 48.2881 50.0201 48.2547 50.212 48.1898C50.8124 47.9873 51.3605 47.6757 51.8224 47.2742C52.2844 46.8727 52.6503 46.3899 52.8977 45.8555C53.145 45.3211 53.2685 44.7465 53.2605 44.1673C53.2525 43.5881 53.1132 43.0165 52.8512 42.4878C52.761 42.297 52.6296 42.1243 52.4647 41.9798C52.2998 41.8353 52.1048 41.722 51.891 41.6463C51.6771 41.5707 51.4488 41.5343 51.2192 41.5393C50.9897 41.5442 50.7635 41.5904 50.5539 41.6752C50.3443 41.76 50.1555 41.8817 49.9985 42.0331C49.8415 42.1846 49.7194 42.3628 49.6393 42.5573C49.5592 42.7519 49.5228 42.9589 49.5322 43.1662C49.5415 43.3736 49.5964 43.5773 49.6938 43.7653C49.7622 43.9039 49.7985 44.0538 49.8004 44.2057C49.8022 44.3575 49.7697 44.5081 49.7047 44.6481C49.6397 44.7881 49.5437 44.9146 49.4226 45.0198C49.3014 45.125 49.1577 45.2066 49.0004 45.2596C48.6208 45.3877 48.3031 45.632 48.1024 45.9501C47.9017 46.2682 47.8309 46.6398 47.9023 47.0003C47.9737 47.3607 48.1827 47.6871 48.493 47.9225C48.8033 48.1579 49.1951 48.2874 49.6002 48.2885H49.6122Z" fill="#1891AC"/>
<path fill-rule="evenodd" clip-rule="evenodd" d="M110.917 66.3412C111.344 65.6978 111.569 64.9615 111.568 64.2113C111.568 63.3895 111.297 62.5863 110.79 61.9041C110.283 61.2218 109.563 60.6913 108.721 60.38V54.5479C108.722 54.3423 108.677 54.1387 108.59 53.9488C108.504 53.7588 108.376 53.5862 108.216 53.4407C108.055 53.2953 107.864 53.1799 107.654 53.1012C107.444 53.0225 107.219 52.9819 106.991 52.9819H86.751C86.8302 52.1979 86.8793 51.4008 86.8793 50.5962H91.7979C92.2567 50.5962 92.6967 50.4314 93.0211 50.1382C93.3456 49.8449 93.5278 49.4471 93.5278 49.0324C93.5278 48.6177 93.3456 48.2199 93.0211 47.9267C92.6967 47.6334 92.2567 47.4686 91.7979 47.4686H86.7078C86.5888 46.4434 86.4066 45.425 86.1619 44.4181H99.6808C100.082 45.3056 100.811 46.0397 101.745 46.4947C102.678 46.9498 103.757 47.0976 104.798 46.9129C105.839 46.7282 106.776 46.2225 107.45 45.4822C108.124 44.7419 108.492 43.813 108.492 42.8544C108.492 41.8957 108.124 40.9668 107.45 40.2265C106.776 39.4862 105.839 38.9805 104.798 38.7958C103.757 38.6111 102.678 38.7589 101.745 39.214C100.811 39.669 100.082 40.4031 99.6808 41.2906H85.189C84.4022 39.2269 83.351 37.2535 82.0567 35.4108H85.9208C86.1517 35.4163 86.3816 35.3799 86.5967 35.3038C86.8118 35.2277 87.0079 35.1135 87.1734 34.9678C87.3389 34.822 87.4704 34.6479 87.5602 34.4555C87.65 34.2631 87.6963 34.0564 87.6963 33.8475C87.6963 33.6387 87.65 33.432 87.5602 33.2396C87.4704 33.0472 87.3389 32.873 87.1734 32.7273C87.0079 32.5816 86.8118 32.4674 86.5967 32.3913C86.3816 32.3152 86.1517 32.2788 85.9208 32.2843H79.5159C78.8905 31.6163 78.2327 30.9765 77.5424 30.3649V16.5979C77.5424 16.1832 77.3602 15.7854 77.0358 15.4922C76.7114 15.1989 76.2714 15.0341 75.8126 15.0341H72.805C72.4042 14.1462 71.6745 13.4118 70.7409 12.9564C69.8072 12.501 68.7276 12.353 67.6865 12.5376C66.6455 12.7223 65.7077 13.2281 65.0336 13.9686C64.3595 14.7091 63.991 15.6384 63.991 16.5974C63.991 17.5564 64.3595 18.4856 65.0336 19.2261C65.7077 19.9666 66.6455 20.4725 67.6865 20.6571C68.7276 20.8417 69.8072 20.6937 70.7409 20.2383C71.6745 19.7829 72.4042 19.0485 72.805 18.1606H74.0827V27.7156C70.5081 25.3512 66.4139 23.7078 62.0766 22.8963V5.70036H66.7948C67.1956 6.58827 67.9253 7.32272 68.8589 7.7781C69.7926 8.23349 70.8723 8.38152 71.9133 8.19688C72.9543 8.01225 73.8921 7.50642 74.5662 6.76589C75.2403 6.02537 75.6088 5.09615 75.6088 4.13714C75.6088 3.17814 75.2403 2.24892 74.5662 1.5084C73.8921 0.767871 72.9543 0.26204 71.9133 0.0774058C70.8723 -0.107229 69.7926 0.040803 68.8589 0.496186C67.9253 0.951568 67.1956 1.68601 66.7948 2.57392H60.3431C60.1157 2.57364 59.8905 2.61388 59.6803 2.69234C59.4702 2.77079 59.2792 2.88594 59.1183 3.03117C58.9574 3.17641 58.8298 3.34889 58.7427 3.53876C58.6556 3.72863 58.6108 3.93215 58.6108 4.13769V22.4344C57.7434 22.3628 56.8617 22.3183 55.9715 22.3183V17.8721C55.9715 17.4574 55.7893 17.0596 55.4649 16.7664C55.1404 16.4731 54.7004 16.3084 54.2416 16.3084C53.7828 16.3084 53.3428 16.4731 53.0184 16.7664C52.694 17.0596 52.5117 17.4574 52.5117 17.8721V22.4734C51.3776 22.5809 50.2509 22.7457 49.1371 22.9668V10.7463C50.1189 10.3838 50.9309 9.72432 51.4343 8.88054C51.9378 8.03677 52.1013 7.06112 51.897 6.12041C51.6927 5.1797 51.1332 4.33236 50.3143 3.72327C49.4953 3.11418 48.4677 2.78116 47.4072 2.78116C46.3467 2.78116 45.3191 3.11418 44.5002 3.72327C43.6812 4.33236 43.1218 5.1797 42.9175 6.12041C42.7132 7.06112 42.8767 8.03677 43.3801 8.88054C43.8835 9.72432 44.6955 10.3838 45.6773 10.7463V23.8463C43.3944 24.5575 41.2114 25.5078 39.1728 26.6778V23.1848C39.1789 22.976 39.1387 22.7683 39.0545 22.5738C38.9703 22.3794 38.8439 22.2021 38.6827 22.0525C38.5216 21.9029 38.3289 21.784 38.116 21.7029C37.9032 21.6217 37.6745 21.5798 37.4435 21.5798C37.2125 21.5798 36.9838 21.6217 36.771 21.7029C36.5582 21.784 36.3655 21.9029 36.2043 22.0525C36.0431 22.2021 35.9167 22.3794 35.8325 22.5738C35.7484 22.7683 35.7081 22.976 35.7142 23.1848V28.9746C34.9752 29.5407 34.2674 30.1353 33.5908 30.7585H18.3613C17.9025 30.7585 17.4625 30.9233 17.138 31.2165C16.8136 31.5098 16.6314 31.9075 16.6314 32.3223V35.041C15.6491 35.4033 14.8367 36.0629 14.3329 36.9069C13.8291 37.7509 13.6654 38.7269 13.8696 39.6679C14.0739 40.609 14.6334 41.4567 15.4526 42.066C16.2718 42.6754 17.2998 43.0085 18.3607 43.0085C19.4216 43.0085 20.4495 42.6754 21.2687 42.066C22.0879 41.4567 22.6475 40.609 22.8517 39.6679C23.056 38.7269 22.8922 37.7509 22.3884 36.9069C21.8847 36.0629 21.0722 35.4033 20.09 35.041V33.886H30.6601C28.0448 37.1174 26.2268 40.8184 25.3288 44.7391H6.30597V40.4708C7.28822 40.1084 8.10069 39.4488 8.60445 38.6048C9.10822 37.7608 9.27197 36.7849 9.06772 35.8438C8.86347 34.9027 8.3039 34.0551 7.4847 33.4457C6.6655 32.8363 5.63757 32.5032 4.57668 32.5032C3.51579 32.5032 2.48785 32.8363 1.66865 33.4457C0.84945 34.0551 0.28988 34.9027 0.0856294 35.8438C-0.118621 36.7849 0.045138 37.7608 0.548901 38.6048C1.05266 39.4488 1.86514 40.1084 2.84738 40.4708V46.3061C2.84706 46.5117 2.89158 46.7152 2.97837 46.9052C3.06516 47.0952 3.19254 47.2678 3.35321 47.4133C3.51387 47.5587 3.70468 47.6741 3.91472 47.7528C4.12476 47.8315 4.3499 47.8721 4.57728 47.8721H24.8178C24.7386 48.6561 24.6894 49.4532 24.6894 50.2578H19.7709C19.3121 50.2578 18.8721 50.4226 18.5476 50.7158C18.2232 51.0091 18.041 51.4068 18.041 51.8216C18.041 52.2363 18.2232 52.6341 18.5476 52.9273C18.8721 53.2206 19.3121 53.3853 19.7709 53.3853H24.861C24.9806 54.4109 25.1629 55.4296 25.4068 56.437H11.888C11.4871 55.5491 10.7574 54.8146 9.82379 54.3592C8.89014 53.9038 7.81047 53.7558 6.76943 53.9404C5.72839 54.1251 4.79064 54.6309 4.11655 55.3714C3.44246 56.112 3.0739 57.0412 3.0739 58.0002C3.0739 58.9592 3.44246 59.8884 4.11655 60.6289C4.79064 61.3695 5.72839 61.8753 6.76943 62.0599C7.81047 62.2446 8.89014 62.0965 9.82379 61.6411C10.7574 61.1858 11.4871 60.4513 11.888 59.5634H26.3797C27.1665 61.6271 28.2178 63.6005 29.512 65.4432H25.6479C25.417 65.4377 25.1872 65.4741 24.9721 65.5502C24.757 65.6263 24.5609 65.7405 24.3954 65.8863C24.2299 66.032 24.0984 66.2061 24.0086 66.3985C23.9188 66.5909 23.8725 66.7976 23.8725 67.0065C23.8725 67.2153 23.9188 67.422 24.0086 67.6144C24.0984 67.8068 24.2299 67.981 24.3954 68.1267C24.5609 68.2724 24.757 68.3866 24.9721 68.4627C25.1872 68.5388 25.417 68.5752 25.6479 68.5697H32.0529C32.6791 69.2377 33.3369 69.8775 34.0263 70.4891V84.2561C34.0263 84.6708 34.2086 85.0686 34.533 85.3618C34.8574 85.6551 35.2974 85.8199 35.7562 85.8199H38.7637C39.1646 86.7078 39.8942 87.4422 40.8279 87.8976C41.7615 88.353 42.8412 88.501 43.8823 88.3164C44.9233 88.1317 45.861 87.6259 46.5351 86.8854C47.2092 86.1449 47.5778 85.2156 47.5778 84.2566C47.5778 83.2976 47.2092 82.3684 46.5351 81.6279C45.861 80.8874 44.9233 80.3815 43.8823 80.1969C42.8412 80.0123 41.7615 80.1603 40.8279 80.6157C39.8942 81.0711 39.1646 81.8055 38.7637 82.6934H37.4861V73.1384C41.0605 75.5028 45.1548 77.1459 49.4922 77.9566V95.1536H44.7704C44.3695 94.2657 43.6399 93.5313 42.7062 93.0759C41.7726 92.6205 40.6929 92.4725 39.6519 92.6571C38.6108 92.8417 37.6731 93.3476 36.999 94.0881C36.3249 94.8286 35.9563 95.7578 35.9563 96.7169C35.9563 97.6758 36.3249 98.6051 36.999 99.3456C37.6731 100.086 38.6108 100.592 39.6519 100.777C40.6929 100.961 41.7726 100.813 42.7062 100.358C43.6399 99.9024 44.3695 99.168 44.7704 98.2801H51.2257C51.4531 98.2805 51.6783 98.2404 51.8885 98.1621C52.0988 98.0837 52.2898 97.9687 52.4508 97.8236C52.6118 97.6785 52.7396 97.506 52.8268 97.3162C52.9141 97.1264 52.9591 96.9229 52.9592 96.7174V78.4196C53.8254 78.4912 54.7071 78.5357 55.5984 78.5357V82.9819C55.6103 83.3893 55.7977 83.7765 56.1207 84.0609C56.4437 84.3453 56.8768 84.5045 57.3277 84.5045C57.7786 84.5045 58.2117 84.3453 58.5347 84.0609C58.8578 83.7765 59.0452 83.3893 59.057 82.9819V78.3806C60.1911 78.2725 61.3177 78.1078 62.4317 77.8872V90.1077C61.4499 90.4702 60.6378 91.1297 60.1344 91.9734C59.631 92.8172 59.4675 93.7929 59.6718 94.7336C59.8761 95.6743 60.4356 96.5216 61.2545 97.1307C62.0735 97.7398 63.101 98.0728 64.1616 98.0728C65.2221 98.0728 66.2496 97.7398 67.0686 97.1307C67.8875 96.5216 68.447 95.6743 68.6513 94.7336C68.8556 93.7929 68.6921 92.8172 68.1887 91.9734C67.6853 91.1297 66.8732 90.4702 65.8914 90.1077V77.0077C66.4573 76.8314 67.017 76.6404 67.5699 76.4351L67.9322 76.9231L72.9093 83.5779C72.3563 84.9591 72.4945 86.5914 73.4623 87.847L76.6421 91.9906L77.7481 93.4974L97.7946 119.991C98.6241 120.996 99.7301 121.623 101.113 121.874C101.527 122 101.804 122 102.08 122C103.186 122 104.154 121.623 104.984 121.121L109.823 118.108C110.929 117.48 111.62 116.475 111.896 115.22C112.173 113.964 111.896 112.708 111.067 111.704L97.6564 93.874L94.7531 89.8561L90.7438 84.4569L90.0525 83.4524L86.7345 79.4344L85.905 78.681L85.6285 78.4299C85.4902 78.3671 85.3865 78.3043 85.2828 78.2415C85.1791 78.1788 85.0754 78.116 84.9372 78.0532C84.9372 78.0532 84.7989 77.9276 84.6607 77.9276C84.583 77.8571 84.4618 77.8262 84.3215 77.7904C84.2119 77.7625 84.0907 77.7316 83.9694 77.6765C83.9694 77.5509 83.8312 77.5509 83.6929 77.5509C83.4164 77.4254 83.1399 77.4254 82.7252 77.4254H82.5869L80.5131 74.663L77.4174 70.5994C77.6065 70.4336 77.7934 70.2656 77.9779 70.0955H93.2075C93.6663 70.0955 94.1063 69.9307 94.4307 69.6375C94.7551 69.3442 94.9374 68.9465 94.9374 68.5317V65.813C95.9196 65.4507 96.7321 64.7911 97.2359 63.9471C97.7396 63.1031 97.9034 62.1271 97.6991 61.1861C97.4949 60.245 96.9353 59.3973 96.1161 58.788C95.2969 58.1786 94.269 57.8455 93.2081 57.8455C92.1472 57.8455 91.1193 58.1786 90.3001 58.788C89.4809 59.3973 88.9213 60.245 88.7171 61.1861C88.5128 62.1271 88.6766 63.1031 89.1803 63.9471C89.6841 64.7911 90.4966 65.4507 91.4788 65.813V66.968H80.9087C83.5242 63.7367 85.3422 60.0357 86.2399 56.1149H105.263V60.3832C104.494 60.6666 103.826 61.1336 103.328 61.7341C102.831 62.3346 102.523 63.0461 102.439 63.7925C102.354 64.5388 102.496 65.2919 102.848 65.9711C103.201 66.6503 103.751 67.2301 104.44 67.6483C105.129 68.0666 105.931 68.3077 106.76 68.3457C107.588 68.3837 108.413 68.2173 109.145 67.8642C109.878 67.5111 110.49 66.9847 110.917 66.3412ZM77.4174 70.5994C76.9129 71.0416 76.392 71.4682 75.8546 71.8794L72.396 74.1762C70.8627 75.0562 69.2477 75.8119 67.5699 76.4351L67.1812 75.9113L72.0499 72.9291L76.9186 69.947L77.3333 70.4891L77.4174 70.5994ZM102.799 42.8565C102.799 43.0563 102.864 43.2515 102.987 43.4175C103.11 43.5836 103.284 43.713 103.488 43.7894C103.693 43.8658 103.917 43.8857 104.134 43.8467C104.351 43.8076 104.55 43.7113 104.706 43.57C104.862 43.4287 104.968 43.2487 105.011 43.0528C105.054 42.8569 105.032 42.6539 104.947 42.4694C104.862 42.2849 104.719 42.1273 104.535 42.0165C104.351 41.9057 104.135 41.8467 103.914 41.8469C103.618 41.8475 103.335 41.9541 103.126 42.1433C102.917 42.3326 102.799 42.589 102.799 42.8565ZM69.6883 16.5979C69.6886 16.3982 69.6233 16.2029 69.5007 16.0367C69.3781 15.8705 69.2038 15.7409 68.9997 15.6644C68.7956 15.5878 68.571 15.5676 68.3543 15.6065C68.1376 15.6453 67.9385 15.7414 67.7821 15.8825C67.6258 16.0237 67.5193 16.2036 67.4761 16.3995C67.433 16.5953 67.455 16.7984 67.5395 16.9829C67.624 17.1675 67.7671 17.3252 67.9508 17.4362C68.1345 17.5472 68.3505 17.6064 68.5715 17.6064C68.8674 17.6061 69.1511 17.4998 69.3605 17.3108C69.5698 17.1217 69.6877 16.8654 69.6883 16.5979ZM69.9163 4.13769C69.9163 4.33737 69.9818 4.53257 70.1045 4.6986C70.2272 4.86463 70.4017 4.99403 70.6057 5.07045C70.8098 5.14686 71.0344 5.16686 71.251 5.1279C71.4677 5.08894 71.6667 4.99279 71.8229 4.85159C71.9791 4.71039 72.0855 4.5305 72.1286 4.33465C72.1717 4.13881 72.1495 3.93581 72.065 3.75132C71.9805 3.56684 71.8373 3.40916 71.6537 3.29822C71.47 3.18729 71.2541 3.12807 71.0331 3.12807C70.8865 3.12807 70.7412 3.15419 70.6057 3.20493C70.4702 3.25566 70.3471 3.33003 70.2434 3.42378C70.1397 3.51753 70.0574 3.62883 70.0013 3.75132C69.9452 3.87382 69.9163 4.0051 69.9163 4.13769ZM46.2928 6.91927C46.2928 7.11896 46.3582 7.31416 46.481 7.48019C46.6037 7.64622 46.7781 7.77562 46.9822 7.85204C47.1863 7.92845 47.4109 7.94844 47.6275 7.90949C47.8442 7.87053 48.0432 7.77438 48.1994 7.63318C48.3556 7.49198 48.4619 7.31209 48.505 7.11624C48.5481 6.92039 48.526 6.7174 48.4415 6.53291C48.3569 6.34843 48.2138 6.19075 48.0301 6.07981C47.8465 5.96887 47.6305 5.90966 47.4096 5.90966C47.1135 5.90995 46.8296 6.01641 46.6202 6.20569C46.4108 6.39496 46.2931 6.6516 46.2928 6.91927ZM19.4769 38.868C19.4769 38.6682 19.4114 38.473 19.2886 38.3069C19.1659 38.1409 18.9914 38.0115 18.7872 37.9351C18.583 37.8587 18.3584 37.8388 18.1417 37.8778C17.9251 37.9169 17.726 38.0131 17.5699 38.1544C17.4137 38.2957 17.3075 38.4757 17.2645 38.6717C17.2215 38.8676 17.2438 39.0706 17.3286 39.2551C17.4133 39.4395 17.5566 39.5971 17.7404 39.7079C17.9243 39.8188 18.1403 39.8778 18.3613 39.8776C18.6573 39.8773 18.941 39.7708 19.1502 39.5815C19.3594 39.3922 19.4769 39.1355 19.4769 38.868ZM3.4604 36.6427C3.46016 36.8424 3.52547 37.0377 3.64804 37.2039C3.77062 37.3701 3.94497 37.4996 4.14903 37.5762C4.3531 37.6528 4.5777 37.6729 4.79443 37.6341C5.01116 37.5953 5.21028 37.4992 5.3666 37.3581C5.52292 37.2169 5.62941 37.037 5.6726 36.8411C5.7158 36.6453 5.69375 36.4422 5.60925 36.2577C5.52475 36.0731 5.3816 35.9154 5.1979 35.8044C5.01421 35.6934 4.79822 35.6342 4.57728 35.6342C4.28127 35.6342 3.99737 35.7404 3.78795 35.9295C3.57853 36.1186 3.46072 36.3751 3.4604 36.6427ZM8.77126 57.9975C8.77126 57.7978 8.70575 57.6026 8.58303 57.4366C8.46031 57.2705 8.28587 57.1411 8.08179 57.0647C7.87771 56.9883 7.65314 56.9683 7.43649 57.0073C7.21984 57.0462 7.02083 57.1424 6.86463 57.2836C6.70843 57.4248 6.60206 57.6047 6.55897 57.8005C6.51587 57.9964 6.53799 58.1993 6.62252 58.3838C6.70706 58.5683 6.85021 58.726 7.03388 58.8369C7.21755 58.9479 7.43349 59.0071 7.65438 59.0071C7.9504 59.0065 8.23411 58.9 8.44343 58.7107C8.65275 58.5215 8.77062 58.2651 8.77126 57.9975ZM41.8816 84.2561C41.8814 84.4559 41.9467 84.6512 42.0694 84.8174C42.192 84.9836 42.3664 85.1132 42.5705 85.1897C42.7747 85.2663 42.9993 85.2864 43.2161 85.2475C43.4329 85.2085 43.632 85.1123 43.7883 84.9711C43.9445 84.8298 44.0509 84.6498 44.094 84.4539C44.137 84.2579 44.1148 84.0548 44.0301 83.8703C43.9454 83.6858 43.8021 83.5281 43.6183 83.4173C43.4344 83.3064 43.2183 83.2473 42.9973 83.2476C42.7015 83.2478 42.4179 83.3542 42.2088 83.5433C41.9996 83.7323 41.8819 83.9887 41.8816 84.2561ZM41.6525 96.7174C41.6527 96.5177 41.5874 96.3224 41.4649 96.1562C41.3423 95.99 41.1679 95.8604 40.9639 95.7839C40.7598 95.7073 40.5352 95.6871 40.3185 95.726C40.1017 95.7648 39.9026 95.8609 39.7463 96.002C39.59 96.1432 39.4835 96.3231 39.4403 96.5189C39.3971 96.7148 39.4192 96.9179 39.5036 97.1024C39.5881 97.287 39.7313 97.4447 39.915 97.5557C40.0987 97.6667 40.3147 97.7259 40.5356 97.7259C40.8316 97.7259 41.1155 97.6197 41.3249 97.4306C41.5344 97.2415 41.6522 96.985 41.6525 96.7174ZM65.276 93.9347C65.276 93.735 65.2105 93.5398 65.0878 93.3738C64.9651 93.2078 64.7906 93.0784 64.5866 93.002C64.3825 92.9255 64.1579 92.9055 63.9413 92.9445C63.7246 92.9835 63.5256 93.0796 63.3694 93.2208C63.2132 93.362 63.1068 93.5419 63.0637 93.7377C63.0206 93.9336 63.0428 94.1366 63.1273 94.3211C63.2118 94.5056 63.355 94.6632 63.5387 94.7742C63.7223 94.8851 63.9383 94.9443 64.1591 94.9443C64.4553 94.944 64.7392 94.8376 64.9485 94.6483C65.1579 94.459 65.2757 94.2024 65.276 93.9347ZM92.0918 61.986C92.0918 62.1858 92.1574 62.381 92.2801 62.5471C92.4029 62.7131 92.5774 62.8425 92.7816 62.9189C92.9857 62.9953 93.2103 63.0152 93.427 62.9762C93.6437 62.9371 93.8427 62.8409 93.9989 62.6996C94.155 62.5583 94.2613 62.3783 94.3043 62.1823C94.3472 61.9864 94.3249 61.7834 94.2402 61.5989C94.1555 61.4145 94.0122 61.2569 93.8283 61.146C93.6445 61.0352 93.4285 60.9762 93.2075 60.9764C92.9115 60.9767 92.6277 61.0832 92.4185 61.2725C92.2093 61.4618 92.0918 61.7185 92.0918 61.986ZM83.4195 50.427C83.4195 45.4862 81.7988 40.6563 78.7622 36.5482C75.7256 32.4401 71.4096 29.2382 66.3599 27.3474C61.3102 25.4567 55.7537 24.9619 50.393 25.9258C45.0323 26.8898 40.1082 29.269 36.2434 32.7627C32.3785 36.2563 29.7465 40.7075 28.6802 45.5534C27.6139 50.3993 28.1612 55.4222 30.2528 59.9869C32.3445 64.5516 35.8865 68.4531 40.4311 71.1981C44.9757 73.943 50.3187 75.4081 55.7844 75.4081C63.1112 75.4007 70.1355 72.7664 75.3163 68.0831C80.4971 63.3998 83.4113 57.0501 83.4195 50.427ZM108.108 64.2113C108.108 64.0116 108.043 63.8164 107.92 63.6504C107.797 63.4844 107.623 63.355 107.419 63.2785C107.215 63.2021 106.99 63.1821 106.774 63.2211C106.557 63.2601 106.358 63.3562 106.202 63.4974C106.046 63.6386 105.939 63.8185 105.896 64.0143C105.853 64.2102 105.875 64.4132 105.96 64.5977C106.044 64.7822 106.187 64.9398 106.371 65.0508C106.555 65.1617 106.771 65.2209 106.991 65.2209C107.288 65.2209 107.572 65.1146 107.781 64.9252C107.991 64.7359 108.108 64.4791 108.108 64.2113ZM83.0017 81.3178H82.8634H82.7252H82.5869C82.4487 81.3178 82.3104 81.3178 82.1721 81.4434L79.6836 82.9501L79.5454 83.0757L77.4716 84.3313C77.4716 84.3313 77.3333 84.3313 77.3333 84.4569C77.0568 84.708 76.9186 85.0847 77.1951 85.3358L79.1306 87.847L85.2137 84.0802L83.2782 81.5689C83.2782 81.4913 83.2254 81.4617 83.1524 81.4207C83.1073 81.3954 83.0545 81.3658 83.0017 81.3178ZM101.527 117.605C101.666 117.856 101.942 117.856 101.942 117.856C102.08 117.856 102.219 117.856 102.495 117.731L107.334 114.717C107.472 114.592 107.611 114.466 107.611 114.341C107.611 114.215 107.611 114.09 107.472 113.838L89.4995 90.1072L83.4164 93.874L101.527 117.605ZM76.2273 80.4389L76.9186 79.9366L77.0568 79.8111L78.4393 78.9321L74.2918 73.4074C74.0844 73.533 73.9116 73.6585 73.7388 73.7841C73.566 73.9096 73.3932 74.0352 73.1858 74.1608L71.9415 74.9141L76.2273 80.4389Z" fill="#253B6E"/>
<path d="M77.3333 70.4891L76.9186 69.947L72.0499 72.9291L67.1812 75.9113L67.5699 76.4351C69.2477 75.8119 70.8627 75.0562 72.396 74.1762L75.8546 71.8794C76.392 71.4682 76.9129 71.0416 77.4174 70.5994L77.3333 70.4891Z" fill="#253B6E"/>
</svg>
