<svg width="11" height="13" viewBox="0 0 11 13" fill="none" xmlns="http://www.w3.org/2000/svg">
<path d="M7.41869 0.250061C9.11244 0.250061 10.4812 0.918811 10.4999 2.61881V12.1063C10.4999 12.2126 10.4749 12.3188 10.4249 12.4126C10.3437 12.5626 10.2062 12.6751 10.0374 12.7251C9.87494 12.7751 9.69369 12.7501 9.54369 12.6626L5.49369 10.6376L1.43744 12.6626C1.34431 12.7119 1.23744 12.7438 1.13119 12.7438C0.781189 12.7438 0.499939 12.4563 0.499939 12.1063V2.61881C0.499939 0.918811 1.87494 0.250061 3.56244 0.250061H7.41869ZM7.84369 4.02506H3.13744C2.86869 4.02506 2.64994 4.24381 2.64994 4.51881C2.64994 4.79319 2.86869 5.01256 3.13744 5.01256H7.84369C8.11244 5.01256 8.33119 4.79319 8.33119 4.51881C8.33119 4.24381 8.11244 4.02506 7.84369 4.02506Z" fill="#1891AC"/>
</svg>
