<svg width="106" height="95" viewBox="0 0 106 95" fill="none" xmlns="http://www.w3.org/2000/svg">
<path fill-rule="evenodd" clip-rule="evenodd" d="M6 72C6 70.8954 6.89543 70 8 70H98.0003C99.1049 70 100 70.8954 100 72V92.5C100 93.6046 99.1049 94.5 98.0003 94.5H8C6.89543 94.5 6 93.6046 6 92.5V72ZM9.9997 73.5H22.4997V91H9.9997V73.5ZM60.4997 73.5H38.9997V91H60.4997V73.5ZM27.4997 73.5H34.4997V91H27.4997V73.5ZM95.9997 73.5H64.9997V91H95.9997V73.5Z" fill="#253B6E"/>
<path fill-rule="evenodd" clip-rule="evenodd" d="M106 4C106 2.89543 105.105 2 104 2H15C13.8954 2 13 2.89543 13 4V25.5C13 26.6046 13.8954 27.5 15 27.5H104C105.105 27.5 106 26.6046 106 25.5V4ZM102 5.5H16.9997V24H102V5.5Z" fill="#253B6E"/>
<path fill-rule="evenodd" clip-rule="evenodd" d="M13.5005 53C13.5005 51.8954 14.3959 51 15.5005 51H103.5C104.605 51 105.5 51.8954 105.5 53V68.5C105.5 69.6046 104.605 70.5 103.5 70.5H15.5005C14.3959 70.5 13.5005 69.6046 13.5005 68.5V53ZM17 54.5V67H84.4998V54.5C58.9205 54.5 42.5793 54.5 17 54.5ZM88.9998 67V54.5C93.2956 54.5 97.7041 54.5 102 54.5V67H88.9998Z" fill="#253B6E"/>
<path fill-rule="evenodd" clip-rule="evenodd" d="M93.0002 29C93.0002 27.8954 92.1048 27 91.0002 27H2C0.895431 27 0 27.8954 0 29V49.5C0 50.6046 0.895428 51.5 2 51.5H91.0002C92.1048 51.5 93.0002 50.6046 93.0002 49.5V29ZM3.99962 48V30.5H57.9996V48H3.99962ZM62.4996 30.5V48H69.9996V30.5H62.4996ZM74.2866 48V30.5H88.9996V48H74.2866Z" fill="#253B6E"/>
<path d="M94.0073 14.75L85.9917 14.75" stroke="#1891AC" stroke-width="5" stroke-linecap="round"/>
<circle cx="74.4995" cy="81.5" r="2.5" fill="#1891AC"/>
<circle cx="86.4995" cy="81.5" r="2.5" fill="#1891AC"/>
<path fill-rule="evenodd" clip-rule="evenodd" d="M26.7998 2C26.7998 0.89543 27.6952 0 28.7998 0H47.2998C48.4044 0 49.2998 0.895431 49.2998 2V38.3951C49.2998 40.0622 47.38 40.9976 46.0672 39.9701L37.7998 33.5L30.0663 39.8274C28.7604 40.8959 26.7998 39.9668 26.7998 38.2795V2Z" fill="#1891AC"/>
</svg>
