<svg width="104" height="95" viewBox="0 0 104 95" fill="none" xmlns="http://www.w3.org/2000/svg">
<path fill-rule="evenodd" clip-rule="evenodd" d="M6.5 69.5C6.5 68.3954 7.39543 67.5 8.5 67.5H96C97.1046 67.5 98 68.3954 98 69.5V92.5C98 93.6046 97.1046 94.5 96 94.5H8.5C7.39543 94.5 6.5 93.6046 6.5 92.5V69.5ZM11.5 72.5H21.5V90H11.5V72.5ZM59.5 72.5H38V90H59.5V72.5ZM26.5 72.5H33.5V90H26.5V72.5ZM92.5 72.5H64V90H92.5V72.5Z" fill="#253B6E"/>
<path fill-rule="evenodd" clip-rule="evenodd" d="M104 4.5C104 3.39543 103.105 2.5 102 2.5H15C13.8954 2.5 13 3.39543 13 4.5V27.5C13 28.6046 13.8954 29.5 15 29.5H102C103.105 29.5 104 28.6046 104 27.5V4.5ZM99.5 7.5H18V25.5H99.5V7.5Z" fill="#253B6E"/>
<path fill-rule="evenodd" clip-rule="evenodd" d="M13 50C13 48.8954 13.8954 48 15 48H102C103.105 48 104 48.8954 104 50V70.0838C104 71.1884 103.105 72.0838 102 72.0838H15C13.8954 72.0838 13 71.1884 13 70.0838V50ZM18 53V67H83.5V53H18ZM88.5 67V53H99.5V67H88.5Z" fill="#253B6E"/>
<path fill-rule="evenodd" clip-rule="evenodd" d="M91 27.5C91 26.3954 90.1046 25.5 89 25.5H2C0.895431 25.5 0 26.3954 0 27.5V50.5C0 51.6046 0.89543 52.5 2 52.5H89C90.1046 52.5 91 51.6046 91 50.5V27.5ZM5 48V30H56.5V48H5ZM61.5 30V48H69V30H61.5ZM74 48V30H86V48H74Z" fill="#253B6E"/>
<path d="M93.0078 14.75L84.9922 14.75" stroke="#1891AC" stroke-width="5" stroke-linecap="round"/>
<circle cx="73.5" cy="81" r="2.5" fill="#253B6E"/>
<circle cx="85" cy="81" r="2.5" fill="#253B6E"/>
<path fill-rule="evenodd" clip-rule="evenodd" d="M25.8 2C25.8 0.89543 26.6955 0 27.8 0H46.3C47.4046 0 48.3 0.895431 48.3 2V38.3951C48.3 40.0622 46.3803 40.9976 45.0674 39.9701L36.8 33.5L29.0665 39.8274C27.7607 40.8959 25.8 39.9668 25.8 38.2795V2Z" fill="#1891AC"/>
</svg>
