<svg width="32" height="32" viewBox="0 0 111 111" fill="none" xmlns="http://www.w3.org/2000/svg">
<circle cx="55.5" cy="55.5" r="55.5" fill="#1F5F8B"/>
<path d="M91 81.2464V59.2177L64.7541 81.2464H91Z" fill="#D2ECF9"/>
<path fill-rule="evenodd" clip-rule="evenodd" d="M69.4788 44.4179C76.6574 44.4179 82.4768 50.6272 82.4768 58.2868C82.4768 65.9464 76.6574 72.1557 69.4788 72.1557H41.5212C34.3426 72.1557 28.5232 65.9464 28.5232 58.2868C28.5232 50.6272 34.3426 44.4179 41.5212 44.4179H69.4788ZM91 58.2868C91 45.6046 81.3646 35.3236 69.4788 35.3236H41.5212C29.6354 35.3236 20 45.6046 20 58.2868C20 70.969 29.6354 81.25 41.5212 81.25H69.4788C81.3646 81.25 91 70.969 91 58.2868Z" fill="#D2ECF9"/>
<path d="M64.4688 58.2264C64.4688 60.5075 66.3846 62.3568 68.748 62.3568C71.1114 62.3568 73.0272 60.5075 73.0272 58.2264C73.0272 55.9452 71.1114 54.096 68.748 54.096C66.3846 54.096 64.4688 55.9452 64.4688 58.2264Z" fill="#D2ECF9"/>
<path d="M37.9375 58.2264C37.9375 60.5075 39.8534 62.3568 42.2168 62.3568C44.5801 62.3568 46.496 60.5075 46.496 58.2264C46.496 55.9452 44.5801 54.096 42.2168 54.096C39.8534 54.096 37.9375 55.9452 37.9375 58.2264Z" fill="#D2ECF9"/>
<path d="M30.4433 36.5212L31.3537 32.9376C32.2403 29.4473 28.2566 26.7018 25.1242 28.6444C21.9535 30.6108 22.9555 35.3141 26.6728 35.9134L30.4433 36.5212Z" fill="#D2ECF9"/>
</svg>
