<svg width="502" height="510" viewBox="0 0 502 510" fill="none" xmlns="http://www.w3.org/2000/svg">
<circle cx="98.5714" cy="321.429" r="51.4286" stroke="#253B6E" stroke-width="20"/>
<path d="M10 500V450.286C10 435.926 21.6406 424.286 36 424.286H159.714C174.074 424.286 185.714 435.926 185.714 450.286V500" stroke="#253B6E" stroke-width="20" stroke-linecap="round"/>
<path d="M400.714 108.571L315.081 192.149C313.076 194.106 309.855 194.034 307.939 191.989L269.286 150.714" stroke="#1891AC" stroke-width="30" stroke-linecap="round"/>
<path d="M230.548 262.239L231.661 256.219L226.805 252.49C193.467 226.887 172.857 189.661 172.857 148.571C172.857 73.2269 242.906 10 332.143 10C421.38 10 491.429 73.2269 491.429 148.571C491.429 223.916 421.38 287.143 332.143 287.143C325.253 287.143 318.469 286.762 311.816 286.025L308.878 285.699L306.235 287.023L217.772 331.344L230.548 262.239Z" stroke="#253B6E" stroke-width="20"/>
</svg>
