<svg width="107" height="103" viewBox="0 0 107 103" fill="none" xmlns="http://www.w3.org/2000/svg">
<path d="M58.145 64.783V37.8125H50.1166V64.783C50.1166 66.5655 51.9163 68.0124 54.1312 68.0124C56.3466 68.0124 58.145 66.5655 58.145 64.783Z" fill="#AEBCC4"/>
<path d="M43.6804 3.1875C40.9389 3.1875 38.3622 4.19177 36.617 5.94363C34.9092 7.66063 34.0085 10.0408 34.0177 12.83C34.047 20.8792 39.9666 25.59 45.3135 29.4164C49.4473 32.3752 53.5126 36.0928 54.185 36.6022C54.8574 36.0928 59.5986 31.8228 63.0547 28.918C72.8858 20.6551 74.3371 17.0576 74.3518 12.83C74.3604 10.0408 73.4632 7.6607 71.753 5.94423C70.0054 4.19177 67.4317 3.18757 64.6884 3.18757C62.8214 3.18757 61.0071 3.64123 59.4426 4.50103C57.1493 5.7637 55.8065 7.60617 55.0888 8.9313C55.0008 9.09431 54.8704 9.23047 54.7112 9.32533C54.5521 9.42018 54.3703 9.47021 54.185 9.4701C53.8066 9.4701 53.4588 9.2631 53.2812 8.9313C52.5605 7.60617 51.2226 5.76363 48.9287 4.50103C47.3624 3.64123 45.5474 3.1875 43.6804 3.1875Z" fill="#D2ECF9"/>
<path d="M72.5056 14.8425C76.6089 14.2014 79.8856 14.1426 80.0239 14.1402C80.1417 14.1392 80.258 14.1657 80.3637 14.2177C80.4694 14.2697 80.5615 14.3457 80.6325 14.4396C80.774 14.6306 80.8199 14.8786 80.7489 15.107C80.7103 15.2393 79.7367 18.3684 77.975 22.1293C75.5832 27.2264 73.0003 30.8404 70.2939 32.8722C66.8023 35.4918 63.312 35.2603 60.9979 34.61C58.5272 33.9113 56.8763 32.607 56.8071 32.552C56.7581 32.5124 56.7137 32.4675 56.6748 32.4179C56.6375 32.3674 56.607 32.3122 56.5841 32.2538C56.5481 32.1718 55.7581 30.2238 55.779 27.6544C55.7985 25.2504 56.5536 21.8336 60.0451 19.2158C62.7505 17.1847 66.9431 15.7132 72.5056 14.8425ZM35.8633 14.8425C31.7581 14.2014 28.4821 14.1426 28.3462 14.1402C28.2284 14.1391 28.112 14.1657 28.0063 14.2177C27.9006 14.2697 27.8086 14.3457 27.7375 14.4396C27.6667 14.5337 27.6192 14.6433 27.599 14.7593C27.5788 14.8754 27.5864 14.9945 27.6212 15.107C27.661 15.2393 28.6322 18.3684 30.3951 22.1293C32.7869 27.2265 35.3709 30.8405 38.0757 32.8722C41.566 35.4918 45.0575 35.2603 47.3716 34.61C49.8454 33.9113 51.4951 32.607 51.5624 32.552C51.6119 32.5128 51.6565 32.4678 51.6953 32.4179C51.7339 32.3664 51.7626 32.3119 51.7884 32.2538C51.8221 32.1718 52.6107 30.2238 52.5911 27.6544C52.5715 25.2504 51.8159 21.8336 48.3238 19.2158C45.6197 17.1847 41.4259 15.7132 35.8633 14.8425Z" fill="#1891AC"/>
<path d="M39.601 13.6841H39.6071C40.2972 13.6841 40.8581 13.1269 40.8611 12.4362C40.8636 11.9402 41.5623 10.7051 42.6106 9.9752C43.0772 9.65007 43.7704 9.31447 44.4397 9.55753C45.0887 9.79393 45.81 9.459 46.047 8.80753C46.2834 8.1566 45.9478 7.43707 45.2969 7.20007C43.9884 6.72307 42.5236 6.9784 41.1771 7.91714C39.574 9.03407 38.3598 10.9715 38.353 12.4239C38.35 13.1165 38.9084 13.6811 39.601 13.6841H39.601Z" fill="#43525B"/>
<path d="M81.6322 13.6833C81.2551 13.1842 80.6562 12.886 80.0022 12.886H80.0015C79.7475 12.8909 78.0195 12.9338 75.5897 13.183C75.5927 13.066 75.605 12.9515 75.6056 12.8334C75.6154 9.70311 74.5903 7.01497 72.6407 5.05851C70.6604 3.07211 67.7616 1.93311 64.6882 1.93311C62.6093 1.93311 60.5868 2.44077 58.8373 3.40211C56.4701 4.70584 55.0213 6.54771 54.1848 7.98057C53.3453 6.54711 51.8935 4.70091 49.5316 3.40151C47.7822 2.44084 45.7584 1.93311 43.6801 1.93311C40.605 1.93311 37.7068 3.07211 35.7277 5.05911C33.778 7.01924 32.753 9.70737 32.7633 12.837C32.764 12.9552 32.7756 13.0666 32.7787 13.1836C30.3495 12.9344 28.6147 12.891 28.3399 12.886C27.714 12.886 27.1145 13.1836 26.7343 13.687C26.3497 14.1995 26.234 14.8694 26.4201 15.4683C26.4293 15.5001 27.4262 18.751 29.2595 22.662C31.7389 27.9458 34.4515 31.7184 37.3229 33.8752C39.4581 35.4782 41.8235 36.2908 44.3537 36.2908C45.4633 36.2908 46.593 36.1316 47.7123 35.8169C48.6639 35.5481 49.4961 35.1959 50.1923 34.8487C50.9731 35.5064 51.6583 36.0967 52.1929 36.5584H48.8623V64.7829C48.8623 67.2549 51.226 69.2664 54.1309 69.2664C57.0358 69.2664 59.3988 67.2549 59.3988 64.7829V36.5584H56.1712C56.7071 36.0905 57.2421 35.6214 57.7761 35.1513L58.1375 34.8341C58.8392 35.1849 59.6885 35.5431 60.6584 35.8174C61.776 36.1316 62.9057 36.2908 64.0153 36.2908C66.5442 36.2908 68.9097 35.4782 71.0461 33.8752C73.9168 31.7204 76.6295 27.9477 79.1107 22.6614C80.9593 18.7136 81.9439 15.4884 81.9463 15.4792C82.1343 14.8743 82.0199 14.2062 81.6322 13.6832V13.6833ZM35.2715 12.8254C35.2635 10.3797 36.0363 8.30577 37.5053 6.82811C39.0166 5.31144 41.2669 4.44124 43.6801 4.44124C45.3377 4.44124 46.9439 4.84177 48.3235 5.59924C50.3497 6.71491 51.5389 8.35224 52.1751 9.52244C52.5719 10.2634 53.3416 10.7238 54.1848 10.7238C55.0249 10.7238 55.7946 10.2646 56.1914 9.52797C56.827 8.35411 58.0119 6.71977 60.0461 5.59977C61.4257 4.84171 63.0306 4.44117 64.6882 4.44117C67.1002 4.44117 69.3511 5.31197 70.8642 6.82931C72.3327 8.30264 73.1049 10.3766 73.0975 12.8241C73.0962 13.0507 73.0791 13.2717 73.0675 13.4952C72.8158 13.5314 72.5709 13.5632 72.3113 13.6036C66.5436 14.5062 62.1629 16.0572 59.2923 18.212C55.3917 21.1372 54.5467 24.9558 54.5246 27.6439C54.5013 30.5397 55.4193 32.7196 55.4199 32.7196C55.486 32.8856 55.568 33.0325 55.6905 33.1954C55.7616 33.2854 55.846 33.3594 55.9287 33.4354C55.276 34.0092 54.6489 34.5596 54.1835 34.9632C54.0819 34.8756 53.9723 34.7807 53.8547 34.6797C53.3791 34.2682 52.9019 33.8585 52.4231 33.4508C52.5174 33.3668 52.6105 33.2836 52.6987 33.1703C52.7899 33.0484 52.8671 32.9143 52.9485 32.73C53.0422 32.5004 53.8658 30.4117 53.8449 27.644C53.8229 24.9558 52.9779 21.1372 49.0767 18.2126C46.2067 16.0573 41.8266 14.5068 36.0565 13.6036C35.7975 13.5632 35.5525 13.5314 35.3003 13.4952C35.2893 13.2724 35.2727 13.0525 35.2715 12.8254V12.8254ZM47.0321 33.4024C44.1216 34.2211 41.2743 33.7037 38.8285 31.8698C36.2892 29.9617 33.8337 26.5056 31.5301 21.5971C30.2637 18.8956 29.4169 16.5331 29.0409 15.4175C30.23 15.4677 32.7204 15.6208 35.6689 16.0813C41.028 16.9202 45.0327 18.3126 47.5715 20.2194C50.6521 22.5286 51.3195 25.5431 51.3367 27.6643C51.3521 29.6532 50.8229 31.2483 50.6773 31.65C50.6399 31.6775 50.5848 31.7166 50.5259 31.7577C50.4837 31.7063 50.458 31.6464 50.4066 31.601L48.4416 29.879C48.4606 29.7444 48.4716 29.6066 48.4435 29.4658L47.1869 23.1097C47.0528 22.43 46.3958 21.9867 45.7136 22.1226C45.0339 22.2566 44.5925 22.9168 44.7265 23.5958L45.4503 27.2576L43.0647 25.1672C43.0635 25.0943 43.0806 25.0245 43.0659 24.951L42.0855 19.988C41.9514 19.3089 41.295 18.8662 40.6122 19.0009C39.9325 19.135 39.4911 19.7945 39.6251 20.4742L40.0262 22.5041L36.8059 19.6818C36.2843 19.2244 35.4925 19.277 35.0363 19.7982C34.5795 20.3192 34.6321 21.1116 35.1526 21.5678L38.4409 24.4495L36.5127 24.6204C35.8231 24.6816 35.3131 25.2902 35.3743 25.9803C35.4319 26.6324 35.9793 27.1236 36.6223 27.1236C36.6589 27.1236 36.6963 27.1217 36.7343 27.1186L41.0501 26.7366L43.6764 29.0377L40.4273 29.3244C39.7372 29.3849 39.2277 29.9936 39.2884 30.6837C39.3459 31.3358 39.8933 31.8276 40.5363 31.8276C40.5731 31.8276 40.6104 31.8257 40.6478 31.8226L46.2868 31.3248L48.1973 33.0002C47.8359 33.1453 47.4496 33.2843 47.0319 33.4025L47.0321 33.4024ZM56.8907 64.7829C56.8907 65.8539 55.6268 66.7583 54.1309 66.7583C52.6343 66.7583 51.3705 65.8539 51.3705 64.783V39.0665H52.8156V57.7305H55.3237V39.0665H56.8907V64.7828L56.8907 64.7829ZM76.8394 21.5965C74.5353 26.5068 72.0797 29.9635 69.5411 31.8691C67.0935 33.7043 64.2407 34.2199 61.3388 33.403C60.6358 33.2046 60.0039 32.9493 59.4681 32.6927L60.8648 31.5629L67.0146 32.1055C67.0519 32.1086 67.0893 32.1104 67.126 32.1104C67.7689 32.1104 68.3164 31.6186 68.374 30.9666C68.4345 30.2764 67.9251 29.6677 67.235 29.6071L63.6706 29.293L66.5694 26.9478C66.5786 26.9484 66.5859 26.9545 66.5951 26.9551L71.6328 27.4015C71.6708 27.4046 71.7081 27.4064 71.7448 27.4064C72.3878 27.4064 72.9353 26.9153 72.9928 26.2632C73.0541 25.5731 72.544 24.9644 71.8545 24.9032L69.3685 24.6827L73.1789 21.5996C73.7173 21.1642 73.8011 20.3743 73.3651 19.836C72.9279 19.2972 72.138 19.2134 71.6016 19.6499L68.4615 22.1906L68.7456 20.7582C68.8804 20.0791 68.4389 19.419 67.7592 19.2844C67.0838 19.1478 66.42 19.5917 66.2853 20.2708L65.4157 24.6545L62.2812 27.1908L62.9352 23.8781C63.0692 23.199 62.6272 22.5396 61.9475 22.4054C61.2678 22.2652 60.6089 22.714 60.4748 23.3931L59.2397 29.6518L57.5031 31.0565C57.2931 30.334 57.0206 29.1154 57.0328 27.6648C57.05 25.5424 57.7175 22.5285 60.7981 20.2188C63.3375 18.312 67.3415 16.9201 72.6989 16.0812C75.6271 15.6238 78.153 15.4688 79.3287 15.418C78.957 16.5214 78.112 18.8802 76.8395 21.5965H76.8394Z" fill="#43525B"/>
<path d="M0.565527 91.75C0.565527 90.72 0.795527 89.8 1.25553 88.99C1.72553 88.17 2.36053 87.535 3.16053 87.085C3.97053 86.625 4.87553 86.395 5.87553 86.395C7.04553 86.395 8.07053 86.695 8.95053 87.295C9.83053 87.895 10.4455 88.725 10.7955 89.785H8.38053C8.14053 89.285 7.80053 88.91 7.36053 88.66C6.93053 88.41 6.43053 88.285 5.86053 88.285C5.25053 88.285 4.70553 88.43 4.22553 88.72C3.75553 89 3.38553 89.4 3.11553 89.92C2.85553 90.44 2.72553 91.05 2.72553 91.75C2.72553 92.44 2.85553 93.05 3.11553 93.58C3.38553 94.1 3.75553 94.505 4.22553 94.795C4.70553 95.075 5.25053 95.215 5.86053 95.215C6.43053 95.215 6.93053 95.09 7.36053 94.84C7.80053 94.58 8.14053 94.2 8.38053 93.7H10.7955C10.4455 94.77 9.83053 95.605 8.95053 96.205C8.08053 96.795 7.05553 97.09 5.87553 97.09C4.87553 97.09 3.97053 96.865 3.16053 96.415C2.36053 95.955 1.72553 95.32 1.25553 94.51C0.795527 93.7 0.565527 92.78 0.565527 91.75ZM17.9892 97L15.6792 92.92H14.6892V97H12.5892V86.53H16.5192C17.3292 86.53 18.0192 86.675 18.5892 86.965C19.1592 87.245 19.5842 87.63 19.8642 88.12C20.1542 88.6 20.2992 89.14 20.2992 89.74C20.2992 90.43 20.0992 91.055 19.6992 91.615C19.2992 92.165 18.7042 92.545 17.9142 92.755L20.4192 97H17.9892ZM14.6892 91.345H16.4442C17.0142 91.345 17.4392 91.21 17.7192 90.94C17.9992 90.66 18.1392 90.275 18.1392 89.785C18.1392 89.305 17.9992 88.935 17.7192 88.675C17.4392 88.405 17.0142 88.27 16.4442 88.27H14.6892V91.345ZM24.2686 86.53V93.01C24.2686 93.72 24.4536 94.265 24.8236 94.645C25.1936 95.015 25.7136 95.2 26.3836 95.2C27.0636 95.2 27.5886 95.015 27.9586 94.645C28.3286 94.265 28.5136 93.72 28.5136 93.01V86.53H30.6286V92.995C30.6286 93.885 30.4336 94.64 30.0436 95.26C29.6636 95.87 29.1486 96.33 28.4986 96.64C27.8586 96.95 27.1436 97.105 26.3536 97.105C25.5736 97.105 24.8636 96.95 24.2236 96.64C23.5936 96.33 23.0936 95.87 22.7236 95.26C22.3536 94.64 22.1686 93.885 22.1686 92.995V86.53H24.2686ZM34.7576 88.225V90.85H38.2826V92.515H34.7576V95.29H38.7326V97H32.6576V86.515H38.7326V88.225H34.7576ZM42.741 95.335H46.191V97H40.641V86.53H42.741V95.335ZM54.6507 86.53V88.225H51.8607V97H49.7607V88.225H46.9707V86.53H54.6507ZM64.5079 86.53L60.9679 93.355V97H58.8679V93.355L55.3129 86.53H57.6829L59.9329 91.315L62.1679 86.53H64.5079ZM72.1091 90.76V92.53H65.7491V90.76H72.1091ZM80.9292 86.53V88.225H76.5642V90.91H79.9092V92.575H76.5642V97H74.4642V86.53H80.9292ZM87.8183 97L85.5083 92.92H84.5183V97H82.4183V86.53H86.3483C87.1583 86.53 87.8483 86.675 88.4183 86.965C88.9883 87.245 89.4133 87.63 89.6933 88.12C89.9833 88.6 90.1283 89.14 90.1283 89.74C90.1283 90.43 89.9283 91.055 89.5283 91.615C89.1283 92.165 88.5333 92.545 87.7433 92.755L90.2483 97H87.8183ZM84.5183 91.345H86.2733C86.8433 91.345 87.2683 91.21 87.5483 90.94C87.8283 90.66 87.9683 90.275 87.9683 89.785C87.9683 89.305 87.8283 88.935 87.5483 88.675C87.2683 88.405 86.8433 88.27 86.2733 88.27H84.5183V91.345ZM94.1277 88.225V90.85H97.6527V92.515H94.1277V95.29H98.1027V97H92.0277V86.515H98.1027V88.225H94.1277ZM102.111 88.225V90.85H105.636V92.515H102.111V95.29H106.086V97H100.011V86.515H106.086V88.225H102.111Z" fill="#D2ECF9"/>
</svg>
