<svg width="576" height="506" viewBox="0 0 576 506" fill="none" xmlns="http://www.w3.org/2000/svg">
<path d="M152.565 274.325L119.05 279.562C115.384 280.085 111.718 276.943 111.718 273.278V199.44C111.718 180.588 86.0582 173.78 77.1558 190.538L2.27068 331.405C-5.06073 344.497 6.46004 360.207 21.1229 358.113L54.6379 352.876C58.3036 352.352 61.9693 355.494 61.9693 359.16V432.998C61.9693 451.85 87.6292 458.658 96.5316 441.9L171.94 301.032C178.748 287.417 167.751 271.707 152.565 274.325Z" fill="#1891AC"/>
<path d="M108.342 149.5C146.386 69.9012 226.947 15 320.178 15C450.063 15 561 121.556 561 253C561 384.444 455.707 491 325.822 491C257.531 491 194.478 461.543 150.034 414.5" stroke="#253B6E" stroke-width="29"/>
<path d="M154 398L162.5 406.5L139.5 424.5L154 398Z" fill="#253B6E"/>
<path d="M120.456 158C111.807 150.5 105.184 147 94.5 145L94.5188 144.957C95.9865 141.62 96.814 139.738 97 140.5L123 152.5L120.456 158Z" fill="#253B6E"/>
<path d="M323 148.5V277C323 277.552 323.448 278 324 278H430" stroke="#253B6E" stroke-width="30" stroke-linecap="round"/>
</svg>
