<svg width="128" height="116" viewBox="0 0 128 116" fill="none" xmlns="http://www.w3.org/2000/svg">
<path d="M36 63C36.0011 64.0605 36.4229 65.0773 37.1728 65.8272C37.9227 66.5771 38.9395 66.9989 40 67H46C47.0605 66.9989 48.0773 66.5771 48.8272 65.8272C49.5771 65.0773 49.9989 64.0605 50 63V57C49.9989 55.9395 49.5771 54.9227 48.8272 54.1728C48.0773 53.4229 47.0605 53.0011 46 53H40C38.9395 53.0011 37.9227 53.4229 37.1728 54.1728C36.4229 54.9227 36.0011 55.9395 36 57V63ZM40 57H46L46.0029 63H40V57Z" fill="#253B6E"/>
<path d="M40 31H46C47.0605 30.9989 48.0773 30.5771 48.8272 29.8272C49.5771 29.0773 49.9989 28.0605 50 27V21C49.9989 19.9395 49.5771 18.9227 48.8272 18.1728C48.0773 17.4229 47.0605 17.0011 46 17H40C38.9395 17.0011 37.9227 17.4229 37.1728 18.1728C36.4229 18.9227 36.0011 19.9395 36 21V27C36.0011 28.0605 36.4229 29.0773 37.1728 29.8272C37.9227 30.5771 38.9395 30.9989 40 31ZM40 21H46L46.0029 27H40V21Z" fill="#253B6E"/>
<path d="M36 45C36.0011 46.0605 36.4229 47.0773 37.1728 47.8272C37.9227 48.5771 38.9395 48.9989 40 49H46C47.0605 48.9989 48.0773 48.5771 48.8272 47.8272C49.5771 47.0773 49.9989 46.0605 50 45V39C49.9989 37.9395 49.5771 36.9227 48.8272 36.1728C48.0773 35.4229 47.0605 35.0011 46 35H40C38.9395 35.0011 37.9227 35.4229 37.1728 36.1728C36.4229 36.9227 36.0011 37.9395 36 39V45ZM40 39H46L46.0029 45H40V39Z" fill="#253B6E"/>
<path d="M56 22H88V18H56C55.4696 18 54.9609 18.2107 54.5858 18.5858C54.2107 18.9609 54 19.4696 54 20C54 20.5304 54.2107 21.0391 54.5858 21.4142C54.9609 21.7893 55.4696 22 56 22Z" fill="#253B6E"/>
<path d="M56 30H88V26H56C55.4696 26 54.9609 26.2107 54.5858 26.5858C54.2107 26.9609 54 27.4696 54 28C54 28.5304 54.2107 29.0391 54.5858 29.4142C54.9609 29.7893 55.4696 30 56 30Z" fill="#253B6E"/>
<path d="M56 40H88V36H56C55.4696 36 54.9609 36.2107 54.5858 36.5858C54.2107 36.9609 54 37.4696 54 38C54 38.5304 54.2107 39.0391 54.5858 39.4142C54.9609 39.7893 55.4696 40 56 40Z" fill="#253B6E"/>
<path d="M56 48H88V44H56C55.4696 44 54.9609 44.2107 54.5858 44.5858C54.2107 44.9609 54 45.4696 54 46C54 46.5304 54.2107 47.0391 54.5858 47.4142C54.9609 47.7893 55.4696 48 56 48Z" fill="#253B6E"/>
<path d="M56 54C55.4696 54 54.9609 54.2107 54.5858 54.5858C54.2107 54.9609 54 55.4696 54 56C54 56.5304 54.2107 57.0391 54.5858 57.4142C54.9609 57.7893 55.4696 58 56 58H89.138C89.0382 57.0448 88.9574 56.0866 88.8955 55.1255C88.6796 54.7699 88.5015 54.3927 88.3641 54H56Z" fill="#253B6E"/>
<path d="M54 64C54 64.5304 54.2107 65.0391 54.5858 65.4142C54.9609 65.7893 55.4696 66 56 66H90C90.1504 65.9988 90.3002 65.9807 90.4465 65.9459C90.1546 64.644 89.9009 63.3288 89.6855 62H56C55.4696 62 54.9609 62.2107 54.5858 62.5858C54.2107 62.9609 54 63.4696 54 64Z" fill="#253B6E"/>
<path d="M92.8364 53.6208C93.011 57.721 93.5689 61.7958 94.5029 65.792L97.9707 80.46C98.0741 80.8985 98.3226 81.2891 98.6759 81.5686C99.0292 81.8482 99.4665 82.0002 99.917 82H100.083C100.533 82.0002 100.971 81.8482 101.324 81.5686C101.677 81.2891 101.926 80.8985 102.029 80.46L105.497 65.792C106.431 61.7958 106.989 57.721 107.164 53.6209C107.422 53.4367 107.633 53.1936 107.778 52.9117C107.924 52.6298 108 52.3172 108 52V6C107.998 4.40923 107.366 2.88412 106.241 1.75928C105.116 0.634435 103.591 0.00173639 102 0H98C96.4092 0.00173639 94.8841 0.634435 93.7593 1.75928C92.6344 2.88412 92.0017 4.40923 92 6V52C92.0004 52.3172 92.0764 52.6298 92.2219 52.9117C92.3674 53.1936 92.578 53.4367 92.8364 53.6208ZM101.604 64.8721L100 71.6582L98.3955 64.8721C97.5669 61.3007 97.0608 57.662 96.8834 54H103.117C102.939 57.662 102.433 61.3007 101.604 64.8721ZM96 6C96.0006 5.46975 96.2115 4.9614 96.5865 4.58646C96.9614 4.21151 97.4697 4.00061 98 4H102C102.53 4.00061 103.039 4.21151 103.414 4.58646C103.788 4.9614 103.999 5.46975 104 6V10H96V6ZM96 14H104V50H96V14Z" fill="#253B6E"/>
<path d="M86.4932 99.4106L99.8428 85.9937C98.504 85.982 97.208 85.5209 96.1626 84.6844C95.1172 83.8479 94.3831 82.6845 94.0781 81.3809L93.9881 81H88C86.6744 81.0016 85.4035 81.5288 84.4662 82.4662C83.5288 83.4035 83.0016 84.6744 83 86V96H43.4631C42.3828 97.513 41.0878 98.8605 39.6189 100H85.0752C85.3387 100 85.5996 99.9479 85.843 99.8468C86.0863 99.7456 86.3073 99.5974 86.4932 99.4106ZM87 86C87.0003 85.7349 87.1057 85.4807 87.2932 85.2932C87.4807 85.1057 87.7349 85.0003 88 85H95.1886L87 93.2302V86Z" fill="#253B6E"/>
<path d="M10 39H18C18.5304 39 19.0391 38.7893 19.4142 38.4142C19.7893 38.0391 20 37.5304 20 37C20 36.4696 19.7893 35.9609 19.4142 35.5858C19.0391 35.2107 18.5304 35 18 35H10C9.46957 35 8.96086 35.2107 8.58579 35.5858C8.21071 35.9609 8 36.4696 8 37C8 37.5304 8.21071 38.0391 8.58579 38.4142C8.96086 38.7893 9.46957 39 10 39Z" fill="#253B6E"/>
<path d="M10 47H14C14.5304 47 15.0391 46.7893 15.4142 46.4142C15.7893 46.0391 16 45.5304 16 45C16 44.4696 15.7893 43.9609 15.4142 43.5858C15.0391 43.2107 14.5304 43 14 43H10C9.46957 43 8.96086 43.2107 8.58579 43.5858C8.21071 43.9609 8 44.4696 8 45C8 45.5304 8.21071 46.0391 8.58579 46.4142C8.96086 46.7893 9.46957 47 10 47Z" fill="#253B6E"/>
<path d="M110 100H118C118.53 100 119.039 99.7893 119.414 99.4142C119.789 99.0391 120 98.5304 120 98C120 97.4696 119.789 96.9609 119.414 96.5858C119.039 96.2107 118.53 96 118 96H110C109.47 96 108.961 96.2107 108.586 96.5858C108.211 96.9609 108 97.4696 108 98C108 98.5304 108.211 99.0391 108.586 99.4142C108.961 99.7893 109.47 100 110 100Z" fill="#253B6E"/>
<path d="M118 92C118.53 92 119.039 91.7893 119.414 91.4142C119.789 91.0391 120 90.5304 120 90C120 89.4696 119.789 88.9609 119.414 88.5858C119.039 88.2107 118.53 88 118 88H114C113.47 88 112.961 88.2107 112.586 88.5858C112.211 88.9609 112 89.4696 112 90C112 90.5304 112.211 91.0391 112.586 91.4142C112.961 91.7893 113.47 92 114 92H118Z" fill="#253B6E"/>
<path d="M122 26H112V30H122C122.53 30.0006 123.039 30.2115 123.414 30.5865C123.788 30.9614 123.999 31.4698 124 32V102C123.999 102.53 123.788 103.039 123.414 103.414C123.039 103.788 122.53 103.999 122 104H6C5.46975 103.999 4.9614 103.788 4.58646 103.414C4.21151 103.039 4.00061 102.53 4 102V32C4.00061 31.4698 4.21151 30.9614 4.58646 30.5865C4.9614 30.2115 5.46975 30.0006 6 30H26V66.1075C27.3295 65.9642 28.6705 65.9642 30 66.1075V7.94238C30.0082 7.41994 30.2232 6.92208 30.598 6.55796C30.9727 6.19384 31.4765 5.99319 31.999 6H88C88 4.6228 88.2863 3.26064 88.8408 2H31.999C30.416 1.99433 28.8954 2.61678 27.7708 3.73079C26.6462 4.84481 26.0093 6.35943 26 7.94238V26H6C4.40923 26.0017 2.88412 26.6344 1.75928 27.7593C0.634435 28.8841 0.00173639 30.4092 0 32V102C0.00173639 103.591 0.634435 105.116 1.75928 106.241C2.88412 107.366 4.40923 107.998 6 108H62V112H44C43.4696 112 42.9609 112.211 42.5858 112.586C42.2107 112.961 42 113.47 42 114C42 114.53 42.2107 115.039 42.5858 115.414C42.9609 115.789 43.4696 116 44 116H84C84.5304 116 85.0391 115.789 85.4142 115.414C85.7893 115.039 86 114.53 86 114C86 113.47 85.7893 112.961 85.4142 112.586C85.0391 112.211 84.5304 112 84 112H66V108H122C123.591 107.998 125.116 107.366 126.241 106.241C127.366 105.116 127.998 103.591 128 102V32C127.998 30.4092 127.366 28.8841 126.241 27.7593C125.116 26.6344 123.591 26.0017 122 26Z" fill="#253B6E"/>
<path fill-rule="evenodd" clip-rule="evenodd" d="M28 100C30.9667 100 33.8668 99.1203 36.3336 97.472C38.8003 95.8238 40.7229 93.4811 41.8582 90.7402C42.9935 87.9994 43.2906 84.9834 42.7118 82.0736C42.133 79.1639 40.7044 76.4912 38.6066 74.3934C36.5088 72.2956 33.8361 70.867 30.9264 70.2882C28.0166 69.7094 25.0006 70.0065 22.2597 71.1418C19.5189 72.2771 17.1762 74.1997 15.528 76.6664C13.8797 79.1332 13 82.0333 13 85C13.0044 88.9769 14.5862 92.7896 17.3983 95.6017C20.2104 98.4138 24.0231 99.9956 28 100ZM34.1113 75.8538C32.3023 74.6451 30.1756 74 28 74C25.0836 74.0033 22.2877 75.1633 20.2255 77.2255C18.1633 79.2877 17.0033 82.0836 17 85C17 87.1756 17.6451 89.3023 18.8538 91.1113C20.0625 92.9202 21.7805 94.3301 23.7905 95.1627C25.8005 95.9952 28.0122 96.2131 30.146 95.7886C32.2798 95.3642 34.2398 94.3166 35.7782 92.7782C37.3166 91.2398 38.3642 89.2798 38.7886 87.146C39.2131 85.0122 38.9952 82.8005 38.1627 80.7905C37.3301 78.7805 35.9202 77.0625 34.1113 75.8538Z" fill="#1891AC"/>
<path d="M24.6611 89.3262C24.839 89.5269 25.0554 89.6898 25.2975 89.8052C25.5396 89.9207 25.8024 89.9862 26.0703 89.998C26.0996 89.9995 26.1289 90.0001 26.1582 90.0001C26.6696 89.9997 27.1615 89.8039 27.5332 89.4527L33.875 83.4527C34.0658 83.2721 34.2191 83.0557 34.3262 82.8159C34.4334 82.5761 34.4922 82.3175 34.4994 82.055C34.5066 81.7924 34.4621 81.531 34.3682 81.2856C34.2744 81.0403 34.1332 80.8158 33.9526 80.6251C33.7721 80.4343 33.5557 80.281 33.3159 80.1738C33.076 80.0667 32.8175 80.0078 32.5549 80.0006C32.2923 79.9934 32.0309 80.038 31.7856 80.1318C31.5402 80.2256 31.3158 80.3669 31.125 80.5474L26.2852 85.127L24.9971 83.6739C24.8232 83.4762 24.6121 83.3147 24.3757 83.1988C24.1393 83.0829 23.8824 83.0148 23.6196 82.9984C23.3569 82.982 23.0935 83.0177 22.8445 83.1033C22.5956 83.1889 22.366 83.3229 22.1689 83.4974C21.9719 83.672 21.8112 83.8838 21.6962 84.1206C21.5811 84.3574 21.514 84.6146 21.4985 84.8774C21.4831 85.1402 21.5197 85.4035 21.6063 85.6521C21.6928 85.9007 21.8276 86.1298 22.0029 86.3262L24.6611 89.3262Z" fill="#1891AC"/>
</svg>
