<svg width="211" height="198" viewBox="0 0 211 198" fill="none" xmlns="http://www.w3.org/2000/svg">
<path d="M34.2909 59.28C36.3176 59.6 38.1576 60.4267 39.8109 61.76C41.5176 63.0933 42.8509 64.7467 43.8109 66.72C44.8243 68.6933 45.3309 70.8 45.3309 73.04C45.3309 75.8667 44.6109 78.4267 43.1709 80.72C41.7309 82.96 39.6243 84.7467 36.8509 86.08C34.1309 87.36 30.9043 88 27.1709 88H6.37094V32.24H26.3709C30.1576 32.24 33.3843 32.88 36.0509 34.16C38.7176 35.3867 40.7176 37.0667 42.0509 39.2C43.3843 41.3333 44.0509 43.7333 44.0509 46.4C44.0509 49.7067 43.1443 52.4533 41.3309 54.64C39.5709 56.7733 37.2243 58.32 34.2909 59.28ZM13.6509 56.32H25.8909C29.3043 56.32 31.9443 55.52 33.8109 53.92C35.6776 52.32 36.6109 50.1067 36.6109 47.28C36.6109 44.4533 35.6776 42.24 33.8109 40.64C31.9443 39.04 29.2509 38.24 25.7309 38.24H13.6509V56.32ZM26.5309 82C30.1576 82 32.9843 81.1467 35.0109 79.44C37.0376 77.7333 38.0509 75.36 38.0509 72.32C38.0509 69.2267 36.9843 66.8 34.8509 65.04C32.7176 63.2267 29.8643 62.32 26.2909 62.32H13.6509V82H26.5309ZM74.5534 88.72C70.4468 88.72 66.7134 87.7867 63.3534 85.92C60.0468 84.0533 57.4334 81.4133 55.5134 78C53.6468 74.5333 52.7134 70.5333 52.7134 66C52.7134 61.52 53.6734 57.5733 55.5934 54.16C57.5668 50.6933 60.2334 48.0533 63.5934 46.24C66.9534 44.3733 70.7134 43.44 74.8734 43.44C79.0334 43.44 82.7934 44.3733 86.1534 46.24C89.5134 48.0533 92.1534 50.6667 94.0734 54.08C96.0468 57.4933 97.0334 61.4667 97.0334 66C97.0334 70.5333 96.0201 74.5333 93.9934 78C92.0201 81.4133 89.3268 84.0533 85.9134 85.92C82.5001 87.7867 78.7134 88.72 74.5534 88.72ZM74.5534 82.32C77.1668 82.32 79.6201 81.7067 81.9134 80.48C84.2068 79.2533 86.0468 77.4133 87.4334 74.96C88.8734 72.5067 89.5934 69.52 89.5934 66C89.5934 62.48 88.9001 59.4933 87.5134 57.04C86.1268 54.5867 84.3134 52.7733 82.0734 51.6C79.8334 50.3733 77.4068 49.76 74.7934 49.76C72.1268 49.76 69.6734 50.3733 67.4334 51.6C65.2468 52.7733 63.4868 54.5867 62.1534 57.04C60.8201 59.4933 60.1534 62.48 60.1534 66C60.1534 69.5733 60.7934 72.5867 62.0734 75.04C63.4068 77.4933 65.1668 79.3333 67.3534 80.56C69.5401 81.7333 71.9401 82.32 74.5534 82.32ZM125.725 88.72C121.619 88.72 117.885 87.7867 114.525 85.92C111.219 84.0533 108.605 81.4133 106.685 78C104.819 74.5333 103.885 70.5333 103.885 66C103.885 61.52 104.845 57.5733 106.765 54.16C108.739 50.6933 111.405 48.0533 114.765 46.24C118.125 44.3733 121.885 43.44 126.045 43.44C130.205 43.44 133.965 44.3733 137.325 46.24C140.685 48.0533 143.325 50.6667 145.245 54.08C147.219 57.4933 148.205 61.4667 148.205 66C148.205 70.5333 147.192 74.5333 145.165 78C143.192 81.4133 140.499 84.0533 137.085 85.92C133.672 87.7867 129.885 88.72 125.725 88.72ZM125.725 82.32C128.339 82.32 130.792 81.7067 133.085 80.48C135.379 79.2533 137.219 77.4133 138.605 74.96C140.045 72.5067 140.765 69.52 140.765 66C140.765 62.48 140.072 59.4933 138.685 57.04C137.299 54.5867 135.485 52.7733 133.245 51.6C131.005 50.3733 128.579 49.76 125.965 49.76C123.299 49.76 120.845 50.3733 118.605 51.6C116.419 52.7733 114.659 54.5867 113.325 57.04C111.992 59.4933 111.325 62.48 111.325 66C111.325 69.5733 111.965 72.5867 113.245 75.04C114.579 77.4933 116.339 79.3333 118.525 80.56C120.712 81.7333 123.112 82.32 125.725 82.32ZM182.257 88L165.057 68.64V88H157.777V28.8H165.057V63.6L181.937 44.16H192.097L171.457 66L192.177 88H182.257Z" fill="#D2ECF9"/>
<path d="M23.9494 166.56C20.2694 166.56 16.9627 165.92 14.0294 164.64C11.1494 163.307 8.88271 161.493 7.22938 159.2C5.57604 156.853 4.72271 154.16 4.66938 151.12H12.4294C12.696 153.733 13.7627 155.947 15.6294 157.76C17.5494 159.52 20.3227 160.4 23.9494 160.4C27.416 160.4 30.136 159.547 32.1094 157.84C34.136 156.08 35.1494 153.84 35.1494 151.12C35.1494 148.987 34.5627 147.253 33.3894 145.92C32.216 144.587 30.7494 143.573 28.9894 142.88C27.2294 142.187 24.856 141.44 21.8694 140.64C18.1894 139.68 15.2294 138.72 12.9894 137.76C10.8027 136.8 8.90938 135.307 7.30938 133.28C5.76271 131.2 4.98938 128.427 4.98938 124.96C4.98938 121.92 5.76271 119.227 7.30938 116.88C8.85604 114.533 11.016 112.72 13.7894 111.44C16.616 110.16 19.8427 109.52 23.4694 109.52C28.696 109.52 32.9627 110.827 36.2694 113.44C39.6294 116.053 41.5227 119.52 41.9494 123.84H33.9494C33.6827 121.707 32.5627 119.84 30.5894 118.24C28.616 116.587 26.0027 115.76 22.7494 115.76C19.7094 115.76 17.2294 116.56 15.3094 118.16C13.3894 119.707 12.4294 121.893 12.4294 124.72C12.4294 126.747 12.9894 128.4 14.1094 129.68C15.2827 130.96 16.696 131.947 18.3494 132.64C20.056 133.28 22.4294 134.027 25.4694 134.88C29.1494 135.893 32.1094 136.907 34.3494 137.92C36.5894 138.88 38.5094 140.4 40.1094 142.48C41.7094 144.507 42.5094 147.28 42.5094 150.8C42.5094 153.52 41.7894 156.08 40.3494 158.48C38.9094 160.88 36.776 162.827 33.9494 164.32C31.1227 165.813 27.7894 166.56 23.9494 166.56ZM72.3425 166.72C68.2358 166.72 64.5025 165.787 61.1425 163.92C57.8358 162.053 55.2225 159.413 53.3025 156C51.4358 152.533 50.5025 148.533 50.5025 144C50.5025 139.52 51.4625 135.573 53.3825 132.16C55.3558 128.693 58.0225 126.053 61.3825 124.24C64.7425 122.373 68.5025 121.44 72.6625 121.44C76.8225 121.44 80.5825 122.373 83.9425 124.24C87.3025 126.053 89.9425 128.667 91.8625 132.08C93.8358 135.493 94.8225 139.467 94.8225 144C94.8225 148.533 93.8092 152.533 91.7825 156C89.8092 159.413 87.1158 162.053 83.7025 163.92C80.2892 165.787 76.5025 166.72 72.3425 166.72ZM72.3425 160.32C74.9558 160.32 77.4092 159.707 79.7025 158.48C81.9958 157.253 83.8358 155.413 85.2225 152.96C86.6625 150.507 87.3825 147.52 87.3825 144C87.3825 140.48 86.6892 137.493 85.3025 135.04C83.9158 132.587 82.1025 130.773 79.8625 129.6C77.6225 128.373 75.1958 127.76 72.5825 127.76C69.9158 127.76 67.4625 128.373 65.2225 129.6C63.0358 130.773 61.2758 132.587 59.9425 135.04C58.6092 137.493 57.9425 140.48 57.9425 144C57.9425 147.573 58.5825 150.587 59.8625 153.04C61.1958 155.493 62.9558 157.333 65.1425 158.56C67.3292 159.733 69.7292 160.32 72.3425 160.32ZM143.274 122.16V166H135.994V159.52C134.608 161.76 132.661 163.52 130.154 164.8C127.701 166.027 124.981 166.64 121.994 166.64C118.581 166.64 115.514 165.947 112.794 164.56C110.074 163.12 107.914 160.987 106.314 158.16C104.768 155.333 103.994 151.893 103.994 147.84V122.16H111.194V146.88C111.194 151.2 112.288 154.533 114.474 156.88C116.661 159.173 119.648 160.32 123.434 160.32C127.328 160.32 130.394 159.12 132.634 156.72C134.874 154.32 135.994 150.827 135.994 146.24V122.16H143.274ZM162.846 106.8V166H155.566V106.8H162.846ZM190.774 166.72C187.414 166.72 184.4 166.16 181.734 165.04C179.067 163.867 176.96 162.267 175.414 160.24C173.867 158.16 173.014 155.787 172.854 153.12H180.374C180.587 155.307 181.6 157.093 183.414 158.48C185.28 159.867 187.707 160.56 190.694 160.56C193.467 160.56 195.654 159.947 197.254 158.72C198.854 157.493 199.654 155.947 199.654 154.08C199.654 152.16 198.8 150.747 197.094 149.84C195.387 148.88 192.747 147.947 189.174 147.04C185.92 146.187 183.254 145.333 181.174 144.48C179.147 143.573 177.387 142.267 175.894 140.56C174.454 138.8 173.734 136.507 173.734 133.68C173.734 131.44 174.4 129.387 175.734 127.52C177.067 125.653 178.96 124.187 181.414 123.12C183.867 122 186.667 121.44 189.814 121.44C194.667 121.44 198.587 122.667 201.574 125.12C204.56 127.573 206.16 130.933 206.374 135.2H199.094C198.934 132.907 198 131.067 196.294 129.68C194.64 128.293 192.4 127.6 189.574 127.6C186.96 127.6 184.88 128.16 183.334 129.28C181.787 130.4 181.014 131.867 181.014 133.68C181.014 135.12 181.467 136.32 182.374 137.28C183.334 138.187 184.507 138.933 185.894 139.52C187.334 140.053 189.307 140.667 191.814 141.36C194.96 142.213 197.52 143.067 199.494 143.92C201.467 144.72 203.147 145.947 204.534 147.6C205.974 149.253 206.72 151.413 206.774 154.08C206.774 156.48 206.107 158.64 204.774 160.56C203.44 162.48 201.547 164 199.094 165.12C196.694 166.187 193.92 166.72 190.774 166.72Z" fill="#D2ECF9"/>
<path d="M11.9187 31C13.6125 31 14.9812 31.8025 15 33.8425V45.2275C15 45.355 14.975 45.4825 14.925 45.595C14.8438 45.775 14.7063 45.91 14.5375 45.97C14.375 46.03 14.1938 46 14.0437 45.895L9.99375 43.465L5.9375 45.895C5.84438 45.9543 5.7375 45.9925 5.63125 45.9925C5.28125 45.9925 5 45.6475 5 45.2275V33.8425C5 31.8025 6.375 31 8.0625 31H11.9187ZM12.3438 35.53H7.6375C7.36875 35.53 7.15 35.7925 7.15 36.1225C7.15 36.4518 7.36875 36.715 7.6375 36.715H12.3438C12.6125 36.715 12.8312 36.4518 12.8312 36.1225C12.8312 35.7925 12.6125 35.53 12.3438 35.53Z" fill="#1891AC"/>
</svg>
