<svg width="626" height="501" viewBox="0 0 626 501" fill="none" xmlns="http://www.w3.org/2000/svg">
<path d="M24.5722 393L214.072 447L199.572 338.5L453.072 304.5V291.5L178.072 320L29.0722 294.5C-5.53836 296.491 -11.9284 372 24.5722 393Z" fill="url(#paint0_linear_1650_1019)"/>
<path d="M489.384 302.011C490.358 301.488 489.89 300.004 488.792 300.136L220.068 332.529C207.285 334.07 195.885 341.912 191.157 353.888C175.156 394.414 182.186 414.791 201.206 433.352C208.957 440.917 220.174 443.443 230.846 441.594L430.468 407.017C463.83 401.238 484.098 366.975 473.097 334.953L466.07 314.5L489.384 302.011Z" fill="#D9D9D9" stroke="#1A80A1" stroke-width="12"/>
<path d="M159.072 424C152.666 390.889 151.937 372.812 159.072 342L116.572 335C108.756 362.484 106.614 378.636 116.572 412L159.072 424Z" fill="#D9D9D9"/>
<path d="M273 379L212 388" stroke="#C0C0C0" stroke-width="5" stroke-linecap="round"/>
<path d="M246.882 495.289C244.948 446.584 241.93 435.061 215.878 390.955C214.789 389.11 215.914 386.736 218.035 386.435L265.155 379.756C266.938 379.503 268.742 380.243 269.805 381.697C297.256 419.215 282.77 446.624 304.579 482.898C305.072 483.719 304.265 484.744 303.365 484.414L276.199 474.446C274.821 473.94 273.277 474.23 272.176 475.2L248.545 496.03C247.913 496.587 246.916 496.131 246.882 495.289Z" fill="url(#paint1_linear_1650_1019)"/>
<path d="M412.571 300L303.071 259L124.071 206L32.5789 282.537C27.4797 286.803 29.5065 295.066 36.0009 296.488L170.824 326.008C172.312 326.334 173.844 326.415 175.358 326.247L412.571 300Z" fill="#31305B"/>
<path d="M24.0713 271.764V10C24.0713 4.47715 28.5484 0 34.0713 0H120.305C125.736 0 130.174 4.33419 130.302 9.76328L136.346 264.965C136.472 270.302 132.383 274.798 127.058 275.177L34.7806 281.738C28.9931 282.15 24.0713 277.566 24.0713 271.764Z" fill="#31305B"/>
<path d="M360.952 10.1174C361.018 4.54904 356.522 0 350.953 0H49.5713C51.9627 3.89258 52.8655 6.92177 55.4939 15.7404L55.5713 16L358.071 255.5L360.952 10.1174Z" fill="#31305B"/>
<path d="M34.5713 0C31.8099 0 29.5713 2.23857 29.5713 5V273.162C29.5713 276.498 31.2349 279.614 34.0068 281.47L35.544 282.5L358.071 255.5L55.5713 16L55.4939 15.7404C52.8655 6.92177 51.9627 3.89258 49.5713 0H34.5713Z" fill="#616499"/>
<path d="M453.571 285L358.071 255.5L35.544 282.5C35.544 283.526 36.2622 284.411 37.2657 284.623L169.181 312.441C174.078 313.474 179.106 313.735 184.083 313.214L453.571 285Z" fill="#41437C"/>
<path fill-rule="evenodd" clip-rule="evenodd" d="M55.5713 15.9365C60.1959 25.4675 74.2971 28.9064 90.2909 32.807C103.14 35.9406 117.211 39.3722 128.571 46.5C142.488 55.2318 144.044 68.8779 145.512 81.7493C146.734 92.4632 147.895 102.64 156.071 109C164.631 115.658 171.765 118.272 178.324 120.675C185.557 123.326 192.091 125.72 199.071 133C205.289 139.484 207.268 146.83 209.21 154.039C211.345 161.967 213.436 169.73 221.071 176C229.919 183.266 239.993 182.192 250.033 181.123C260.18 180.041 270.293 178.964 279.071 186.5C285.105 191.68 287.156 197.799 289.23 203.987C291.192 209.841 293.175 215.758 298.571 221C313.903 235.893 349.571 240.866 349.571 240.866L51.1466 262.382C46.5138 262.716 42.5713 259.047 42.5713 254.402V26.9464C42.5713 20.8922 47.4635 15.9761 53.5175 15.9465L55.5713 15.9365Z" fill="url(#paint2_linear_1650_1019)"/>
<path d="M298.571 221C313.903 235.893 349.571 240.866 349.571 240.866V22.5392C349.571 18.1056 345.966 14.5176 341.532 14.5393L55.5713 15.9365C60.1959 25.4675 74.2971 28.9064 90.2909 32.807C103.14 35.9406 117.211 39.3722 128.571 46.5C142.488 55.2318 144.044 68.8779 145.512 81.7493C146.734 92.4632 147.895 102.64 156.071 109C164.631 115.658 171.765 118.272 178.324 120.675C185.557 123.326 192.091 125.72 199.071 133C205.289 139.484 207.268 146.83 209.21 154.039C211.345 161.967 213.436 169.73 221.071 176C229.919 183.266 239.993 182.192 250.033 181.123C260.18 180.041 270.293 178.964 279.071 186.5C285.105 191.68 287.156 197.799 289.23 203.987C291.192 209.841 293.175 215.758 298.571 221Z" fill="url(#paint3_linear_1650_1019)"/>
<path d="M158.571 136C158.571 147.046 149.617 156 138.571 156C127.526 156 118.571 147.046 118.571 136C118.571 124.954 127.526 116 138.571 116C149.617 116 158.571 124.954 158.571 136Z" fill="#D9D9D9"/>
<path d="M220.571 133C220.571 144.046 211.617 153 200.571 153C189.526 153 180.571 144.046 180.571 133C180.571 121.954 189.526 113 200.571 113C211.617 113 220.571 121.954 220.571 133Z" fill="#D9D9D9"/>
<path d="M284.571 132C284.571 143.046 275.617 152 264.571 152C253.526 152 244.571 143.046 244.571 132C244.571 120.954 253.526 112 264.571 112C275.617 112 284.571 120.954 284.571 132Z" fill="#D9D9D9"/>
<path d="M159.571 297.5L79.0713 282.5L357.071 258L383.571 275.5L159.571 297.5Z" fill="#323465"/>
<path fill-rule="evenodd" clip-rule="evenodd" d="M369.572 318C359.565 360.11 371.354 404.302 393.591 433.5C393.591 433.5 396.292 421.09 401.572 415.5C416.16 400.053 434.407 392.645 450.655 386.048C472.275 377.271 490.356 369.93 491.572 347C492.518 329.162 475.072 318.617 475.072 318.617L369.572 318Z" fill="#D2ECF9"/>
<path d="M451.475 466.92C504.572 466.92 548.572 392 540.572 319L475.072 318.617C475.072 318.617 492.518 329.162 491.572 347C490.356 369.93 472.275 377.271 450.655 386.048C434.407 392.645 416.16 400.053 401.572 415.5C396.292 421.09 393.591 433.5 393.591 433.5C409.09 453.852 429.666 466.92 451.475 466.92Z" fill="#A3D5E6"/>
<ellipse cx="455.072" cy="318.5" rx="85.5" ry="14.5" fill="#224D6A"/>
<ellipse cx="448.072" cy="177.351" rx="148.5" ry="126.351" fill="#D2ECF9"/>
<path d="M310.865 196.346L311.694 159.001C311.903 149.612 319.684 142.171 329.073 142.383L492.761 146.065C503.374 146.304 511.733 155.194 511.319 165.802L509.666 208.168C508.798 230.404 489.531 247.408 467.359 245.504L345.605 235.051C325.626 233.335 310.419 216.392 310.865 196.346Z" fill="white"/>
<path d="M320.069 184.79L321.616 164.836C322.152 157.926 328.013 152.652 334.94 152.845L488.935 157.147C495.971 157.344 501.572 163.104 501.572 170.142V199.533C501.572 215.744 487.848 228.568 471.675 227.469L349.805 219.19C332.053 217.984 318.694 202.529 320.069 184.79Z" fill="url(#paint4_linear_1650_1019)"/>
<path d="M370.572 195.712C370.572 202.18 362.58 196.5 354.572 196.5C346.564 196.5 341.572 202.18 341.572 195.712C341.572 189.243 348.064 184 356.072 184C364.08 184 370.572 189.243 370.572 195.712Z" fill="#D9D9D9"/>
<path d="M448.572 200.923C448.572 208.06 440.408 200.923 431.572 200.923C422.735 200.923 416.572 208.06 416.572 200.923C416.572 193.786 423.736 188 432.572 188C441.409 188 448.572 193.786 448.572 200.923Z" fill="#D9D9D9"/>
<path d="M509.072 62.5C530.571 71.5 536.364 74.3869 552.072 87.5C567.78 100.613 578.316 114.857 584.572 128C590.827 141.143 594.999 153.995 596 169C597.768 195.5 593.184 201.4 590 213.5C587.5 223 577.572 242.5 565.571 254.5C552.572 268.5 541.422 276 531.406 282C518.919 289.48 501.572 296.5 479.072 301C460.572 305 430.072 304 414.572 300.5C396.038 267.918 455.43 225.5 494.531 202C533.631 178.5 526.758 129.376 509.072 62.5Z" fill="#1891AC" fill-opacity="0.25"/>
<path d="M539.805 27.5708L502.937 51.9022L535.758 54.3689C551.979 55.5881 567.321 46.8556 574.555 32.286C577.476 26.404 573.126 19.5187 566.559 19.6304L565.395 19.6502C556.286 19.805 547.409 22.5525 539.805 27.5708Z" fill="#D2ECF9"/>
<defs>
<linearGradient id="paint0_linear_1650_1019" x1="109.572" y1="342.5" x2="96.5715" y2="414.5" gradientUnits="userSpaceOnUse">
<stop stop-color="#1A80A1"/>
<stop offset="1" stop-color="#125064"/>
</linearGradient>
<linearGradient id="paint1_linear_1650_1019" x1="259.618" y1="424.498" x2="256.703" y2="497.922" gradientUnits="userSpaceOnUse">
<stop stop-color="#1E618C"/>
<stop offset="1" stop-color="#59A1CE"/>
</linearGradient>
<linearGradient id="paint2_linear_1650_1019" x1="10.0713" y1="291" x2="237.571" y2="80.5" gradientUnits="userSpaceOnUse">
<stop stop-color="#FF6582"/>
<stop offset="0.999545" stop-color="#E599B0"/>
</linearGradient>
<linearGradient id="paint3_linear_1650_1019" x1="242.071" y1="117.5" x2="349.571" y2="14" gradientUnits="userSpaceOnUse">
<stop stop-color="#FF6582"/>
<stop offset="1" stop-color="#FF9085"/>
</linearGradient>
<linearGradient id="paint4_linear_1650_1019" x1="501.572" y1="191" x2="317.572" y2="181.5" gradientUnits="userSpaceOnUse">
<stop stop-color="#1891AC"/>
<stop offset="1" stop-color="#1F5F8B"/>
</linearGradient>
</defs>
</svg>
