<svg width="526" height="517" viewBox="0 0 526 517" fill="none" xmlns="http://www.w3.org/2000/svg">
<path d="M525.667 516.304H441.99H396.932H391.598H386.513H375.88H355.726V509.377C355.726 505.44 357.525 501.663 360.727 498.879C363.928 496.095 368.271 494.531 372.799 494.531H508.594C513.122 494.531 517.465 496.095 520.666 498.879C523.868 501.663 525.667 505.44 525.667 509.377V516.304Z" fill="#2F2F2F"/>
<path d="M436.719 495.436L441.887 493.626C387.814 376.904 393.023 229.651 438.733 103.334C444.163 88.6983 444.554 73.0016 439.859 58.1749C435.165 43.3483 425.588 30.0384 412.309 19.8829C385.777 -0.706461 349.2 -5.7222 316.845 6.7917C284.908 19.1459 280.506 40.6651 280.506 62.0796H286.078C286.078 39.2207 291.696 21.8235 319.11 11.2189C349.434 -0.508904 383.723 4.19513 408.598 23.4986C421.072 33.0368 430.066 45.5378 434.476 59.4636C438.886 73.3895 438.518 88.1325 433.418 101.879C387.18 229.655 382.277 377.919 436.719 495.436Z" fill="#2F2F2F"/>
<path d="M284.685 133.549C295.456 133.549 304.187 125.956 304.187 116.59C304.187 107.224 295.456 99.6313 284.685 99.6313C273.915 99.6313 265.184 107.224 265.184 116.59C265.184 125.956 273.915 133.549 284.685 133.549Z" fill="#C7A565"/>
<path d="M254.651 146.154V114.021H260.397V146.154C262.045 146.734 263.41 147.794 264.258 149.153C265.105 150.512 265.383 152.085 265.044 153.603C264.704 155.12 263.768 156.488 262.396 157.471C261.024 158.454 259.302 158.992 257.524 158.992C255.746 158.992 254.024 158.454 252.652 157.471C251.28 156.488 250.344 155.12 250.005 153.603C249.665 152.085 249.943 150.512 250.791 149.153C251.638 147.794 253.003 146.734 254.651 146.154Z" fill="#1891AC"/>
<path d="M226.878 89.3347C226.887 81.9481 230.266 74.8664 236.272 69.6432C242.278 64.4201 250.422 61.4821 258.916 61.4737H311.848C320.345 61.4737 328.494 64.409 334.502 69.634C340.51 74.8589 343.886 81.9455 343.886 89.3347C343.886 96.7239 340.51 103.81 334.502 109.035C328.494 114.26 320.345 117.196 311.848 117.196H258.916C250.422 117.187 242.278 114.249 236.272 109.026C230.266 103.803 226.887 96.7213 226.878 89.3347Z" fill="#1F5F8B"/>
<path d="M152.298 261.868C157.613 202.739 184.786 174.567 167.386 156.9C150.72 139.977 103.774 143.473 73.6244 159.711C20.2019 188.485 -10.9829 273.694 3.57653 352.952C5.30912 362.384 7.68949 371.731 10.7573 380.89C12.2089 385.223 13.8143 389.514 15.5779 393.751C19.3448 402.802 23.8329 411.609 29.0832 420.062C38.9771 435.993 51.5775 450.67 67.158 463.369C74.5194 469.369 82.3687 474.782 90.6102 479.636C109.468 490.743 130.379 498.921 152.199 504.494C249.662 529.387 365.254 502.311 396.942 452.122C406.714 436.644 414.477 409.511 400.175 393.078C364.666 352.28 235.564 426.176 178.164 379.957C144.146 352.566 149.382 294.318 152.298 261.868Z" fill="#3F3D56"/>
<path d="M214.461 232.492C212.485 233.282 210.943 234.711 210.161 236.475C209.379 238.24 209.419 240.199 210.274 241.938C210.454 242.289 210.667 242.626 210.911 242.947L193.456 263.214L202.166 274.534L222.625 244.523C224.074 243.54 225.109 242.167 225.567 240.619C226.025 239.071 225.881 237.435 225.157 235.965C224.736 235.133 224.131 234.38 223.375 233.751C222.62 233.122 221.729 232.628 220.754 232.298C219.78 231.969 218.74 231.809 217.694 231.829C216.648 231.848 215.617 232.047 214.66 232.413C214.593 232.439 214.526 232.465 214.461 232.492Z" fill="#FFB6B6"/>
<path d="M214.446 267.436C215.589 268.317 212.42 269.404 209.069 267.689C208.109 267.192 207.7 266.986 207.592 267.117C207.323 267.445 208.896 269.863 208.476 275.233C208.217 278.439 202.096 284.465 195.144 290.341C185.747 298.289 174.819 305.955 174.819 305.955L130.75 275.233L123.961 267.061C124.582 263.834 125.516 260.658 126.752 257.567C128.454 253.289 130.478 249.112 132.809 245.064C134.059 242.862 135.341 240.763 136.57 238.832L176.187 276.789C176.187 276.789 181.447 269.423 185.52 267.417C186.04 267.128 186.631 266.952 187.245 266.902C191.362 266.733 191.61 264.783 186.835 260.538C182.061 256.292 188.085 260.257 192.332 259.113C196.578 257.97 192.332 259.113 193.226 256.255C194.121 253.396 206.029 247.661 206.029 247.661L206.525 248.045L218.1 256.93C218.1 256.93 215.287 263.64 214.511 265.055C213.735 266.47 213.315 266.545 214.446 267.436Z" fill="#1891AC"/>
<path d="M451.672 397.63L452.111 387.292L406.467 380.901L405.82 396.158L451.672 397.63Z" fill="#FFB6B6"/>
<path d="M443.387 400.742L442.954 384.19L451.091 384.451L464.227 369.149C464.876 368.393 465.785 367.838 466.823 367.563C467.86 367.289 468.972 367.31 469.994 367.624C471.017 367.937 471.898 368.527 472.508 369.307C473.118 370.087 473.425 371.016 473.385 371.958L472.551 391.621L464.359 394.751L472.351 396.333L472.037 403.746L443.387 400.742Z" fill="#2F2E41"/>
<path d="M194.786 401.654L339.356 404.842C339.356 404.842 401.785 407.978 416.433 399.691L431.879 397.996L432.717 378.265C432.717 378.265 423.271 378.325 417.841 376.125C412.41 373.925 416.184 371.232 411.006 373.88C405.829 376.527 406.376 376.845 402.372 375.629C398.369 374.412 214.795 350.079 214.795 350.079L194.786 401.654Z" fill="#2F2E41"/>
<path d="M385.29 393.092L393.697 385.774L365.234 354.092L352.827 364.895L385.29 393.092Z" fill="#FFB6B6"/>
<path d="M376.782 386.725L389.41 374.335L395.171 379.339L416.768 375.891C417.835 375.72 418.937 375.851 419.912 376.263C420.887 376.676 421.685 377.348 422.19 378.183C422.694 379.018 422.879 379.972 422.716 380.904C422.553 381.836 422.052 382.699 421.286 383.367L405.296 397.288L396.842 394.737L401.464 400.624L395.436 405.873L376.782 386.725Z" fill="#2F2E41"/>
<path d="M137.75 332.801L139.187 361.855C140.879 396.057 184.192 416.757 217.778 398.9C218.397 398.571 219.018 398.23 219.641 397.877C219.641 397.877 232.374 394.903 231.987 390.194C231.601 385.485 234.711 383.193 237.464 384.478C240.217 385.762 276.258 341.281 276.258 341.281C276.258 341.281 351.14 373.764 367.659 381.41C367.659 381.41 383.191 360.292 382.065 360.513C380.939 360.735 289.427 305.035 289.427 305.035C289.427 305.035 274.518 291.914 256.025 300.577C255.64 301.85 255.969 301.894 255.969 301.894L194.879 345.183L186.247 330.927L137.75 332.801Z" fill="#2F2E41"/>
<path d="M195.349 296.48C195.233 297.822 195.013 299.156 194.692 300.473C194.252 302.378 193.542 304.229 192.579 305.983C192.579 305.983 192.579 307.942 188.269 314.503C183.958 321.063 189.346 318.252 192.579 323.125C195.813 327.989 192.579 325.749 188.991 328.88C187.957 329.791 187.224 330.926 186.865 332.167C186.507 333.408 186.538 334.71 186.954 335.937C186.954 335.937 140.655 335.965 132.033 333.153C123.411 330.342 121.45 314.503 129.177 312.938C136.893 311.372 126.838 309.817 122.301 306.208C117.764 302.6 126.838 296.696 126.838 296.696C126.838 296.696 123.098 291.082 123.411 272.234C123.455 270.501 123.639 268.772 123.961 267.061C124.582 263.834 125.516 260.658 126.752 257.567C128.454 253.289 130.478 249.112 132.809 245.064C134.059 242.862 135.341 240.763 136.57 238.832C136.764 238.532 136.947 238.242 137.141 237.951C139.48 234.352 141.614 231.409 143.026 229.525C144.114 228.063 144.771 227.239 144.771 227.239L152.617 215.373L178.806 226.048L177.319 243.509L185.52 267.417L187.999 274.662C187.999 274.662 187.32 274.69 188.128 275.655C191.851 279.959 194.264 285.01 195.144 290.341C195.455 292.376 195.523 294.433 195.349 296.48Z" fill="#1891AC"/>
<path d="M270.979 298.362L270.488 298.224L207.806 280.671L230.904 214.773C231.364 213.461 232.16 212.257 233.233 211.251C234.306 210.246 235.628 209.465 237.098 208.968C238.568 208.471 240.149 208.271 241.721 208.382C243.294 208.494 244.816 208.915 246.175 209.612L286.231 230.193C289.401 231.82 291.814 234.365 293.046 237.382C294.279 240.399 294.253 243.696 292.973 246.698L270.979 298.362Z" fill="#2F2E41"/>
<path d="M271.234 302.551L208.048 284.857L231.145 218.959C231.605 217.647 232.402 216.443 233.475 215.437C234.548 214.432 235.869 213.651 237.34 213.154C238.81 212.657 240.391 212.457 241.963 212.569C243.536 212.68 245.058 213.101 246.416 213.799L288.385 232.02C294.69 235.259 294.542 243.641 291.615 250.519L271.234 302.551Z" fill="#1891AC"/>
<path d="M264.908 307.321C263.453 308.034 261.843 308.477 260.18 308.621C258.518 308.765 256.839 308.606 255.251 308.156L214.864 296.846C211.766 295.965 209.186 294.066 207.675 291.554C206.165 289.042 205.844 286.115 206.782 283.4L227.03 225.633C227.434 224.479 228.1 223.407 228.987 222.479C229.875 221.552 230.966 220.788 232.197 220.232C233.429 219.676 234.775 219.34 236.158 219.242C237.541 219.145 238.933 219.289 240.251 219.665L282.104 231.616C284.098 232.185 285.941 233.096 287.523 234.295C289.106 235.494 290.396 236.957 291.318 238.597C292.239 240.237 292.774 242.021 292.889 243.843C293.005 245.666 292.699 247.49 291.99 249.208L270.341 301.696C269.369 304.079 267.439 306.076 264.908 307.321Z" fill="#3F3D56"/>
<path d="M177.326 215.576C193.302 215.576 206.253 204.313 206.253 190.42C206.253 176.527 193.302 165.265 177.326 165.265C161.35 165.265 148.398 176.527 148.398 190.42C148.398 204.313 161.35 215.576 177.326 215.576Z" fill="#FFB6B6"/>
<path d="M79.5076 215.955C82.1621 220.43 86.5148 223.968 91.8274 225.97C93.9474 226.81 96.1766 227.424 98.4662 227.798C99.1135 225.566 100.15 223.433 101.539 221.473C101.076 223.682 101.076 225.945 101.539 228.154C105.027 228.402 108.537 228.023 111.849 227.041C115.103 226.078 118.053 224.47 120.468 222.343C122.882 220.217 124.692 217.63 125.757 214.788C128.061 208.12 125.579 200.998 125.383 194.038C125.182 187.077 128.983 178.752 136.929 177.891C142.98 177.234 142.232 177.744 146.58 181.461C140.498 187.337 155.326 213.36 163.282 212.21C167.78 211.56 171.09 208.455 171.98 208.562C176.536 218.265 162.832 232.025 173.701 236.542L172.895 235.614C167.205 227.441 184.04 213.636 178.35 205.463C176.764 203.176 175.115 200.496 176.096 197.966C177.028 195.561 181.745 194.8 182.74 196.989C181.122 191.972 185.638 186.084 191.636 185.572C196.965 185.115 196.657 186.436 201.738 187.641C202.387 185.737 203.323 183.917 204.52 182.227C204.115 184.155 204.065 186.127 204.372 188.069C206.205 188.259 208.058 187.918 209.645 187.099C214.337 184.653 214.477 178.339 211.253 174.496C208.024 170.653 202.616 168.755 197.398 167.319C197.35 157.723 167.658 153.13 162.198 162.051C161.636 154.827 152.114 149.961 143.911 151.188C135.708 152.416 129.237 158.135 125.292 164.511C121.347 170.881 119.389 178.014 116.501 184.799C113.613 191.585 109.485 198.351 102.57 202.377C95.6563 206.397 85.3812 206.763 79.6083 201.551C78.2916 203.776 77.5964 206.24 77.5789 208.743C77.5614 211.245 78.2222 213.716 79.5076 215.955Z" fill="#2F2E41"/>
<path d="M109.189 330.99C109.788 330.574 110.437 330.217 111.125 329.924C122.198 325.132 156.629 312.693 183.552 313.203C235.354 314.185 301.279 363.902 285.936 397.288C274.261 422.692 216.221 437.145 173.853 425.586C114.499 409.391 91.0708 343.553 109.189 330.99Z" fill="#3F3D56"/>
<path d="M76.8274 398.244C77.2219 399.243 77.9703 400.107 78.9651 400.713C79.9599 401.319 81.1499 401.635 82.3642 401.616L106.087 401.085C107.31 401.065 108.493 400.7 109.458 400.047C110.424 399.393 111.12 398.485 111.443 397.459L114.8 366.242C115.991 366.711 117.288 366.943 118.595 366.92C120.889 366.87 123.066 366.029 124.647 364.583C126.228 363.137 127.084 361.205 127.027 359.21C126.969 357.215 126.003 355.322 124.34 353.947C122.677 352.572 120.455 351.827 118.161 351.877C117.638 351.876 117.117 351.923 116.606 352.018C116.05 351.495 115.375 351.079 114.623 350.797C113.871 350.515 113.06 350.373 112.241 350.38L75.75 351.2C75.4473 351.209 75.1462 351.242 74.8499 351.297C74.0497 351.427 73.2907 351.704 72.624 352.11C71.9573 352.516 71.3984 353.042 70.9849 353.652C70.5715 354.262 70.313 354.941 70.227 355.645C70.1409 356.349 70.2293 357.061 70.4861 357.733L76.8274 398.244ZM115.488 364.122L117.877 356.683C118.149 355.824 118.155 354.917 117.895 354.055C118.011 354.055 118.114 354.007 118.23 354.007C119.867 353.978 121.451 354.514 122.635 355.499C123.818 356.484 124.504 357.837 124.543 359.261C124.581 360.685 123.968 362.065 122.839 363.097C121.71 364.129 120.157 364.729 118.519 364.767C117.46 364.796 116.413 364.573 115.488 364.122Z" fill="#3F3D56"/>
<path d="M74.8499 351.297C75.6273 355.163 84.3681 357.88 94.8781 357.408C104.543 357.021 112.445 354.069 113.893 350.572C113.357 350.434 112.8 350.369 112.241 350.38L75.75 351.2C75.4473 351.209 75.1462 351.242 74.8499 351.297Z" fill="#3F3D56"/>
<path d="M249.297 268.55C247.124 268.619 245.068 269.423 243.566 270.79C242.065 272.157 241.235 273.979 241.255 275.87C241.266 276.254 241.314 276.637 241.398 277.014L216.324 289.887L219.359 303.25L251.514 282.386C253.287 281.963 254.849 281.042 255.956 279.766C257.064 278.49 257.654 276.931 257.636 275.333C257.615 274.423 257.389 273.526 256.97 272.693C256.55 271.86 255.947 271.106 255.192 270.476C254.438 269.845 253.549 269.35 252.575 269.019C251.601 268.687 250.561 268.526 249.515 268.544C249.443 268.545 249.37 268.547 249.297 268.55Z" fill="#FFB6B6"/>
<path d="M228.757 299.239C228.086 298.458 227.798 298.13 227.646 298.22C227.253 298.426 227.631 301.187 224.869 305.999C220.982 312.758 180.221 323.111 180.221 323.111L153.128 280.01L145.519 251.866C145.253 250.885 145.124 249.88 145.134 248.871C151.918 244.72 159.122 241.114 166.658 238.097C169.669 239.583 171.964 241.961 173.124 244.797L194.383 296.641C194.383 296.641 205.079 289.99 208.959 291.211C212.832 292.439 213.933 290.717 211.401 285.203C208.869 279.688 212.67 285.364 217.092 285.725C221.524 286.091 217.092 285.725 219.185 283.385C221.279 281.045 234.812 279.729 234.812 279.729L235.099 280.251L240.344 289.633L241.845 292.328C241.845 292.328 236.285 297.574 234.944 298.619C233.596 299.673 233.18 299.6 233.84 300.799C234.491 301.994 231.087 301.939 228.757 299.239Z" fill="#1891AC"/>
<path fill-rule="evenodd" clip-rule="evenodd" d="M10.7573 380.89C7.68949 371.731 5.30912 362.384 3.57653 352.952H12.2823C15.8004 352.952 19.1743 354.167 21.662 356.331C24.1496 358.494 25.5472 361.428 25.5472 364.488C27.0424 369.699 26.747 374.936 24.6933 380.195C90.0421 378.045 135.315 392.14 143.351 396.507C153.985 402.287 172.262 485.66 152.199 504.494C130.379 498.921 109.468 490.743 90.6102 479.636C90.7323 479.266 90.8551 478.895 90.9782 478.523C94.9971 466.373 99.3577 453.191 91.9375 442.538C83.6333 430.616 58.2451 422.508 29.0832 420.062C23.8329 411.609 19.3448 402.802 15.5779 393.751C13.8143 389.514 12.2089 385.223 10.7573 380.89Z" fill="#3F3D56"/>
<g clip-path="url(#clip0_1641_312)">
<path d="M281.617 230.174C283.242 230.652 284.316 231.849 283.726 233.916L280.334 245.423C280.296 245.551 280.234 245.673 280.153 245.773C280.021 245.932 279.849 246.029 279.669 246.042C279.496 246.057 279.331 245.976 279.218 245.827L276.057 242.229L271.442 243.54C271.335 243.573 271.221 243.582 271.119 243.552C270.783 243.453 270.616 243.025 270.742 242.601L274.134 231.094C274.741 229.033 276.299 228.609 277.918 229.086L281.617 230.174ZM280.675 234.872L276.161 233.544C275.903 233.468 275.615 233.672 275.517 234.005C275.419 234.338 275.55 234.666 275.808 234.742L280.322 236.07C280.58 236.146 280.868 235.941 280.967 235.608C281.065 235.275 280.933 234.948 280.675 234.872Z" fill="#1891AC"/>
</g>
<path d="M443.146 496L440.646 491L436.267 494.5L436.646 495.5L443.146 496Z" fill="#2F2F2F"/>
<defs>
<clipPath id="clip0_1641_312">
<rect width="14.9987" height="18.966" fill="white" transform="matrix(0.959354 0.282206 -0.282762 0.95919 273.029 226)"/>
</clipPath>
</defs>
</svg>
