<svg width="526" height="517" viewBox="0 0 526 517" fill="none" xmlns="http://www.w3.org/2000/svg">
<path d="M285.019 133.549C295.789 133.549 304.52 125.956 304.52 116.59C304.52 107.224 295.789 99.6313 285.019 99.6313C274.248 99.6313 265.517 107.224 265.517 116.59C265.517 125.956 274.248 133.549 285.019 133.549Z" fill="#C7A565"/>
<path d="M254.985 146.154V130.088V114.021H260.73V146.154C262.378 146.734 263.743 147.794 264.591 149.153C265.439 150.512 265.717 152.085 265.377 153.603C265.038 155.12 264.102 156.488 262.73 157.471C261.358 158.454 259.635 158.992 257.857 158.992C256.08 158.992 254.357 158.454 252.985 157.471C251.613 156.488 250.677 155.12 250.338 153.603C249.998 152.085 250.276 150.512 251.124 149.153C251.972 147.794 253.337 146.734 254.985 146.154Z" fill="#1891AC"/>
<path d="M227.211 89.3347C227.221 81.9481 230.599 74.8664 236.605 69.6432C242.611 64.4201 250.755 61.4821 259.249 61.4737H280.841H286.413H312.181C320.678 61.4737 328.827 64.409 334.835 69.634C340.844 74.8589 344.219 81.9455 344.219 89.3347C344.219 96.7239 340.844 103.81 334.835 109.035C328.827 114.26 320.678 117.196 312.181 117.196H259.249C250.755 117.187 242.611 114.249 236.605 109.026C230.599 103.803 227.221 96.7213 227.211 89.3347Z" fill="#1F5F8B"/>
<path d="M152.632 261.868C157.946 202.739 185.119 174.567 167.72 156.9C151.053 139.977 104.107 143.472 73.9576 159.711C-7.36282 203.511 -37.1555 378.079 67.4913 463.369C166.932 544.416 355.393 518.458 397.275 452.122C407.047 436.644 414.811 409.511 400.508 393.078C364.999 352.28 235.897 426.176 178.497 379.957C144.48 352.566 149.715 294.318 152.632 261.868Z" fill="#3F3D56"/>
<path d="M214.794 232.492C212.819 233.282 211.276 234.711 210.494 236.475C209.712 238.24 209.753 240.199 210.607 241.938C210.787 242.289 211 242.626 211.244 242.947L193.79 263.214L202.499 274.534L222.958 244.523C224.408 243.54 225.442 242.167 225.9 240.619C226.358 239.071 226.214 237.435 225.491 235.965C225.07 235.133 224.464 234.38 223.708 233.751C222.953 233.122 222.062 232.628 221.088 232.298C220.113 231.969 219.073 231.809 218.027 231.829C216.981 231.848 215.95 232.047 214.993 232.413C214.926 232.439 214.86 232.465 214.794 232.492Z" fill="#FFB6B6"/>
<path d="M214.78 267.436C215.922 268.317 212.754 269.404 209.402 267.689C208.443 267.192 208.033 266.986 207.925 267.117C207.656 267.445 209.229 269.863 208.809 275.233C208.55 278.439 202.429 284.465 195.478 290.341C186.08 298.289 175.152 305.955 175.152 305.955L131.084 275.233L124.294 267.061C124.916 263.834 125.849 260.658 127.085 257.567C128.788 253.289 130.811 249.112 133.142 245.064C134.392 242.862 135.675 240.763 136.903 238.832L176.521 276.789C176.521 276.789 181.78 269.423 185.854 267.417C186.373 267.128 186.964 266.952 187.578 266.902C191.695 266.733 191.943 264.783 187.168 260.538C182.394 256.292 188.419 260.257 192.665 259.113C196.911 257.97 192.665 259.113 193.559 256.255C194.454 253.396 206.363 247.661 206.363 247.661L206.859 248.045L218.433 256.93C218.433 256.93 215.62 263.64 214.844 265.055C214.068 266.47 213.648 266.545 214.78 267.436Z" fill="#1891AC"/>
<path d="M452.005 397.63L452.444 387.292L406.801 380.901L406.153 396.158L452.005 397.63Z" fill="#FFB6B6"/>
<path d="M443.72 400.742L443.287 384.19L451.424 384.451L464.56 369.149C465.209 368.393 466.118 367.838 467.156 367.563C468.194 367.289 469.305 367.31 470.328 367.624C471.35 367.937 472.231 368.527 472.841 369.307C473.451 370.087 473.759 371.016 473.719 371.958L472.884 391.621L464.692 394.751L472.684 396.333L472.37 403.746L443.72 400.742Z" fill="#2F2E41"/>
<path d="M195.12 401.654L339.689 404.842C339.689 404.842 384.562 407.096 407.146 402.732C409.131 402.349 410.944 401.914 412.539 401.423C414.202 400.91 415.628 400.335 416.766 399.691L432.213 397.996L433.05 378.265C433.05 378.265 423.604 378.325 418.174 376.125C412.743 373.925 416.517 371.232 411.34 373.88C409.908 374.612 408.914 375.166 408.14 375.558C406.117 376.586 405.602 376.509 402.706 375.629C402.665 375.616 402.607 375.602 402.531 375.585C395.026 373.925 215.128 350.079 215.128 350.079L195.12 401.654Z" fill="#2F2E41"/>
<path d="M385.623 393.092L394.031 385.774L365.568 354.092L353.16 364.895L385.623 393.092Z" fill="#FFB6B6"/>
<path d="M377.116 386.725L389.743 374.335L395.504 379.339L417.102 375.891C418.168 375.72 419.27 375.851 420.245 376.263C421.22 376.676 422.019 377.348 422.523 378.183C423.027 379.018 423.212 379.972 423.049 380.904C422.887 381.836 422.385 382.699 421.619 383.367L405.63 397.288L397.175 394.737L401.798 400.624L395.769 405.873L377.116 386.725Z" fill="#2F2E41"/>
<path d="M138.083 332.801L139.52 361.855C141.212 396.057 184.525 416.757 218.111 398.9C218.73 398.571 219.351 398.23 219.974 397.877C219.974 397.877 232.707 394.903 232.32 390.194C231.934 385.485 235.044 383.193 237.797 384.478C240.55 385.762 276.591 341.281 276.591 341.281C276.591 341.281 351.473 373.764 367.993 381.41C367.993 381.41 383.524 360.292 382.398 360.513C381.272 360.735 289.76 305.035 289.76 305.035C289.76 305.035 274.852 291.914 256.358 300.577C255.973 301.85 256.303 301.894 256.303 301.894L195.212 345.183L186.58 330.927L138.083 332.801Z" fill="#2F2E41"/>
<path d="M195.682 296.48C195.566 297.822 195.347 299.156 195.025 300.473C194.585 302.378 193.876 304.229 192.913 305.983C192.913 305.983 192.913 307.942 188.602 314.503C184.291 321.063 189.68 318.252 192.913 323.125C196.146 327.989 192.913 325.749 189.324 328.88C188.291 329.791 187.557 330.926 187.199 332.167C186.84 333.408 186.871 334.71 187.287 335.937C187.287 335.937 140.988 335.965 132.366 333.153C123.744 330.342 121.783 314.503 129.51 312.938C137.227 311.372 127.171 309.817 122.634 306.208C118.097 302.6 127.171 296.696 127.171 296.696C127.171 296.696 123.432 291.082 123.744 272.234C123.788 270.501 123.972 268.772 124.294 267.061C124.916 263.834 125.849 260.658 127.085 257.567C128.788 253.289 130.811 249.112 133.142 245.064C134.392 242.862 135.675 240.763 136.903 238.832C137.097 238.532 137.28 238.242 137.474 237.951C139.813 234.352 141.947 231.409 143.359 229.525C144.447 228.063 145.105 227.239 145.105 227.239L152.951 215.373L179.139 226.048L177.652 243.509L185.854 267.417L188.332 274.662C188.332 274.662 187.653 274.69 188.462 275.655C192.184 279.959 194.597 285.01 195.478 290.341C195.788 292.376 195.857 294.433 195.682 296.48Z" fill="#1891AC"/>
<path d="M271.312 298.362L270.821 298.224L208.139 280.671L231.237 214.773C231.697 213.461 232.493 212.257 233.566 211.251C234.639 210.246 235.961 209.465 237.431 208.968C238.902 208.471 240.482 208.271 242.055 208.382C243.627 208.494 245.15 208.915 246.508 209.612L286.564 230.193C289.735 231.82 292.147 234.365 293.379 237.382C294.612 240.399 294.586 243.696 293.306 246.698L271.312 298.362Z" fill="#2F2E41"/>
<path d="M271.567 302.551L208.381 284.857L231.479 218.959C231.939 217.647 232.735 216.443 233.808 215.437C234.881 214.432 236.203 213.651 237.673 213.154C239.143 212.657 240.724 212.457 242.297 212.569C243.869 212.68 245.391 213.101 246.75 213.799L288.718 232.02C295.023 235.259 294.876 243.641 291.948 250.519L271.567 302.551Z" fill="#1891AC"/>
<path d="M265.241 307.321C263.786 308.034 262.176 308.477 260.514 308.621C258.851 308.765 257.173 308.606 255.584 308.156L215.197 296.846C212.099 295.965 209.519 294.066 208.009 291.554C206.498 289.042 206.178 286.115 207.115 283.4L227.363 225.633C227.768 224.479 228.433 223.407 229.32 222.479C230.208 221.552 231.299 220.788 232.531 220.232C233.762 219.676 235.109 219.34 236.492 219.242C237.875 219.145 239.266 219.289 240.584 219.665L282.437 231.616C284.431 232.185 286.274 233.096 287.857 234.295C289.439 235.494 290.729 236.957 291.651 238.597C292.573 240.237 293.107 242.021 293.222 243.843C293.338 245.666 293.032 247.49 292.323 249.208L270.674 301.696C269.702 304.079 267.772 306.076 265.241 307.321Z" fill="#3F3D56"/>
<path d="M177.659 215.576C193.635 215.576 206.586 204.313 206.586 190.42C206.586 176.527 193.635 165.265 177.659 165.265C161.683 165.265 148.732 176.527 148.732 190.42C148.732 204.313 161.683 215.576 177.659 215.576Z" fill="#FFB6B6"/>
<path d="M79.8408 215.955C82.4953 220.43 86.8481 223.968 92.1607 225.97C94.2806 226.81 96.5098 227.424 98.7995 227.798C99.4468 225.566 100.483 223.433 101.872 221.473C101.409 223.682 101.409 225.945 101.872 228.154C105.36 228.402 108.87 228.023 112.183 227.041C115.436 226.078 118.387 224.47 120.801 222.343C123.215 220.217 125.026 217.63 126.09 214.788C128.394 208.12 125.912 200.998 125.717 194.038C125.515 187.077 129.316 178.752 137.262 177.891C143.313 177.234 142.565 177.744 146.913 181.461C140.831 187.337 155.659 213.36 163.615 212.21C168.114 211.56 171.424 208.455 172.313 208.562C176.869 218.265 163.165 232.025 174.034 236.542L173.228 235.614C167.539 227.441 184.373 213.636 178.684 205.463C177.098 203.176 175.448 200.496 176.43 197.966C177.361 195.561 182.078 194.8 183.073 196.989C181.455 191.972 185.971 186.084 191.969 185.572C197.298 185.115 196.991 186.436 202.071 187.641C202.721 185.737 203.656 183.917 204.854 182.227C204.448 184.155 204.398 186.127 204.706 188.069C206.538 188.259 208.392 187.918 209.978 187.099C214.67 184.653 214.81 178.339 211.587 174.496C208.358 170.653 202.949 168.755 197.732 167.319C197.684 157.723 167.992 153.13 162.531 162.051C161.969 154.827 152.447 149.961 144.244 151.188C136.041 152.416 129.57 158.135 125.625 164.511C121.68 170.881 119.722 178.014 116.834 184.799C113.946 191.585 109.819 198.351 102.904 202.377C95.9896 206.397 85.7144 206.763 79.9415 201.551C78.6249 203.776 77.9297 206.24 77.9122 208.743C77.8947 211.245 78.5554 213.716 79.8408 215.955Z" fill="#2F2E41"/>
<path d="M249.63 268.55C247.457 268.619 245.402 269.423 243.9 270.79C242.398 272.157 241.569 273.979 241.589 275.87C241.6 276.254 241.647 276.637 241.731 277.014L216.657 289.887L219.692 303.25L251.848 282.386C253.62 281.963 255.182 281.042 256.29 279.766C257.397 278.49 257.987 276.931 257.969 275.333C257.948 274.423 257.722 273.526 257.303 272.693C256.884 271.86 256.28 271.106 255.526 270.476C254.772 269.845 253.882 269.35 252.908 269.019C251.934 268.687 250.895 268.526 249.849 268.544C249.776 268.545 249.703 268.547 249.63 268.55Z" fill="#FFB6B6"/>
<path d="M229.09 299.239C228.42 298.458 228.131 298.13 227.979 298.22C227.586 298.426 227.964 301.187 225.203 305.999C221.315 312.758 180.554 323.111 180.554 323.111L153.461 280.01L145.852 251.866C145.586 250.885 145.457 249.88 145.467 248.871C152.251 244.72 159.456 241.114 166.991 238.097C170.002 239.583 172.297 241.961 173.458 244.797L194.716 296.641C194.716 296.641 205.412 289.99 209.292 291.211C213.166 292.439 214.266 290.717 211.734 285.203C209.202 279.688 213.003 285.364 217.425 285.725C221.857 286.091 217.425 285.725 219.519 283.385C221.612 281.045 235.145 279.729 235.145 279.729L235.432 280.251L240.677 289.633L242.178 292.328C242.178 292.328 236.618 297.574 235.277 298.619C233.929 299.673 233.513 299.6 234.173 300.799C234.824 301.994 231.42 301.939 229.09 299.239Z" fill="#1891AC"/>
<path d="M408.14 375.558C395.474 286.007 407.788 189.769 439.066 103.334C444.496 88.6983 444.887 73.0016 440.193 58.1749C435.498 43.3482 425.922 30.0384 412.642 19.8829C386.111 -0.706461 349.533 -5.7222 317.178 6.7917C285.543 19.0294 280.925 40.26 280.841 61.4737H286.413C286.513 38.9132 292.272 21.7296 319.443 11.2189C349.767 -0.508904 384.056 4.19513 408.932 23.4986C421.405 33.0368 430.4 45.5378 434.809 59.4636C439.219 73.3895 438.851 88.1325 433.751 101.879C402.224 189.003 389.914 285.652 402.531 375.585C402.607 375.602 402.665 375.616 402.706 375.629C405.602 376.509 406.117 376.586 408.14 375.558Z" fill="#2F2F2F"/>
<path d="M412.539 401.423C410.944 401.914 409.131 402.349 407.146 402.732C413.555 434.68 423.295 465.535 436.635 494.531L439.428 494.078L442.221 493.626C428.738 464.523 418.941 433.523 412.539 401.423Z" fill="#2F2F2F"/>
<path d="M356.059 509.377V516.304H376.213H386.846H391.932H397.265H442.323H526V509.377C526 505.44 524.201 501.663 521 498.879C517.798 496.095 513.455 494.531 508.927 494.531H442.734L443 495L436 495.5L436.635 494.531H373.132C368.604 494.531 364.261 496.095 361.06 498.879C357.858 501.663 356.059 505.44 356.059 509.377Z" fill="#2F2F2F"/>
<path d="M436 495.5L443 495L442.734 494.531L442.221 493.626L439.428 494.078L436.635 494.531L436 495.5Z" fill="#2F2F2F"/>
<g clip-path="url(#clip0_1608_299)">
<path d="M281.951 230.174C283.576 230.652 284.65 231.849 284.06 233.916L280.668 245.423C280.63 245.551 280.568 245.673 280.486 245.773C280.355 245.932 280.183 246.029 280.003 246.042C279.829 246.057 279.664 245.976 279.552 245.827L276.391 242.229L271.776 243.54C271.669 243.573 271.555 243.582 271.453 243.552C271.117 243.453 270.95 243.025 271.075 242.601L274.467 231.094C275.075 229.033 276.633 228.609 278.252 229.086L281.951 230.174ZM281.009 234.872L276.494 233.544C276.237 233.468 275.949 233.672 275.85 234.005C275.752 234.338 275.884 234.666 276.141 234.742L280.656 236.07C280.914 236.146 281.202 235.941 281.3 235.608C281.398 235.275 281.267 234.948 281.009 234.872Z" fill="#1891AC"/>
</g>
<defs>
<clipPath id="clip0_1608_299">
<rect width="14.9987" height="18.966" fill="white" transform="matrix(0.959354 0.282206 -0.282762 0.95919 273.363 226)"/>
</clipPath>
</defs>
</svg>
