<svg width="266" height="75" viewBox="0 0 266 75" fill="none" xmlns="http://www.w3.org/2000/svg">
<path d="M21.5852 37.05C22.8518 37.25 24.0018 37.7667 25.0352 38.6C26.1018 39.4333 26.9352 40.4667 27.5352 41.7C28.1685 42.9333 28.4852 44.25 28.4852 45.65C28.4852 47.4167 28.0352 49.0167 27.1352 50.45C26.2352 51.85 24.9185 52.9667 23.1852 53.8C21.4852 54.6 19.4685 55 17.1352 55H4.13516V20.15H16.6352C19.0018 20.15 21.0185 20.55 22.6852 21.35C24.3518 22.1167 25.6018 23.1667 26.4352 24.5C27.2685 25.8333 27.6852 27.3333 27.6852 29C27.6852 31.0667 27.1185 32.7833 25.9852 34.15C24.8852 35.4833 23.4185 36.45 21.5852 37.05ZM8.68516 35.2H16.3352C18.4685 35.2 20.1185 34.7 21.2852 33.7C22.4518 32.7 23.0352 31.3167 23.0352 29.55C23.0352 27.7833 22.4518 26.4 21.2852 25.4C20.1185 24.4 18.4352 23.9 16.2352 23.9H8.68516V35.2ZM16.7352 51.25C19.0018 51.25 20.7685 50.7167 22.0352 49.65C23.3018 48.5833 23.9352 47.1 23.9352 45.2C23.9352 43.2667 23.2685 41.75 21.9352 40.65C20.6018 39.5167 18.8185 38.95 16.5852 38.95H8.68516V51.25H16.7352ZM46.7492 55.45C44.1826 55.45 41.8492 54.8667 39.7492 53.7C37.6826 52.5333 36.0492 50.8833 34.8492 48.75C33.6826 46.5833 33.0992 44.0833 33.0992 41.25C33.0992 38.45 33.6992 35.9833 34.8992 33.85C36.1326 31.6833 37.7992 30.0333 39.8992 28.9C41.9992 27.7333 44.3492 27.15 46.9492 27.15C49.5492 27.15 51.8992 27.7333 53.9992 28.9C56.0992 30.0333 57.7492 31.6667 58.9492 33.8C60.1826 35.9333 60.7992 38.4167 60.7992 41.25C60.7992 44.0833 60.1659 46.5833 58.8992 48.75C57.6659 50.8833 55.9826 52.5333 53.8492 53.7C51.7159 54.8667 49.3492 55.45 46.7492 55.45ZM46.7492 51.45C48.3826 51.45 49.9159 51.0667 51.3492 50.3C52.7826 49.5333 53.9326 48.3833 54.7992 46.85C55.6992 45.3167 56.1492 43.45 56.1492 41.25C56.1492 39.05 55.7159 37.1833 54.8492 35.65C53.9826 34.1167 52.8492 32.9833 51.4492 32.25C50.0492 31.4833 48.5326 31.1 46.8992 31.1C45.2326 31.1 43.6992 31.4833 42.2992 32.25C40.9326 32.9833 39.8326 34.1167 38.9992 35.65C38.1659 37.1833 37.7492 39.05 37.7492 41.25C37.7492 43.4833 38.1492 45.3667 38.9492 46.9C39.7826 48.4333 40.8826 49.5833 42.2492 50.35C43.6159 51.0833 45.1159 51.45 46.7492 51.45ZM78.7316 55.45C76.165 55.45 73.8316 54.8667 71.7316 53.7C69.665 52.5333 68.0316 50.8833 66.8316 48.75C65.665 46.5833 65.0816 44.0833 65.0816 41.25C65.0816 38.45 65.6816 35.9833 66.8816 33.85C68.115 31.6833 69.7816 30.0333 71.8816 28.9C73.9816 27.7333 76.3316 27.15 78.9316 27.15C81.5316 27.15 83.8816 27.7333 85.9816 28.9C88.0816 30.0333 89.7316 31.6667 90.9316 33.8C92.165 35.9333 92.7816 38.4167 92.7816 41.25C92.7816 44.0833 92.1483 46.5833 90.8816 48.75C89.6483 50.8833 87.965 52.5333 85.8316 53.7C83.6983 54.8667 81.3316 55.45 78.7316 55.45ZM78.7316 51.45C80.365 51.45 81.8983 51.0667 83.3316 50.3C84.765 49.5333 85.915 48.3833 86.7816 46.85C87.6816 45.3167 88.1316 43.45 88.1316 41.25C88.1316 39.05 87.6983 37.1833 86.8316 35.65C85.965 34.1167 84.8316 32.9833 83.4316 32.25C82.0316 31.4833 80.515 31.1 78.8816 31.1C77.215 31.1 75.6816 31.4833 74.2816 32.25C72.915 32.9833 71.815 34.1167 70.9816 35.65C70.1483 37.1833 69.7316 39.05 69.7316 41.25C69.7316 43.4833 70.1316 45.3667 70.9316 46.9C71.765 48.4333 72.865 49.5833 74.2316 50.35C75.5983 51.0833 77.0983 51.45 78.7316 51.45ZM114.064 55L103.314 42.9V55H98.7641V18H103.314V39.75L113.864 27.6H120.214L107.314 41.25L120.264 55H114.064ZM148.877 55.35C146.577 55.35 144.51 54.95 142.677 54.15C140.877 53.3167 139.46 52.1833 138.427 50.75C137.393 49.2833 136.86 47.6 136.827 45.7H141.677C141.843 47.3333 142.51 48.7167 143.677 49.85C144.877 50.95 146.61 51.5 148.877 51.5C151.043 51.5 152.743 50.9667 153.977 49.9C155.243 48.8 155.877 47.4 155.877 45.7C155.877 44.3667 155.51 43.2833 154.777 42.45C154.043 41.6167 153.127 40.9833 152.027 40.55C150.927 40.1167 149.443 39.65 147.577 39.15C145.277 38.55 143.427 37.95 142.027 37.35C140.66 36.75 139.477 35.8167 138.477 34.55C137.51 33.25 137.027 31.5167 137.027 29.35C137.027 27.45 137.51 25.7667 138.477 24.3C139.443 22.8333 140.793 21.7 142.527 20.9C144.293 20.1 146.31 19.7 148.577 19.7C151.843 19.7 154.51 20.5167 156.577 22.15C158.677 23.7833 159.86 25.95 160.127 28.65H155.127C154.96 27.3167 154.26 26.15 153.027 25.15C151.793 24.1167 150.16 23.6 148.127 23.6C146.227 23.6 144.677 24.1 143.477 25.1C142.277 26.0667 141.677 27.4333 141.677 29.2C141.677 30.4667 142.027 31.5 142.727 32.3C143.46 33.1 144.343 33.7167 145.377 34.15C146.443 34.55 147.927 35.0167 149.827 35.55C152.127 36.1833 153.977 36.8167 155.377 37.45C156.777 38.05 157.977 39 158.977 40.3C159.977 41.5667 160.477 43.3 160.477 45.5C160.477 47.2 160.027 48.8 159.127 50.3C158.227 51.8 156.893 53.0167 155.127 53.95C153.36 54.8833 151.277 55.35 148.877 55.35ZM179.122 55.45C176.556 55.45 174.222 54.8667 172.122 53.7C170.056 52.5333 168.422 50.8833 167.222 48.75C166.056 46.5833 165.472 44.0833 165.472 41.25C165.472 38.45 166.072 35.9833 167.272 33.85C168.506 31.6833 170.172 30.0333 172.272 28.9C174.372 27.7333 176.722 27.15 179.322 27.15C181.922 27.15 184.272 27.7333 186.372 28.9C188.472 30.0333 190.122 31.6667 191.322 33.8C192.556 35.9333 193.172 38.4167 193.172 41.25C193.172 44.0833 192.539 46.5833 191.272 48.75C190.039 50.8833 188.356 52.5333 186.222 53.7C184.089 54.8667 181.722 55.45 179.122 55.45ZM179.122 51.45C180.756 51.45 182.289 51.0667 183.722 50.3C185.156 49.5333 186.306 48.3833 187.172 46.85C188.072 45.3167 188.522 43.45 188.522 41.25C188.522 39.05 188.089 37.1833 187.222 35.65C186.356 34.1167 185.222 32.9833 183.822 32.25C182.422 31.4833 180.906 31.1 179.272 31.1C177.606 31.1 176.072 31.4833 174.672 32.25C173.306 32.9833 172.206 34.1167 171.372 35.65C170.539 37.1833 170.122 39.05 170.122 41.25C170.122 43.4833 170.522 45.3667 171.322 46.9C172.156 48.4333 173.256 49.5833 174.622 50.35C175.989 51.0833 177.489 51.45 179.122 51.45ZM223.455 27.6V55H218.905V50.95C218.038 52.35 216.821 53.45 215.255 54.25C213.721 55.0167 212.021 55.4 210.155 55.4C208.021 55.4 206.105 54.9667 204.405 54.1C202.705 53.2 201.355 51.8667 200.355 50.1C199.388 48.3333 198.905 46.1833 198.905 43.65V27.6H203.405V43.05C203.405 45.75 204.088 47.8333 205.455 49.3C206.821 50.7333 208.688 51.45 211.055 51.45C213.488 51.45 215.405 50.7 216.805 49.2C218.205 47.7 218.905 45.5167 218.905 42.65V27.6H223.455ZM235.687 18V55H231.137V18H235.687ZM253.142 55.45C251.042 55.45 249.158 55.1 247.492 54.4C245.825 53.6667 244.508 52.6667 243.542 51.4C242.575 50.1 242.042 48.6167 241.942 46.95H246.642C246.775 48.3167 247.408 49.4333 248.542 50.3C249.708 51.1667 251.225 51.6 253.092 51.6C254.825 51.6 256.192 51.2167 257.192 50.45C258.192 49.6833 258.692 48.7167 258.692 47.55C258.692 46.35 258.158 45.4667 257.092 44.9C256.025 44.3 254.375 43.7167 252.142 43.15C250.108 42.6167 248.442 42.0833 247.142 41.55C245.875 40.9833 244.775 40.1667 243.842 39.1C242.942 38 242.492 36.5667 242.492 34.8C242.492 33.4 242.908 32.1167 243.742 30.95C244.575 29.7833 245.758 28.8667 247.292 28.2C248.825 27.5 250.575 27.15 252.542 27.15C255.575 27.15 258.025 27.9167 259.892 29.45C261.758 30.9833 262.758 33.0833 262.892 35.75H258.342C258.242 34.3167 257.658 33.1667 256.592 32.3C255.558 31.4333 254.158 31 252.392 31C250.758 31 249.458 31.35 248.492 32.05C247.525 32.75 247.042 33.6667 247.042 34.8C247.042 35.7 247.325 36.45 247.892 37.05C248.492 37.6167 249.225 38.0833 250.092 38.45C250.992 38.7833 252.225 39.1667 253.792 39.6C255.758 40.1333 257.358 40.6667 258.592 41.2C259.825 41.7 260.875 42.4667 261.742 43.5C262.642 44.5333 263.108 45.8833 263.142 47.55C263.142 49.05 262.725 50.4 261.892 51.6C261.058 52.8 259.875 53.75 258.342 54.45C256.842 55.1167 255.108 55.45 253.142 55.45Z" fill="#D2ECF9"/>
<path d="M7.84312 19C9.02875 19 9.98688 19.4681 10 20.6581V27.2994C10 27.3737 9.9825 27.4481 9.9475 27.5137C9.89062 27.6187 9.79437 27.6975 9.67625 27.7325C9.5625 27.7675 9.43562 27.75 9.33062 27.6887L6.49563 26.2712L3.65625 27.6887C3.59106 27.7233 3.51625 27.7456 3.44188 27.7456C3.19688 27.7456 3 27.5444 3 27.2994V20.6581C3 19.4681 3.9625 19 5.14375 19H7.84312ZM8.14062 21.6425H4.84625C4.65813 21.6425 4.505 21.7956 4.505 21.9881C4.505 22.1802 4.65813 22.3337 4.84625 22.3337H8.14062C8.32875 22.3337 8.48187 22.1802 8.48187 21.9881C8.48187 21.7956 8.32875 21.6425 8.14062 21.6425Z" fill="#1891AC"/>
</svg>
