<svg width="115" height="97" viewBox="0 0 115 97" fill="none" xmlns="http://www.w3.org/2000/svg">
<path fill-rule="evenodd" clip-rule="evenodd" d="M106.04 37.0708C106.377 36.7336 106.567 36.2763 106.567 35.7995C106.568 35.563 106.522 35.3286 106.432 35.1099C106.341 34.8912 106.209 34.6926 106.041 34.5255C105.874 34.3584 105.675 34.2262 105.456 34.1365C105.237 34.0468 105.003 34.0014 104.766 34.0029H59.3911C59.1511 33.9965 58.9122 34.0383 58.6885 34.1257C58.4649 34.2132 58.261 34.3445 58.089 34.512C57.9169 34.6796 57.7802 34.8799 57.6868 35.1011C57.5935 35.3223 57.5454 35.56 57.5454 35.8001C57.5454 36.0403 57.5935 36.278 57.6868 36.4992C57.7802 36.7204 57.9169 36.9207 58.089 37.0882C58.261 37.2558 58.4649 37.3871 58.6885 37.4745C58.9122 37.562 59.1511 37.6037 59.3911 37.5973H104.769C105.246 37.5973 105.703 37.4079 106.04 37.0708ZM106.432 28.3778C106.522 28.1591 106.568 27.9247 106.567 27.6882C106.567 27.4519 106.52 27.2179 106.43 26.9996C106.339 26.7813 106.206 26.583 106.039 26.416C105.872 26.249 105.673 26.1167 105.455 26.0265C105.237 25.9363 105.003 25.89 104.766 25.8903H59.3911C59.1511 25.8839 58.9122 25.9257 58.6885 26.0131C58.4649 26.1006 58.261 26.2319 58.089 26.3994C57.9169 26.567 57.7802 26.7672 57.6868 26.9885C57.5935 27.2097 57.5454 27.4474 57.5454 27.6875C57.5454 27.9277 57.5935 28.1654 57.6868 28.3866C57.7802 28.6078 57.9169 28.8081 58.089 28.9756C58.261 29.1431 58.4649 29.2745 58.6885 29.3619C58.9122 29.4494 59.1511 29.4911 59.3911 29.4847H104.766C105.003 29.4862 105.237 29.4408 105.456 29.3512C105.675 29.2615 105.874 29.1292 106.041 28.9622C106.209 28.7951 106.341 28.5965 106.432 28.3778ZM58.1199 18.3094C57.7827 18.6466 57.5933 19.1039 57.5933 19.5807V19.5845C57.5956 20.0598 57.7861 20.5148 58.123 20.85C58.4599 21.1852 58.9158 21.3734 59.3911 21.3734H77.3707C77.8469 21.3734 78.3035 21.1842 78.6402 20.8476C78.9769 20.5109 79.166 20.0543 79.166 19.5781C79.166 19.102 78.9769 18.6453 78.6402 18.3087C78.3035 17.972 77.8469 17.7828 77.3707 17.7828H59.3911C58.9143 17.7828 58.457 17.9722 58.1199 18.3094ZM91.6103 63.1222H102.975V50.4927H91.6103V63.1222ZM89.8137 46.8945H104.764L104.769 46.8957C105.245 46.8957 105.703 47.085 106.04 47.4218C106.377 47.7587 106.566 48.2157 106.567 48.6923V64.9201C106.567 65.1565 106.52 65.3905 106.429 65.6089C106.338 65.8272 106.205 66.0254 106.038 66.1923C105.87 66.3592 105.672 66.4914 105.453 66.5814C105.234 66.6713 105 66.7173 104.764 66.7166H89.8137C89.3372 66.7156 88.8805 66.5259 88.5436 66.1889C88.2066 65.852 88.0169 65.3953 88.0159 64.9188V48.691C88.0169 48.2146 88.2067 47.7581 88.5437 47.4213C88.8806 47.0846 89.3373 46.8951 89.8137 46.8945ZM65.0862 63.1222H76.4418H76.4443V50.4927H65.0862V63.1222ZM63.2883 46.8945H78.2396C78.7158 46.8955 79.1709 47.0851 79.5076 47.4218C79.8443 47.7585 80.0339 48.2148 80.0349 48.691V64.9188C80.0342 65.3952 79.8448 65.8519 79.508 66.1888C79.1713 66.5258 78.7147 66.7156 78.2383 66.7166H63.2883C62.8115 66.7166 62.3542 66.5272 62.0171 66.19C61.6799 65.8529 61.4905 65.3956 61.4905 64.9188V48.691C61.4908 48.2144 61.6804 47.7575 62.0175 47.4206C62.3546 47.0837 62.8117 46.8945 63.2883 46.8945ZM38.5544 63.1222H49.9164H49.9189V50.4927H38.5544V63.1222ZM36.7629 46.8945H51.7129C52.1893 46.8951 52.646 47.0846 52.983 47.4213C53.32 47.7581 53.5098 48.2146 53.5108 48.691V64.9188C53.5098 65.3953 53.32 65.852 52.9831 66.1889C52.6461 66.5259 52.1894 66.7156 51.7129 66.7166H36.7629C36.2862 66.7163 35.8291 66.5268 35.4921 66.1897C35.155 65.8526 34.9655 65.3955 34.9651 64.9188V48.691C34.9658 48.2145 35.1555 47.7578 35.4925 47.4209C35.8296 47.0841 36.2865 46.8948 36.7629 46.8945ZM12.0277 63.1222H23.3833V50.4927H12.0277V63.1222ZM10.2299 46.8945H25.1799V46.8983C25.6564 46.8986 26.1133 47.088 26.4503 47.4248C26.7874 47.7616 26.977 48.2183 26.9777 48.6948V64.9226C26.9774 65.3993 26.7879 65.8564 26.4508 66.1935C26.1137 66.5306 25.6566 66.7201 25.1799 66.7205H10.2299C9.7534 66.7198 9.29664 66.5301 8.95983 66.1931C8.62302 65.856 8.43367 65.3991 8.43333 64.9226V48.6948C8.433 48.4586 8.47921 48.2247 8.56933 48.0064C8.65945 47.788 8.79171 47.5896 8.95855 47.4224C9.12539 47.2552 9.32355 47.1225 9.54169 47.0319C9.75983 46.9413 9.99369 46.8946 10.2299 46.8945ZM111.404 6.28922V78.2064C111.404 78.9212 111.121 79.6069 110.616 80.1128C110.111 80.6188 109.426 80.9037 108.711 80.9051H6.28922C5.57405 80.9044 4.88842 80.6197 4.38308 80.1137C3.87774 79.6076 3.59405 78.9216 3.59439 78.2064V6.28922C3.59507 5.57483 3.87924 4.88992 4.38451 4.38489C4.88978 3.87986 5.57483 3.59601 6.28922 3.59567H108.711C109.425 3.59668 110.109 3.88079 110.614 4.38571C111.119 4.89063 111.403 5.57516 111.404 6.28922ZM51.3156 93.196H63.6896V84.4956H51.3156V93.196ZM6.28922 0H108.711C110.378 0.00101555 111.978 0.663954 113.157 1.84319C114.336 3.02243 114.999 4.62153 115 6.28922V78.2064C114.999 79.8741 114.336 81.4732 113.157 82.6524C111.978 83.8317 110.378 84.4946 108.711 84.4956H67.284V93.196H72.6366C73.1134 93.196 73.5707 93.3854 73.9078 93.7226C74.245 94.0597 74.4344 94.517 74.4344 94.9938C74.4344 95.4707 74.245 95.9279 73.9078 96.2651C73.5707 96.6023 73.1134 96.7917 72.6366 96.7917H42.3532C41.8764 96.7917 41.4191 96.6023 41.082 96.2651C40.7448 95.9279 40.5554 95.4707 40.5554 94.9938C40.5554 94.517 40.7448 94.0597 41.082 93.7226C41.4191 93.3854 41.8764 93.196 42.3532 93.196H47.7199V84.4956H6.28922C4.62163 84.4943 3.02273 83.8312 1.84357 82.6521C0.664401 81.4729 0.00135356 79.874 0 78.2064V6.28922C0.00135356 4.62163 0.664401 3.02273 1.84357 1.84357C3.02273 0.6644 4.62163 0.00135356 6.28922 0Z" fill="#253B6E"/>
<path fill-rule="evenodd" clip-rule="evenodd" d="M51.7155 17.7828H10.2312C9.99474 17.7817 9.76042 17.8273 9.54177 17.9173C9.32311 18.0072 9.12444 18.1396 8.95726 18.3068C8.79008 18.4739 8.6577 18.6726 8.56777 18.8913C8.47784 19.1099 8.43215 19.3442 8.43333 19.5807V35.7995C8.43215 36.0358 8.4778 36.27 8.56765 36.4886C8.6575 36.7072 8.78977 36.9058 8.95681 37.073C9.12386 37.2401 9.32237 37.3725 9.54088 37.4625C9.75939 37.5525 9.99357 37.5984 10.2299 37.5973H51.7155C52.1923 37.5973 52.6496 37.4079 52.9868 37.0708C53.3239 36.7336 53.5133 36.2763 53.5133 35.7995V19.5807C53.5133 19.1039 53.3239 18.6466 52.9868 18.3094C52.6496 17.9722 52.1923 17.7828 51.7155 17.7828ZM12.0277 34.0029H49.9189V21.3734H12.0277V34.0029Z" fill="#1891AC"/>
</svg>
