<svg width="421" height="500" viewBox="0 0 421 500" fill="none" xmlns="http://www.w3.org/2000/svg">
<path fill-rule="evenodd" clip-rule="evenodd" d="M0 51.1364C0 23.0293 22.8935 0 50.9588 0H254.616C282.682 0 305.575 23.0293 305.575 51.1364V83.8068C305.597 85.3126 305.318 86.8077 304.757 88.205C304.195 89.6024 303.362 90.8742 302.304 91.9466C301.247 93.019 299.987 93.8705 298.598 94.4518C297.209 95.033 295.718 95.3323 294.212 95.3323C292.706 95.3323 291.215 95.033 289.825 94.4518C288.436 93.8705 287.176 93.019 286.119 91.9466C285.062 90.8742 284.228 89.6024 283.666 88.205C283.105 86.8077 282.827 85.3126 282.848 83.8068V51.1364C282.848 35.1752 270.432 22.7273 254.616 22.7273H50.9588C35.1434 22.7273 22.7273 35.1752 22.7273 51.1364V448.864C22.7273 464.825 35.1434 477.273 50.9588 477.273H254.616C270.432 477.273 282.848 464.825 282.848 448.864V420.632C282.827 419.126 283.105 417.631 283.666 416.234C284.228 414.837 285.062 413.565 286.119 412.492C287.176 411.42 288.436 410.568 289.825 409.987C291.215 409.406 292.706 409.107 294.212 409.107C295.718 409.107 297.209 409.406 298.598 409.987C299.987 410.568 301.247 411.42 302.304 412.492C303.362 413.565 304.195 414.837 304.757 416.234C305.318 417.631 305.597 419.126 305.575 420.632V448.864C305.575 476.97 282.682 500 254.616 500H50.9588C22.8935 500 0 476.97 0 448.864V51.1364ZM111.458 439.989C112.81 439.353 114.275 438.99 115.767 438.92C116.122 438.904 116.477 438.904 116.832 438.92H188.743C190.249 438.899 191.744 439.177 193.141 439.739C194.538 440.3 195.81 441.134 196.883 442.191C197.955 443.249 198.807 444.509 199.388 445.898C199.969 447.287 200.268 448.778 200.268 450.284C200.268 451.79 199.969 453.281 199.388 454.67C198.807 456.06 197.955 457.319 196.883 458.377C195.81 459.434 194.538 460.268 193.141 460.829C191.744 461.391 190.249 461.669 188.743 461.648H116.832C115.34 461.718 113.848 461.494 112.442 460.987C111.037 460.481 109.745 459.703 108.64 458.697C107.535 457.691 106.639 456.478 106.003 455.125C105.367 453.773 105.004 452.309 104.934 450.817C104.864 449.324 105.089 447.833 105.595 446.427C106.102 445.022 106.88 443.729 107.886 442.625C108.892 441.52 110.106 440.624 111.458 439.989Z" fill="#253B6E"/>
<path fill-rule="evenodd" clip-rule="evenodd" d="M294.744 111.328C294.387 111.371 294.031 111.43 293.679 111.506C291.934 111.597 290.233 112.083 288.707 112.926L174.183 178.267C172.396 179.253 170.909 180.697 169.878 182.446C168.848 184.195 168.311 186.186 168.324 188.21V319.07C168.343 321.064 168.895 323.018 169.924 324.733C170.953 326.448 172.422 327.864 174.183 328.835L288.707 394.354C290.458 395.367 292.45 395.901 294.478 395.901C296.506 395.901 298.498 395.367 300.249 394.354L414.773 328.835C416.534 327.864 418.003 326.448 419.032 324.733C420.061 323.018 420.613 321.064 420.632 319.07V188.21C420.645 186.186 420.108 184.195 419.078 182.446C418.047 180.697 416.56 179.253 414.773 178.267L300.249 112.926C298.581 111.939 296.687 111.389 294.744 111.328ZM397.727 194.78L294.389 135.831L202.947 188.033L294.567 240.412L362.393 201.705C365.007 200.198 368.112 199.791 371.026 200.573C373.939 201.356 376.423 203.264 377.93 205.877C379.437 208.491 379.844 211.596 379.061 214.509C378.279 217.423 376.371 219.906 373.757 221.413L305.753 260.298V337.18C305.774 338.686 305.496 340.181 304.934 341.579C304.373 342.976 303.539 344.248 302.482 345.32C301.425 346.393 300.165 347.244 298.775 347.825C297.386 348.407 295.895 348.706 294.389 348.706C292.883 348.706 291.392 348.407 290.003 347.825C288.614 347.244 287.354 346.393 286.296 345.32C285.239 344.248 284.405 342.976 283.844 341.579C283.282 340.181 283.004 338.686 283.026 337.18V259.943L191.229 207.741V312.5L294.389 371.449L397.727 312.5V194.78Z" fill="#1891AC"/>
</svg>
