<svg width="501" height="500" viewBox="0 0 501 500" fill="none" xmlns="http://www.w3.org/2000/svg">
<path fill-rule="evenodd" clip-rule="evenodd" d="M177.492 199.62C176.666 199.876 175.828 200.002 175.002 200.002C171.454 200.002 168.166 197.716 167.051 194.151L153.254 149.999H113.425L99.6282 194.151C98.2488 198.542 93.5532 200.967 89.1872 199.62C84.7967 198.245 82.3472 193.573 83.7185 189.179L125.385 55.8467C126.471 52.3677 129.694 49.9996 133.34 49.9996C136.985 49.9996 140.208 52.3677 141.295 55.8467L182.961 189.179C184.332 193.573 181.883 198.245 177.492 199.62ZM133.34 86.2705L148.046 133.332H118.633L133.34 86.2705Z" fill="#1891AC"/>
<path fill-rule="evenodd" clip-rule="evenodd" d="M499.735 478.662C497.928 490.824 487.308 500 475.028 500C473.816 500 472.587 499.91 471.35 499.727L302.243 474.675C289.654 490.621 270.497 499.996 250.005 499.996C229.514 499.996 210.357 490.621 197.768 474.675L28.6693 499.727C15.0707 501.693 2.29826 492.289 0.275941 478.658C-0.704718 472.054 0.947354 465.463 4.93082 460.1C8.91029 454.737 14.7371 451.246 21.341 450.265L27.7847 449.31L33.4543 415.292C33.8043 413.18 34.9598 411.284 36.6729 409.998C39.3396 407.998 99.6383 364.233 225.322 386.415C201.097 366.633 150.027 339.267 59.3127 349.94C54.727 350.469 50.6011 347.206 50.064 342.637C49.5269 338.067 52.7943 333.925 57.3678 333.388C174.917 319.578 231.593 366.721 250.005 386.83C268.426 366.717 325.09 319.565 442.643 333.388C447.217 333.925 450.484 338.067 449.947 342.637C449.41 347.21 445.219 350.486 440.698 349.94C351.03 339.398 299.673 366.625 275.118 386.337C400.521 364.339 460.674 408.003 463.338 409.998C465.051 411.284 466.207 413.18 466.557 415.292L472.226 449.311L478.666 450.265C485.27 451.246 491.101 454.737 495.08 460.1C499.064 465.463 500.716 472.054 499.735 478.662ZM45.1089 446.744L224.277 420.199C226.922 419.796 229.657 420.728 231.532 422.694C233.4 424.655 234.197 427.405 233.673 430.062C233.465 431.12 233.339 432.211 233.339 433.33C233.339 442.522 240.814 449.996 250.006 449.996C259.197 449.996 266.672 442.522 266.672 433.33C266.672 432.211 266.546 431.12 266.338 430.062C265.813 427.405 266.611 424.655 268.479 422.694C270.35 420.736 273.077 419.825 275.734 420.199L454.902 446.744L450.716 421.632C437.558 413.602 374.587 381.124 258.339 406.759V416.663C258.339 421.265 254.608 424.997 250.006 424.997C245.404 424.997 241.672 421.265 241.672 416.663V406.759C125.461 381.131 62.505 413.574 49.2951 421.632L45.1089 446.744ZM483.247 476.213C483.573 474.016 483.024 471.818 481.697 470.032C480.371 468.246 478.426 467.078 476.224 466.752L282.997 438.123C280.661 454.24 266.757 466.663 250.005 466.663C233.253 466.663 219.35 454.24 217.014 438.123L23.7865 466.752C21.5852 467.078 19.6402 468.242 18.3137 470.032C16.9872 471.818 16.4379 474.016 16.7634 476.213C17.4348 480.758 21.6665 483.911 26.2319 483.24L200.315 457.451C203.513 456.975 206.683 458.395 208.469 461.072C217.767 475.008 233.294 483.329 250.006 483.329C266.717 483.329 282.244 475.008 291.542 461.072C293.104 458.732 295.717 457.361 298.475 457.361C298.878 457.361 299.289 457.39 299.696 457.451L473.783 483.24C478.296 483.891 482.584 480.685 483.247 476.213ZM500.004 91.6659V224.998C500.004 247.972 481.311 266.664 458.337 266.664H342.09L288.913 314.524C287.351 315.928 285.357 316.664 283.338 316.664C282.191 316.664 281.035 316.428 279.949 315.944C276.942 314.605 275.005 311.623 275.005 308.331V266.664H258.339C239.108 266.664 223.036 253.498 218.258 235.755C211.628 241.317 204.511 246.281 196.922 250.413L183.128 310.202C182.424 313.242 180.088 315.635 177.069 316.404C176.385 316.579 175.694 316.664 175.006 316.664C172.658 316.664 170.38 315.671 168.776 313.869L126.565 266.38C56.4441 262.811 0.00736037 203.884 0.00736037 133.332C0.00736037 59.8139 59.8213 0 133.34 0C176.139 0 215.633 20.3515 240.556 54.1382C245.97 51.56 251.954 49.9996 258.339 49.9996H458.337C481.311 49.9996 500.004 68.6924 500.004 91.6659ZM216.672 214.685V91.6659C216.672 81.0937 220.756 71.5372 227.269 64.1826C205.467 34.5309 170.852 16.6665 133.34 16.6665C69.0091 16.6665 16.6739 69.0017 16.6739 133.332C16.6739 196.133 67.7925 248.403 130.622 249.856C132.937 249.908 135.122 250.918 136.66 252.647L170.514 290.737L181.541 242.942C182.098 240.534 183.693 238.495 185.899 237.38C197.305 231.605 207.722 223.859 216.672 214.685ZM483.337 91.6659C483.337 77.8802 472.123 66.6661 458.337 66.6661H258.339C244.553 66.6661 233.339 77.8802 233.339 91.6659V224.998C233.339 238.784 244.553 249.998 258.339 249.998H283.339C287.941 249.998 291.672 253.729 291.672 258.331V289.618L333.318 252.138C334.848 250.759 336.833 249.998 338.892 249.998H458.337C472.123 249.998 483.337 238.784 483.337 224.998L483.337 91.6659Z" fill="#253B6E"/>
<path d="M416.642 217.194C416.362 221.605 412.708 224.998 408.346 224.998C408.175 224.998 408 224.994 407.829 224.982C406.149 224.88 380.766 223.06 357.176 207.191C333.863 222.178 309.637 224.911 309.168 224.957C308.888 224.986 308.607 224.998 308.33 224.998C304.098 224.998 300.477 221.792 300.046 217.495C299.59 212.921 302.922 208.84 307.496 208.376C308.98 208.22 326.113 206.136 343.715 196.143C334.894 187.347 327.169 175.896 322.213 160.957C320.765 156.586 323.133 151.871 327.499 150.422C331.894 148.973 336.585 151.346 338.034 155.708C342.428 168.957 349.579 178.794 357.647 186.23C370.349 175.064 380.844 158.29 382.822 133.332H308.338C303.736 133.332 300.005 129.601 300.005 124.999C300.005 120.397 303.736 116.666 308.338 116.666H350.005V99.9992C350.005 95.3971 353.736 91.6659 358.338 91.6659C362.94 91.6659 366.671 95.3971 366.671 99.9992V116.666H408.337C412.94 116.666 416.671 120.397 416.671 124.999C416.671 129.601 412.94 133.332 408.337 133.332H399.733C397.821 162.589 385.89 182.613 371.28 196.279C389.446 206.822 407.576 208.263 408.866 208.348C413.452 208.653 416.935 212.608 416.642 217.194Z" fill="#1891AC"/>
</svg>
