<svg width="650" height="517" viewBox="0 0 650 517" fill="none" xmlns="http://www.w3.org/2000/svg">
<path d="M650 516.304H566.323H521.265H515.932H510.846H500.213H480.06V509.377C480.06 505.44 481.858 501.663 485.06 498.879C488.262 496.095 492.604 494.531 497.132 494.531H632.928C637.456 494.531 641.798 496.095 645 498.879C648.201 501.663 650 505.44 650 509.377V516.304Z" fill="#E6E6E6"/>
<path d="M561.053 495.436L566.221 493.626C512.147 376.904 517.356 229.651 563.066 103.334C568.496 88.6983 568.888 73.0016 564.193 58.1749C559.498 43.3483 549.922 30.0384 536.642 19.8829C510.111 -0.706461 473.533 -5.7222 441.178 6.7917C409.242 19.1459 404.84 40.6651 404.84 62.0796H410.412C410.412 39.2207 416.029 21.8235 443.443 11.2189C473.767 -0.508904 508.057 4.19513 532.932 23.4986C545.405 33.0368 554.4 45.5378 558.809 59.4636C563.219 73.3895 562.851 88.1325 557.751 101.879C511.514 229.655 506.61 377.919 561.053 495.436Z" fill="#E6E6E6"/>
<path d="M409.019 133.549C419.789 133.549 428.52 125.956 428.52 116.59C428.52 107.224 419.789 99.6313 409.019 99.6313C398.248 99.6313 389.517 107.224 389.517 116.59C389.517 125.956 398.248 133.549 409.019 133.549Z" fill="#E6E6E6"/>
<path d="M378.985 146.154V114.021H384.73V146.154C386.378 146.734 387.743 147.794 388.591 149.153C389.439 150.512 389.717 152.085 389.377 153.603C389.038 155.12 388.102 156.488 386.73 157.471C385.358 158.454 383.635 158.992 381.858 158.992C380.08 158.992 378.357 158.454 376.985 157.471C375.613 156.488 374.677 155.12 374.338 153.603C373.998 152.085 374.276 150.512 375.124 149.153C375.972 147.794 377.337 146.734 378.985 146.154Z" fill="#E6E6E6"/>
<path d="M351.211 89.3347C351.221 81.9481 354.599 74.8664 360.605 69.6432C366.612 64.4201 374.755 61.4821 383.249 61.4737H436.181C444.678 61.4737 452.827 64.409 458.836 69.634C464.844 74.8589 468.219 81.9455 468.219 89.3347C468.219 96.7239 464.844 103.81 458.836 109.035C452.827 114.26 444.678 117.196 436.181 117.196H383.249C374.755 117.187 366.612 114.249 360.605 109.026C354.599 103.803 351.221 96.7213 351.211 89.3347Z" fill="#1891AC"/>
<path d="M276.632 261.868C281.946 202.739 309.119 174.567 291.72 156.9C275.053 139.977 228.107 143.473 197.958 159.711C116.637 203.511 86.8446 378.079 191.491 463.369C290.932 544.416 479.393 518.458 521.275 452.122C531.047 436.644 538.811 409.511 524.508 393.078C488.999 352.28 359.897 426.176 302.497 379.957C268.48 352.566 273.715 294.318 276.632 261.868Z" fill="#3F3D56"/>
<path d="M338.794 232.492C336.819 233.282 335.276 234.711 334.494 236.475C333.712 238.24 333.753 240.199 334.607 241.938C334.787 242.289 335 242.626 335.244 242.947L317.79 263.214L326.499 274.534L346.958 244.523C348.408 243.54 349.442 242.167 349.9 240.619C350.358 239.071 350.214 237.435 349.491 235.965C349.07 235.133 348.464 234.38 347.709 233.751C346.953 233.122 346.063 232.628 345.088 232.298C344.113 231.969 343.073 231.809 342.027 231.829C340.982 231.848 339.95 232.047 338.993 232.413C338.926 232.439 338.86 232.465 338.794 232.492Z" fill="#FFB6B6"/>
<path d="M338.78 267.436C339.922 268.317 336.754 269.404 333.402 267.689C332.443 267.192 332.033 266.986 331.926 267.117C331.656 267.445 333.23 269.863 332.809 275.233C332.551 278.439 326.429 284.465 319.478 290.341C310.08 298.289 299.152 305.955 299.152 305.955L255.084 275.233L248.294 267.061C248.916 263.834 249.849 260.658 251.085 257.567C252.788 253.289 254.811 249.112 257.142 245.064C258.392 242.862 259.675 240.763 260.903 238.832L300.521 276.789C300.521 276.789 305.78 269.423 309.854 267.417C310.373 267.128 310.964 266.952 311.578 266.902C315.695 266.733 315.943 264.783 311.169 260.538C306.394 256.292 312.419 260.257 316.665 259.113C320.911 257.97 316.665 259.113 317.559 256.255C318.454 253.396 330.363 247.661 330.363 247.661L330.859 248.045L342.433 256.93C342.433 256.93 339.62 263.64 338.845 265.055C338.068 266.47 337.648 266.545 338.78 267.436Z" fill="#1891AC"/>
<path d="M576.005 397.63L576.444 387.292L530.801 380.901L530.153 396.158L576.005 397.63Z" fill="#FFB6B6"/>
<path d="M567.72 400.742L567.287 384.19L575.424 384.451L588.56 369.149C589.209 368.393 590.118 367.838 591.156 367.563C592.194 367.289 593.305 367.31 594.328 367.624C595.35 367.937 596.231 368.527 596.841 369.307C597.451 370.087 597.759 371.016 597.719 371.958L596.884 391.621L588.692 394.751L596.685 396.333L596.37 403.746L567.72 400.742Z" fill="#2F2E41"/>
<path d="M319.12 401.654L463.689 404.842C463.689 404.842 526.119 407.978 540.766 399.691L556.213 397.996L557.05 378.265C557.05 378.265 547.604 378.325 542.174 376.125C536.743 373.925 540.518 371.232 535.34 373.88C530.162 376.527 530.709 376.845 526.706 375.629C522.703 374.412 339.128 350.079 339.128 350.079L319.12 401.654Z" fill="#2F2E41"/>
<path d="M509.624 393.092L518.031 385.774L489.568 354.092L477.16 364.895L509.624 393.092Z" fill="#FFB6B6"/>
<path d="M501.116 386.725L513.744 374.335L519.504 379.339L541.102 375.891C542.168 375.72 543.27 375.851 544.245 376.263C545.221 376.676 546.019 377.348 546.523 378.183C547.028 379.018 547.212 379.972 547.049 380.904C546.887 381.836 546.386 382.699 545.619 383.367L529.63 397.288L521.175 394.737L525.798 400.624L519.769 405.873L501.116 386.725Z" fill="#2F2E41"/>
<path d="M262.083 332.801L263.52 361.855C265.212 396.057 308.525 416.757 342.111 398.9C342.73 398.571 343.351 398.23 343.975 397.877C343.975 397.877 356.707 394.903 356.321 390.194C355.934 385.485 359.045 383.193 361.797 384.478C364.55 385.762 400.591 341.281 400.591 341.281C400.591 341.281 475.473 373.764 491.993 381.41C491.993 381.41 507.524 360.292 506.398 360.513C505.272 360.735 413.76 305.035 413.76 305.035C413.76 305.035 398.852 291.914 380.359 300.577C379.973 301.85 380.303 301.894 380.303 301.894L319.212 345.183L310.581 330.927L262.083 332.801Z" fill="#2F2E41"/>
<path d="M319.683 296.48C319.567 297.822 319.347 299.156 319.025 300.473C318.585 302.378 317.876 304.229 316.913 305.983C316.913 305.983 316.913 307.942 312.602 314.503C308.291 321.063 313.68 318.252 316.913 323.125C320.146 327.989 316.913 325.749 313.324 328.88C312.291 329.791 311.557 330.926 311.199 332.167C310.84 333.408 310.871 334.71 311.287 335.937C311.287 335.937 264.988 335.965 256.366 333.153C247.744 330.342 245.783 314.503 253.51 312.938C261.227 311.372 251.172 309.817 246.634 306.208C242.097 302.6 251.172 296.696 251.172 296.696C251.172 296.696 247.432 291.082 247.744 272.234C247.788 270.501 247.972 268.772 248.294 267.061C248.916 263.834 249.849 260.658 251.085 257.567C252.788 253.289 254.811 249.112 257.142 245.064C258.392 242.862 259.675 240.763 260.903 238.832C261.097 238.532 261.281 238.242 261.475 237.951C263.813 234.352 265.947 231.409 267.359 229.525C268.447 228.063 269.105 227.239 269.105 227.239L276.951 215.373L303.139 226.048L301.652 243.509L309.854 267.417L312.332 274.662C312.332 274.662 311.653 274.69 312.462 275.655C316.184 279.959 318.598 285.01 319.478 290.341C319.788 292.376 319.857 294.433 319.683 296.48Z" fill="#1891AC"/>
<path d="M395.312 298.362L394.821 298.224L332.139 280.671L355.237 214.773C355.697 213.461 356.494 212.257 357.567 211.251C358.639 210.246 359.961 209.465 361.431 208.968C362.902 208.471 364.483 208.271 366.055 208.382C367.627 208.494 369.15 208.915 370.508 209.612L410.564 230.193C413.735 231.82 416.147 234.365 417.38 237.382C418.612 240.399 418.586 243.696 417.306 246.698L395.312 298.362Z" fill="#2F2E41"/>
<path d="M395.567 302.551L332.381 284.857L355.479 218.959C355.939 217.647 356.735 216.443 357.808 215.437C358.881 214.432 360.203 213.651 361.673 213.154C363.143 212.657 364.724 212.457 366.297 212.569C367.869 212.68 369.392 213.101 370.75 213.799L412.718 232.02C419.023 235.259 418.876 243.641 415.948 250.519L395.567 302.551Z" fill="#1891AC"/>
<path d="M389.241 307.321C387.786 308.034 386.176 308.477 384.514 308.621C382.851 308.765 381.173 308.606 379.585 308.156L339.198 296.846C336.099 295.965 333.519 294.066 332.009 291.554C330.499 289.042 330.178 286.115 331.115 283.4L351.363 225.633C351.768 224.479 352.433 223.407 353.321 222.479C354.208 221.552 355.299 220.788 356.531 220.232C357.762 219.676 359.109 219.34 360.492 219.242C361.875 219.145 363.266 219.289 364.584 219.665L406.437 231.616C408.431 232.185 410.274 233.096 411.857 234.295C413.439 235.494 414.729 236.957 415.651 238.597C416.573 240.237 417.107 242.021 417.222 243.843C417.338 245.666 417.032 247.49 416.323 249.208L394.674 301.696C393.702 304.079 391.773 306.076 389.241 307.321Z" fill="#3F3D56"/>
<path d="M301.659 215.576C317.635 215.576 330.586 204.313 330.586 190.42C330.586 176.527 317.635 165.265 301.659 165.265C285.683 165.265 272.732 176.527 272.732 190.42C272.732 204.313 285.683 215.576 301.659 215.576Z" fill="#FFB6B6"/>
<path d="M203.841 215.955C206.495 220.43 210.848 223.968 216.161 225.97C218.281 226.81 220.51 227.424 222.8 227.798C223.447 225.566 224.483 223.433 225.872 221.473C225.409 223.682 225.409 225.945 225.872 228.154C229.36 228.402 232.87 228.023 236.183 227.041C239.436 226.078 242.387 224.47 244.801 222.343C247.215 220.217 249.026 217.63 250.09 214.788C252.394 208.12 249.912 200.998 249.717 194.038C249.515 187.077 253.316 178.752 261.262 177.891C267.314 177.234 266.565 177.744 270.914 181.461C264.831 187.337 279.659 213.36 287.615 212.21C292.114 211.56 295.424 208.455 296.314 208.562C300.869 218.265 287.165 232.025 298.034 236.542L297.228 235.614C291.539 227.441 308.373 213.636 302.684 205.463C301.098 203.176 299.448 200.496 300.43 197.966C301.361 195.561 306.078 194.8 307.073 196.989C305.455 191.972 309.971 186.084 315.97 185.572C321.298 185.115 320.991 186.436 326.071 187.641C326.721 185.737 327.656 183.917 328.854 182.227C328.448 184.155 328.398 186.127 328.706 188.069C330.538 188.259 332.392 187.918 333.978 187.099C338.67 184.653 338.81 178.339 335.587 174.496C332.358 170.653 326.95 168.755 321.732 167.319C321.684 157.723 291.992 153.13 286.531 162.051C285.969 154.827 276.447 149.961 268.244 151.188C260.042 152.416 253.57 158.135 249.625 164.511C245.68 170.881 243.722 178.014 240.834 184.799C237.947 191.585 233.819 198.351 226.904 202.377C219.99 206.397 209.715 206.763 203.942 201.551C202.625 203.776 201.93 206.24 201.912 208.743C201.895 211.245 202.556 213.716 203.841 215.955Z" fill="#2F2E41"/>
<path d="M233.523 330.99C234.121 330.574 234.77 330.217 235.459 329.924C246.531 325.132 280.963 312.693 307.886 313.203C359.687 314.185 425.612 363.902 410.269 397.288C398.595 422.692 340.554 437.145 298.186 425.586C238.832 409.391 215.404 343.553 233.523 330.99Z" fill="#3F3D56"/>
<path d="M18.4713 514.008C1.54449 511.231 -13.4388 444.915 19.8642 412.255C31.2743 401.065 45.5069 396.194 64.4388 391.662C173.405 365.574 256.515 390.437 267.684 396.507C278.828 402.564 298.364 493.822 273.382 506.74C259.326 514.008 231.467 517.642 217.664 509.162C197.353 496.686 231.445 464.322 216.271 442.538C199.052 417.818 108.379 409.491 62.9196 434.059C14.4193 460.27 114.459 529.755 18.4713 514.008Z" fill="#F2F2F2"/>
<path d="M131.641 401.257H66.975C51.0116 387.953 39.5977 375.131 48.7358 364.488C48.7358 361.428 50.1333 358.494 52.621 356.331C55.1086 354.167 58.4826 352.952 62.0007 352.952H136.616C140.134 352.952 143.508 354.167 145.995 356.331C148.483 358.494 149.881 361.428 149.881 364.488C153.36 376.615 147.144 388.873 131.641 401.257Z" fill="#CCCCCC"/>
<path d="M120.028 338.43C119.414 338.455 118.807 338.314 118.288 338.029C117.769 337.743 117.364 337.326 117.127 336.833C116.89 336.34 116.833 335.796 116.963 335.274C117.094 334.752 117.406 334.277 117.857 333.915L118.062 333.205C118.035 333.148 118.008 333.092 117.981 333.035C117.362 331.765 116.327 330.683 115.003 329.923C113.68 329.164 112.128 328.762 110.543 328.767C108.957 328.772 107.409 329.184 106.092 329.952C104.775 330.72 103.749 331.809 103.142 333.083C100.715 338.166 97.6247 343.258 96.8639 348.633C96.5288 351.008 96.6702 353.417 97.2817 355.75C91.5814 344.937 88.6214 333.184 88.6024 321.289C88.6012 318.304 88.7919 315.321 89.1736 312.355C89.4891 309.923 89.9268 307.508 90.4866 305.111C93.5419 292.103 100.102 279.912 109.627 269.537C114.237 267.35 117.966 263.986 120.31 259.899C121.159 258.429 121.759 256.861 122.092 255.242C121.572 255.302 120.131 248.414 120.523 247.991C119.798 247.035 118.501 246.559 117.71 245.626C113.773 240.985 108.349 241.795 105.518 248.103C99.469 250.757 99.4104 255.16 103.122 259.394C105.483 262.088 105.808 265.734 107.879 268.618C107.666 268.855 107.444 269.085 107.231 269.322C103.335 273.679 99.939 278.358 97.0922 283.291C97.7845 277.764 96.9582 272.174 94.6813 266.979C92.3737 262.138 88.0483 258.061 84.2394 253.876C79.6642 248.849 70.2823 251.043 69.4763 257.415C69.4685 257.477 69.4608 257.539 69.4534 257.6C70.0192 257.878 70.573 258.172 71.1149 258.484C71.7956 258.879 72.3231 259.445 72.6282 260.105C72.9333 260.766 73.0018 261.491 72.8247 262.186C72.6476 262.882 72.2332 263.514 71.6358 264.001C71.0383 264.487 70.2857 264.806 69.4766 264.914L69.3938 264.925C69.5953 266.699 69.9516 268.456 70.4595 270.182C65.5731 286.616 76.1225 292.601 91.1857 292.87C91.5183 293.018 91.8423 293.166 92.1748 293.307C89.3146 300.356 87.5205 307.698 86.8376 315.15C86.451 319.546 86.4738 323.962 86.9058 328.354L86.8802 328.199C85.7888 323.314 82.7924 318.907 78.397 315.721C71.8687 311.057 62.6454 309.34 55.6026 305.591C54.8541 305.173 53.9837 304.95 53.0943 304.948C52.2048 304.946 51.3333 305.166 50.5825 305.58C49.8316 305.995 49.2328 306.588 48.8567 307.289C48.4806 307.99 48.3428 308.77 48.4596 309.537C48.4691 309.591 48.4787 309.646 48.4885 309.7C49.5383 310.072 50.5606 310.5 51.5492 310.983C52.1149 311.26 52.6688 311.555 53.2106 311.867C53.8913 312.262 54.4188 312.827 54.7239 313.488C55.029 314.149 55.0975 314.874 54.9204 315.569C54.7433 316.264 54.3289 316.897 53.7315 317.383C53.1341 317.87 52.3815 318.189 51.5724 318.297L51.4895 318.308C51.4298 318.316 51.3786 318.323 51.319 318.331C53.1129 322.055 55.6307 325.484 58.762 328.466C61.8174 342.811 74.9403 344.172 88.9775 339.995H88.9861C90.5263 345.815 92.7578 351.48 95.6448 356.899H119.432C119.517 356.67 119.594 356.432 119.671 356.202C117.469 356.323 115.258 356.208 113.089 355.861C114.853 353.978 116.618 352.08 118.383 350.197C118.423 350.162 118.46 350.125 118.494 350.086C119.389 349.122 120.293 348.165 121.188 347.202L121.189 347.2C121.236 344.246 120.846 341.298 120.028 338.43Z" fill="#CCCCCC"/>
<path d="M201.161 398.244C201.555 399.243 202.304 400.107 203.298 400.713C204.293 401.319 205.483 401.635 206.698 401.616L230.421 401.085C231.644 401.065 232.826 400.7 233.792 400.047C234.757 399.393 235.453 398.485 235.776 397.459L239.133 366.242C240.324 366.711 241.621 366.943 242.928 366.92C245.222 366.87 247.399 366.029 248.98 364.583C250.562 363.137 251.418 361.205 251.36 359.21C251.302 357.215 250.336 355.322 248.673 353.947C247.011 352.572 244.788 351.827 242.494 351.877C241.972 351.876 241.45 351.923 240.939 352.018C240.384 351.495 239.708 351.079 238.957 350.797C238.205 350.515 237.393 350.373 236.575 350.38L200.083 351.2C199.781 351.209 199.48 351.242 199.183 351.297C198.383 351.427 197.624 351.704 196.957 352.11C196.291 352.516 195.732 353.042 195.318 353.652C194.905 354.262 194.646 354.941 194.56 355.645C194.474 356.349 194.563 357.061 194.819 357.733L201.161 398.244ZM239.822 364.122L242.211 356.683C242.482 355.824 242.489 354.917 242.229 354.055C242.345 354.055 242.447 354.007 242.563 354.007C244.201 353.978 245.785 354.514 246.968 355.499C248.152 356.484 248.838 357.837 248.876 359.261C248.914 360.685 248.302 362.065 247.173 363.097C246.044 364.129 244.49 364.729 242.853 364.767C241.794 364.796 240.746 364.573 239.822 364.122Z" fill="#CCCCCC"/>
<path d="M199.183 351.297C199.961 355.163 208.701 357.88 219.212 357.408C228.876 357.021 236.779 354.069 238.226 350.572C237.691 350.434 237.133 350.369 236.575 350.38L200.083 351.2C199.781 351.209 199.48 351.242 199.183 351.297Z" fill="white"/>
<path d="M373.63 268.55C371.458 268.619 369.402 269.423 367.9 270.79C366.398 272.157 365.569 273.979 365.589 275.87C365.6 276.254 365.647 276.637 365.731 277.014L340.657 289.887L343.692 303.25L375.848 282.386C377.62 281.963 379.182 281.042 380.29 279.766C381.397 278.49 381.988 276.931 381.969 275.333C381.948 274.423 381.722 273.526 381.303 272.693C380.884 271.86 380.28 271.106 379.526 270.476C378.772 269.845 377.882 269.35 376.908 269.019C375.934 268.687 374.895 268.526 373.849 268.544C373.776 268.545 373.703 268.547 373.63 268.55Z" fill="#FFB6B6"/>
<path d="M353.09 299.239C352.42 298.458 352.131 298.13 351.979 298.22C351.586 298.426 351.964 301.187 349.203 305.999C345.315 312.758 304.554 323.111 304.554 323.111L277.461 280.01L269.853 251.866C269.586 250.885 269.457 249.88 269.468 248.871C276.251 244.72 283.456 241.114 290.991 238.097C294.002 239.583 296.298 241.961 297.458 244.797L318.716 296.641C318.716 296.641 329.412 289.99 333.292 291.211C337.166 292.439 338.266 290.717 335.734 285.203C333.202 279.688 337.003 285.364 341.426 285.725C345.857 286.091 341.426 285.725 343.519 283.385C345.612 281.045 359.145 279.729 359.145 279.729L359.433 280.251L364.677 289.633L366.178 292.328C366.178 292.328 360.619 297.574 359.277 298.619C357.929 299.673 357.513 299.6 358.173 300.799C358.824 301.994 355.42 301.939 353.09 299.239Z" fill="#1891AC"/>
<g clip-path="url(#clip0_907_614)">
<path d="M405.951 230.174C407.576 230.652 408.65 231.849 408.06 233.916L404.668 245.423C404.63 245.551 404.568 245.673 404.486 245.773C404.355 245.932 404.183 246.029 404.003 246.042C403.829 246.057 403.664 245.976 403.552 245.827L400.391 242.229L395.776 243.54C395.669 243.574 395.555 243.582 395.453 243.552C395.117 243.453 394.95 243.025 395.075 242.601L398.467 231.094C399.075 229.033 400.633 228.61 402.252 229.086L405.951 230.174ZM405.009 234.872L400.495 233.544C400.237 233.468 399.949 233.672 399.85 234.005C399.752 234.338 399.884 234.666 400.141 234.742L404.656 236.07C404.914 236.146 405.202 235.941 405.3 235.608C405.399 235.275 405.267 234.948 405.009 234.872Z" fill="#1891AC"/>
</g>
<defs>
<clipPath id="clip0_907_614">
<rect width="14.9987" height="18.966" fill="white" transform="matrix(0.959354 0.282206 -0.282762 0.95919 397.363 226)"/>
</clipPath>
</defs>
</svg>
