<svg width="830" height="699" viewBox="0 0 830 699" fill="none" xmlns="http://www.w3.org/2000/svg">
<path d="M816.997 496H12.9971V7H816.997V496Z" fill="white"/>
<path d="M829.997 496H12.9971V0H829.997V496ZM25.0681 488.672H817.926V7.32837H25.0681V488.672Z" fill="#E5E5E5"/>
<path d="M531 127H279V136H531V127Z" fill="#1F5F8B"/>
<path d="M768 151H279V160H768V151Z" fill="#E5E5E5"/>
<path d="M768 174H279V184H768V174Z" fill="#E5E5E5"/>
<path d="M531 332H279V341H531V332Z" fill="#E5E5E5"/>
<path d="M768 356H279V365H768V356Z" fill="#E5E5E5"/>
<path d="M768 380H279V389H768V380Z" fill="#E5E5E5"/>
<path d="M229.055 51.3559C208.424 33.9472 183.178 22.9103 156.389 19.5883C129.599 16.2662 102.422 20.8022 78.1636 32.6444C53.9054 44.4865 33.612 63.1241 19.7531 86.2894C5.89407 109.455 -0.933026 136.149 0.10253 163.123C1.13809 190.098 9.99163 216.19 25.5858 238.225C41.18 260.259 62.8426 277.286 87.9374 287.234C113.032 297.181 140.477 299.62 166.933 294.254C193.389 288.888 217.714 275.948 236.95 257.009L407.759 401.137C410.359 403.322 413.72 404.388 417.105 404.099C420.489 403.811 423.622 402.192 425.815 399.598C428.008 397.004 429.083 393.646 428.804 390.261C428.526 386.875 426.916 383.739 424.328 381.538L253.5 237.394C273.343 208.916 281.836 174.054 277.314 139.64C272.792 105.226 255.581 73.7415 229.055 51.3559ZM218.044 223.516C204.737 239.286 187.052 250.756 167.227 256.475C147.401 262.195 126.325 261.907 106.663 255.648C87.0006 249.389 69.6361 237.441 56.765 221.313C43.8939 205.185 36.0942 185.603 34.3523 165.042C32.6104 144.482 37.0046 123.867 46.9791 105.803C56.9536 87.7402 72.0604 73.0404 90.3893 63.563C108.718 54.0855 129.446 50.256 149.951 52.5588C170.456 54.8615 189.818 63.1931 205.588 76.4999C226.736 94.3437 239.928 119.857 242.264 147.428C244.6 174.999 235.887 202.368 218.044 223.516Z" fill="#3F3D56"/>
<path d="M71.0279 235.971C51.0137 219.081 38.0829 195.283 34.8032 169.301C31.5235 143.318 38.1348 117.053 53.3243 95.7196C51.3296 97.7285 49.4012 99.8324 47.5391 102.031C38.7037 112.502 32.0173 124.611 27.8615 137.666C23.7058 150.721 22.1621 164.467 23.3187 178.119C24.4753 191.771 28.3094 205.061 34.6022 217.231C40.895 229.401 49.5232 240.212 59.9942 249.047C70.4652 257.883 82.5739 264.569 95.629 268.725C108.684 272.881 122.43 274.424 136.082 273.268C149.733 272.111 163.023 268.277 175.193 261.984C187.363 255.691 198.175 247.063 207.01 236.592C208.868 234.39 210.617 232.136 212.258 229.828C193.785 248.39 169.006 259.325 142.842 260.463C116.679 261.602 91.0438 252.859 71.0279 235.971Z" fill="#2C2B3C"/>
<path d="M573.406 406.525C574.74 404.896 575.701 402.994 576.221 400.954C576.741 398.913 576.807 396.784 576.414 394.715C576.022 392.646 575.181 390.689 573.951 388.98C572.72 387.272 571.13 385.854 569.292 384.826L538.157 257.391L515.445 264.642L549.064 391.207C547.543 394.409 547.249 398.058 548.238 401.462C549.227 404.866 551.431 407.79 554.431 409.678C557.432 411.566 561.021 412.288 564.518 411.707C568.015 411.126 571.177 409.282 573.406 406.525Z" fill="#FFB6B6"/>
<path d="M557.313 325.011L517.494 359.349L507.237 306.873L506.165 301.416L505.32 297.085L528.85 256.099L548.465 257.224L549.805 257.305L549.832 257.601L550.141 260.349L554.163 296.521L554.257 297.394L557.313 325.011Z" fill="#1891AC"/>
<path d="M448.823 681.209L432.387 681.208L424.566 617.808L448.827 617.809L448.823 681.209Z" fill="#FFB6B6"/>
<path d="M453.016 697.142L400.016 697.14V696.47C400.016 690.999 402.19 685.752 406.058 681.883C409.927 678.015 415.174 675.841 420.645 675.841L453.017 675.842L453.016 697.142Z" fill="#2F2E41"/>
<path d="M620.436 682.55L604 682.549L596.18 619.149L620.44 619.15L620.436 682.55Z" fill="#FFB6B6"/>
<path d="M624.629 698.483L571.629 698.481V697.811C571.629 692.34 573.803 687.093 577.672 683.224C581.54 679.356 586.787 677.182 592.258 677.182L624.63 677.183L624.629 698.483Z" fill="#2F2E41"/>
<path d="M633.574 657.312L589.33 664.015L524.962 446.174L456.598 665.356L406.991 658.652L471.346 403.914V383.803L480.061 353.637L469.881 262.007C469.731 260.665 470.087 259.315 470.878 258.22C471.67 257.126 472.84 256.365 474.162 256.086L494.809 251.742H528.555L548.465 257.225L549.832 257.601L550.449 257.775L550.141 260.349L545.475 299.472L539.723 347.604C578.604 375.759 579.945 403.914 579.945 403.914L633.574 657.312Z" fill="#2F2E41"/>
<path d="M507.604 234.779C525.79 234.779 540.533 220.036 540.533 201.85C540.533 183.663 525.79 168.92 507.604 168.92C489.417 168.92 474.674 183.663 474.674 201.85C474.674 220.036 489.417 234.779 507.604 234.779Z" fill="#FFB6B6"/>
<path d="M542.19 340.037L477.049 348.555L478.266 357.861L543.407 349.343L542.19 340.037Z" fill="#3F3D56"/>
<path d="M389.672 351.361C390.295 351.764 390.885 352.215 391.437 352.711L455.868 336.286L460.263 320.743L484.588 324.31L479.481 352.583C479.068 354.867 477.926 356.956 476.225 358.535C474.525 360.115 472.357 361.1 470.049 361.343L394.819 369.266C393.593 371.847 391.61 373.994 389.134 375.422C386.658 376.849 383.806 377.488 380.957 377.255C378.109 377.021 375.399 375.926 373.188 374.115C370.977 372.304 369.37 369.863 368.581 367.116C367.791 364.369 367.856 361.447 368.768 358.739C369.679 356.03 371.394 353.663 373.684 351.953C375.973 350.242 378.73 349.27 381.586 349.164C384.442 349.058 387.262 349.824 389.672 351.361Z" fill="#FFB6B6"/>
<path d="M488.776 264.478L477.379 255.764C474.298 254.595 470.076 257.915 469.335 261.126L453.246 326.822L486.765 350.955L491.457 343.581L488.776 264.478Z" fill="#1891AC"/>
<path d="M554.163 296.522C551.318 297.651 548.419 298.636 545.475 299.472C544.536 299.753 543.571 300.021 542.619 300.276C536.344 302.017 529.896 303.06 523.393 303.386C520.593 303.505 517.789 303.429 515 303.159C512.006 302.86 509.048 302.277 506.165 301.416C506.07 301.389 505.963 301.362 505.87 301.335C499.875 299.633 494.379 296.51 489.848 292.232C488.835 291.246 487.89 290.193 487.019 289.081C484.515 286.015 482.679 282.46 481.626 278.644C480.573 274.828 480.328 270.835 480.905 266.919C481.017 266.209 481.17 265.506 481.361 264.814C481.866 262.927 482.535 261.088 483.359 259.317C483.721 258.485 484.123 257.668 484.552 256.863L499.702 251.742H528.555L548.465 257.225L549.805 257.306L549.832 257.601L550.449 257.775L550.141 260.349L554.163 296.522Z" fill="#13748A"/>
<path d="M545.475 299.472L546 295L550.141 260.349L550.449 257.775L549.832 257.601L549.805 257.306L548.465 257.225L528.555 251.742H499.702L484.552 256.863C484.123 257.668 483.721 258.485 483.359 259.317C482.535 261.088 494.505 263.113 494 265C493.808 265.692 491.612 265.79 491.5 266.5C490.923 270.416 489.848 278.5 489.848 278.5L489.848 292.232C494.379 296.51 499.875 299.633 505.87 301.335C505.963 301.362 506.07 301.389 506.165 301.416C509.048 302.277 512.006 302.86 515 303.159C517.789 303.429 520.593 303.505 523.393 303.386C529.896 303.06 536.344 302.017 542.619 300.276C543.571 300.021 544.536 299.753 545.475 299.472Z" fill="#262534"/>
<path d="M482.371 174.587C476.212 173.832 469.454 174.366 464.654 178.298C459.854 182.229 458.305 190.401 462.85 194.625C466.873 198.365 473.164 197.485 478.553 198.549C483.196 199.589 487.355 202.157 490.365 205.841C493.375 209.525 495.062 214.113 495.156 218.87C495.076 232.51 481.985 242.84 479.633 256.277C478.029 265.447 481.896 275.099 488.583 281.576C495.269 288.054 504.461 291.555 513.723 292.503C522.984 293.451 532.349 292.003 541.349 289.623C550.387 287.234 559.285 283.844 566.869 278.377C574.453 272.911 580.669 265.204 583.104 256.178C585.539 247.152 583.791 236.803 577.516 229.873C570.331 221.937 558.378 219.208 552.163 210.492C545.196 200.721 547.775 186.806 542.136 176.213C538.371 169.141 531.243 164.317 523.645 161.775C516.046 159.234 507.933 158.733 499.924 158.486C495.715 158.357 491.377 158.314 487.455 159.849C483.533 161.383 480.086 164.881 479.883 169.087C479.679 173.293 482.371 174.587 482.371 174.587Z" fill="#2F2E41"/>
<path d="M216.999 210.801C189.977 198.128 165.53 198.61 142.502 206.345C107.022 199.488 82.7269 200.549 67.1428 210.801V178.971H216.999V210.801Z" fill="#1C567D"/>
<path d="M217 202.048C192.105 189.566 167.24 188.76 142 202.048C116.148 193.811 91.157 193.898 67 202.048V105.286C92.6838 96.8035 117.667 97.0073 142 105.286C167.703 97.0359 192.726 96.7742 217 105.286V202.048Z" fill="#E5E5E5"/>
<path d="M73.748 117.295L72.9105 114.924C73.2388 114.782 81.0815 111.426 92.5913 109.715C103.233 108.132 119.087 107.755 134.187 114.94L133.278 117.279C118.683 110.334 103.297 110.7 92.9604 112.229C81.7092 113.894 73.8263 117.261 73.748 117.295Z" fill="#256998"/>
<path d="M73.748 126.207L72.9105 123.835C73.2388 123.693 81.0815 120.338 92.5913 118.626C103.233 117.044 119.087 116.666 134.187 123.851L133.278 126.19C118.683 119.246 103.297 119.611 92.9604 121.141C81.7092 122.806 73.8263 126.173 73.748 126.207Z" fill="#256998"/>
<path d="M73.748 135.119L72.9105 132.747C73.2388 132.605 81.0815 129.25 92.5913 127.538C103.233 125.956 119.087 125.578 134.187 132.763L133.278 135.102C118.683 128.158 103.297 128.523 92.9604 130.053C81.7092 131.718 73.8263 135.085 73.748 135.119Z" fill="#256998"/>
<path d="M73.748 144.031L72.9105 141.659C73.2388 141.517 81.0815 138.162 92.5913 136.45C103.233 134.868 119.087 134.49 134.187 141.675L133.278 144.014C118.683 137.07 103.297 137.435 92.9604 138.965C81.7092 140.63 73.8263 143.997 73.748 144.031Z" fill="#256998"/>
<path d="M73.748 152.944L72.9105 150.572C73.2388 150.431 81.0815 147.075 92.5913 145.364C103.233 143.781 119.087 143.403 134.187 150.589L133.278 152.928C118.683 145.983 103.297 146.349 92.9604 147.878C81.7092 149.543 73.8263 152.91 73.748 152.944Z" fill="#256998"/>
<path d="M73.748 161.857L72.9105 159.485C73.2388 159.343 81.0815 155.988 92.5913 154.276C103.233 152.694 119.087 152.316 134.187 159.501L133.278 161.84C118.683 154.895 103.297 155.261 92.9604 156.791C81.7092 158.456 73.8263 161.823 73.748 161.857Z" fill="#256998"/>
<path d="M148.819 180.636L147.982 178.264C148.31 178.122 156.153 174.767 167.663 173.056C178.304 171.473 194.158 171.095 209.258 178.28L208.349 180.62C193.754 173.675 178.369 174.041 168.032 175.57C156.78 177.235 148.898 180.602 148.819 180.636Z" fill="#256998"/>
<path d="M148.112 163.531V114.854L148.919 114.575C169.382 107.501 189.746 107.502 209.445 114.579L210.24 114.864V163.466L208.683 162.815C188.184 154.254 168.34 154.249 149.703 162.8L148.112 163.531ZM178.475 153.838C188.106 153.838 197.928 155.825 207.939 159.799V116.719C189.21 110.183 169.863 110.187 150.413 116.73V159.739C159.35 155.843 168.869 153.841 178.475 153.838Z" fill="#256998"/>
<path d="M142.288 105.287H141.713V201.743H142.288V105.287Z" fill="#CBCBCB"/>
<path d="M216.999 419.801C189.977 407.129 165.53 407.61 142.503 415.345C107.023 408.488 82.7272 409.549 67.1431 419.801V387.972H216.999V419.801Z" fill="#CBCBCB"/>
<path d="M217 411.048C192.105 398.566 167.24 397.76 142 411.048C116.148 402.811 91.157 402.898 67 411.048V314.286C92.6838 305.803 117.667 306.007 142 314.286C167.703 306.036 192.726 305.774 217 314.286V411.048Z" fill="#E5E5E5"/>
<path d="M73.7475 326.295L72.9101 323.923C73.2383 323.781 81.081 320.426 92.5909 318.715C103.232 317.132 119.086 316.754 134.186 323.939L133.277 326.279C118.682 319.334 103.297 319.7 92.96 321.229C81.7087 322.894 73.8258 326.261 73.7475 326.295Z" fill="#CBCBCB"/>
<path d="M73.7475 335.206L72.9101 332.835C73.2383 332.693 81.081 329.338 92.5909 327.626C103.232 326.044 119.086 325.666 134.186 332.851L133.277 335.19C118.682 328.245 103.297 328.611 92.96 330.14C81.7087 331.805 73.8258 335.173 73.7475 335.206Z" fill="#CBCBCB"/>
<path d="M73.7475 344.119L72.9101 341.747C73.2383 341.605 81.081 338.25 92.5909 336.539C103.232 334.956 119.086 334.578 134.186 341.763L133.277 344.103C118.682 337.158 103.297 337.523 92.96 339.053C81.7087 340.718 73.8258 344.085 73.7475 344.119Z" fill="#CBCBCB"/>
<path d="M73.7475 353.031L72.9101 350.659C73.2383 350.517 81.081 347.162 92.5909 345.45C103.232 343.868 119.086 343.49 134.186 350.675L133.277 353.014C118.682 346.07 103.297 346.435 92.96 347.965C81.7087 349.63 73.8258 352.997 73.7475 353.031Z" fill="#CBCBCB"/>
<path d="M73.7475 361.944L72.9101 359.572C73.2383 359.43 81.081 356.075 92.5909 354.364C103.232 352.781 119.086 352.403 134.186 359.588L133.277 361.928C118.682 354.983 103.297 355.348 92.96 356.878C81.7087 358.543 73.8258 361.91 73.7475 361.944Z" fill="#CBCBCB"/>
<path d="M73.7475 370.856L72.9101 368.485C73.2383 368.343 81.081 364.988 92.5909 363.276C103.232 361.694 119.086 361.316 134.186 368.501L133.277 370.84C118.682 363.895 103.297 364.261 92.96 365.79C81.7087 367.455 73.8258 370.823 73.7475 370.856Z" fill="#CBCBCB"/>
<path d="M148.819 389.636L147.981 387.264C148.31 387.122 156.152 383.767 167.662 382.056C178.303 380.473 194.158 380.095 209.257 387.28L208.348 389.62C193.753 382.675 178.368 383.041 168.031 384.57C156.78 386.235 148.897 389.602 148.819 389.636Z" fill="#CBCBCB"/>
<path d="M148.112 372.531V323.854L148.919 323.575C169.382 316.501 189.746 316.503 209.445 323.579L210.24 323.864V372.466L208.684 371.816C188.184 363.254 168.34 363.249 149.703 371.801L148.112 372.531ZM178.475 362.839C188.107 362.839 197.928 364.825 207.939 368.799V325.719C189.21 319.183 169.863 319.187 150.413 325.73V368.74C159.35 364.843 168.87 362.841 178.475 362.839Z" fill="#CBCBCB"/>
<path d="M142.288 314.287H141.713V410.742H142.288V314.287Z" fill="#CBCBCB"/>
</svg>
