<svg width="1036" height="594" viewBox="0 0 1036 594" fill="none" xmlns="http://www.w3.org/2000/svg">
<path d="M928.265 57.5165C928.265 57.5165 905.307 60.1046 903.823 95.6566C902.585 125.285 900.064 141.795 912.123 147.975C916.429 150.184 921.494 150.374 926.101 148.868L975.296 132.692C975.296 132.692 976.032 79.3698 958.998 66.4073C941.964 53.4449 928.265 57.5165 928.265 57.5165Z" fill="#36344E"/>
<path d="M955.383 139.229L930.485 147.417V111.575H953.074L955.383 139.229Z" fill="#FAAFB2"/>
<path d="M879.271 342.68C877.921 350.89 872.444 356.781 867.045 355.832C861.634 354.884 858.355 347.455 859.705 339.244C860.195 335.954 861.501 332.841 863.497 330.175L869.666 295.46L886.455 298.974L878.59 332.819C879.628 336.02 879.862 339.401 879.271 342.68Z" fill="#FAAFB2"/>
<path d="M936.274 573.517H912.959L899.427 448.912H935.481L936.274 573.517Z" fill="#FAAFB2"/>
<path d="M890.248 593.54C887.794 593.54 885.607 593.485 883.968 593.328C877.776 592.76 871.864 588.186 868.897 585.52C867.569 584.326 867.134 582.407 867.826 580.756C868.328 579.574 869.321 578.693 870.559 578.336L886.924 573.662L913.429 555.78L913.73 556.315C913.841 556.516 916.441 561.201 917.311 564.369C917.645 565.574 917.556 566.578 917.054 567.359C916.708 567.894 916.218 568.207 915.827 568.385C916.307 568.887 917.813 569.902 922.442 570.638C929.213 571.709 930.619 564.704 930.686 564.414L930.731 564.18L930.931 564.046C934.144 561.971 936.13 561.034 936.81 561.235C937.234 561.357 937.948 561.58 939.867 580.656C940.056 581.258 941.406 585.642 940.491 589.848C939.499 594.422 919.542 592.849 915.548 592.481C915.437 592.492 900.5 593.551 890.259 593.551H890.248V593.54Z" fill="#36344E"/>
<path d="M988.961 573.517H965.635L952.115 448.912H988.158L988.961 573.517Z" fill="#FAAFB2"/>
<path d="M942.934 593.54C940.48 593.54 938.293 593.485 936.653 593.328C930.462 592.76 924.55 588.186 921.583 585.52C920.255 584.326 919.82 582.407 920.512 580.756C921.014 579.574 922.006 578.693 923.245 578.336L939.609 573.662L966.115 555.78L966.416 556.315C966.527 556.516 969.126 561.201 969.997 564.369C970.331 565.574 970.242 566.578 969.74 567.359C969.394 567.894 968.903 568.207 968.513 568.385C968.993 568.887 970.499 569.902 975.128 570.638C981.899 571.709 983.305 564.704 983.372 564.414L983.416 564.18L983.617 564.046C986.841 561.971 988.816 561.034 989.496 561.235C989.92 561.357 990.634 561.58 992.553 580.656C992.742 581.258 994.092 585.642 993.177 589.848C992.185 594.422 972.228 592.849 968.234 592.481C968.122 592.492 953.185 593.551 942.945 593.551H942.934V593.54Z" fill="#36344E"/>
<path d="M930.216 133.44C930.216 133.44 902.072 132.704 899.115 140.111C896.159 147.518 861.344 323.783 861.344 323.783H884.301L930.216 133.451V133.44Z" fill="#1891AC"/>
<path d="M995.665 267.471H882.361L923.089 133.428H968.268L995.665 267.471Z" fill="#1891AC"/>
<path d="M933.563 121.491C947.265 121.491 958.372 110.384 958.372 96.6823C958.372 82.9807 947.265 71.8734 933.563 71.8734C919.862 71.8734 908.754 82.9807 908.754 96.6823C908.754 110.384 919.862 121.491 933.563 121.491Z" fill="#FAAFB2"/>
<path d="M926.782 66.7755C926.782 66.7755 913.128 122.217 928.31 148.131L906.925 143.591C906.925 143.591 898.637 82.9172 915.303 71.8846L926.782 66.7755Z" fill="#36344E"/>
<path d="M972.117 267.471H897.755L857.072 434.455C856.325 441.505 860.798 448.087 867.647 449.927C889.969 455.907 943.537 464.374 1024.6 440.78C1032.4 438.515 1036.83 430.283 1034.39 422.53L972.117 267.471Z" fill="#36344E"/>
<path d="M942.053 133.428L965.178 132.413C975.196 133.172 984.254 138.616 989.62 147.105C1005.96 172.941 1036.54 227.39 1009.24 234.853C973.255 244.681 955.819 189.964 955.819 189.964L942.053 133.428Z" fill="#1891AC"/>
<path d="M934.121 149.649C929.369 142.822 929.201 134.779 933.73 131.689C938.27 128.598 945.8 131.644 950.552 138.471C952.494 141.171 953.721 144.316 954.144 147.618L973.901 176.823L959.41 186.004L941.472 156.241C938.494 154.668 935.973 152.404 934.121 149.649Z" fill="#FAAFB2"/>
<path d="M945.812 173.264L962.132 158.249L994.404 188.29L964.397 208.804L945.812 173.264Z" fill="#1891AC"/>
<path d="M40.0116 141H606.988C629.087 141 647 157.341 647 177.5C647 197.659 629.087 214 606.988 214H40.0116C17.9132 214 0 197.659 0 177.5C0 157.341 17.9132 141 40.0116 141Z" fill="#1F5F8B"/>
<path d="M524.091 105H641.909C644.726 105 647 107.015 647 109.5C647 111.985 644.726 114 641.909 114H524.091C521.274 114 519 111.985 519 109.5C519 107.015 521.274 105 524.091 105Z" fill="#1891AC"/>
<path d="M4.59599 0H110.962C113.505 0 115.558 2.05258 115.558 4.58484C115.558 7.1171 113.505 9.16968 110.962 9.16968H4.59599C2.05258 9.18083 0 7.12825 0 4.58484C0 2.05258 2.05258 0 4.59599 0Z" fill="#1891AC"/>
<path d="M4.59599 40.0587H316.8C319.343 40.0587 321.396 42.1113 321.396 44.6547C321.396 47.187 319.343 49.2395 316.8 49.2395H4.59599C2.05258 49.2395 0 47.187 0 44.6547C0 42.1224 2.05258 40.0587 4.59599 40.0587Z" fill="#1891AC"/>
<path d="M304.844 295.809L304.49 295.455L304.137 295.809L293.499 306.446C292.886 307.059 292.148 307.363 291.253 307.363C290.358 307.363 289.619 307.059 289.006 306.446C288.393 305.833 288.089 305.094 288.089 304.199C288.089 303.305 288.393 302.566 289.006 301.953L299.643 291.315L299.997 290.962L299.643 290.608L289.006 279.971C288.393 279.358 288.089 278.619 288.089 277.724C288.089 276.829 288.393 276.091 289.006 275.478C289.619 274.865 290.358 274.56 291.253 274.56C292.148 274.56 292.886 274.865 293.499 275.478L304.137 286.115L304.49 286.469L304.844 286.115L315.481 275.478C316.094 274.865 316.833 274.56 317.728 274.56C318.623 274.56 319.361 274.865 319.974 275.478C320.588 276.091 320.892 276.829 320.892 277.724C320.892 278.619 320.588 279.358 319.974 279.971L309.337 290.608L308.984 290.962L309.337 291.315L319.974 301.953C320.588 302.566 320.892 303.305 320.892 304.199C320.892 305.094 320.588 305.833 319.974 306.446C319.361 307.059 318.623 307.363 317.728 307.363C316.833 307.363 316.094 307.059 315.481 306.446L304.844 295.809Z" fill="#DE2A4C" stroke="#DE2A4C"/>
<path d="M260.778 291.02C260.778 315.071 280.277 334.571 304.328 334.571C311.613 334.571 318.473 332.786 324.497 329.629L366.698 396.561C369.286 400.655 374.807 401.681 378.69 398.781C382.315 396.07 383.096 390.961 380.452 387.279L334.035 322.857C342.546 314.904 347.879 303.581 347.879 291.02C347.879 266.969 328.379 247.47 304.328 247.47C280.277 247.47 260.778 266.969 260.778 291.02ZM266.757 291.02C266.757 270.271 283.579 253.438 304.339 253.438C325.099 253.438 341.922 270.26 341.922 291.02C341.922 311.769 325.099 328.602 304.339 328.602C283.59 328.602 266.757 311.78 266.757 291.02Z" fill="#484662"/>
</svg>
