<svg width="613" height="581" viewBox="0 0 613 581" fill="none" xmlns="http://www.w3.org/2000/svg">
<circle cx="305.887" cy="290.397" r="290.397" fill="#25355C"/>
<path d="M493.523 431.177C522.855 428.406 548.88 449.938 551.651 479.27C551.843 481.297 551.918 483.309 551.883 485.298L602.768 482.651C602.695 480.514 602.557 478.365 602.354 476.208C596.95 419.02 546.478 375.919 489.523 379.699L493.523 431.177Z" fill="#1891AC"/>
<path d="M145.355 154.391C145.355 146.107 152.07 139.391 160.355 139.391H495.18C503.464 139.391 510.18 146.107 510.18 154.391V185.854H145.355V154.391Z" fill="#253B6E"/>
<rect x="145.355" y="185.854" width="364.825" height="301.153" fill="#C1E6F8"/>
<circle cx="24.8919" cy="209.947" r="3.44175" fill="#D2ECF9"/>
<circle cx="24.8919" cy="228.876" r="3.44175" fill="#D2ECF9"/>
<circle cx="24.8919" cy="247.806" r="3.44175" fill="#D2ECF9"/>
<circle cx="24.8919" cy="266.735" r="3.44175" fill="#D2ECF9"/>
<circle cx="24.8919" cy="285.665" r="3.44175" fill="#D2ECF9"/>
<circle cx="24.8919" cy="304.595" r="3.44175" fill="#D2ECF9"/>
<ellipse cx="172.889" cy="162.622" rx="4.30218" ry="4.30219" fill="white"/>
<ellipse cx="190.957" cy="162.622" rx="4.30218" ry="4.30219" fill="white"/>
<ellipse cx="208.165" cy="162.622" rx="4.30218" ry="4.30219" fill="white"/>
<circle cx="61.0314" cy="203.063" r="6.88349" fill="#D9D9D9"/>
<circle cx="92.8671" cy="203.063" r="6.88349" fill="#D9D9D9"/>
<circle cx="123.842" cy="203.063" r="6.88349" fill="#D9D9D9"/>
<circle cx="61.0314" cy="231.458" r="6.88349" fill="#D9D9D9"/>
<circle cx="92.8671" cy="231.458" r="6.88349" fill="#D9D9D9"/>
<circle cx="123.842" cy="231.458" r="6.88349" fill="#D9D9D9"/>
<circle cx="61.0314" cy="259.852" r="6.88349" fill="#D9D9D9"/>
<circle cx="92.8671" cy="259.852" r="6.88349" fill="#D9D9D9"/>
<circle cx="123.842" cy="259.852" r="6.88349" fill="#D9D9D9"/>
<path d="M174.609 418.172C174.609 416.271 176.15 414.73 178.051 414.73H443.926C445.827 414.73 447.367 416.271 447.367 418.172V476.681C447.367 478.582 445.827 480.123 443.926 480.123H178.051C176.15 480.123 174.609 478.582 174.609 476.681V418.172Z" fill="white"/>
<path d="M255.06 451.299V423.334L436.182 429.357L434.461 458.182L255.06 451.299Z" fill="#C6DBFF"/>
<path d="M254.63 461.194H311.849L308.837 456.891H254.63V461.194Z" fill="#1891AC"/>
<path fill-rule="evenodd" clip-rule="evenodd" d="M186.655 426.776L185.795 468.938L250.758 470.658L252.479 429.357L186.655 426.776ZM193.109 452.589L195.26 450.868V453.45H197.411V450.868L199.132 452.589L199.562 451.299L200.852 450.868L196.55 443.985L191.818 450.868L193.109 451.299V452.589ZM239.142 442.264C239.142 446.066 236.06 449.147 232.258 449.147C228.457 449.147 225.375 446.066 225.375 442.264C225.375 438.462 228.457 435.38 232.258 435.38C236.06 435.38 239.142 438.462 239.142 442.264ZM212.899 461.194L215.05 459.473V462.054H217.201V459.473L218.922 461.194L219.352 459.903L220.642 459.473L216.34 452.589L211.608 459.473L212.899 459.903V461.194Z" fill="#C6DBFF"/>
<path d="M130.727 360.953C130.727 363.804 129.379 366.116 127.715 366.116C126.052 366.116 124.704 363.804 124.704 360.953C124.704 358.102 128.203 350.198 129.866 350.198C131.53 350.198 130.727 358.102 130.727 360.953Z" fill="#AD868E"/>
<path d="M79.5301 424.626L50.7055 368.267L39.0896 396.231L63.1818 433.23L79.5301 424.626Z" fill="#2B2A3C" stroke="#2B2A3C"/>
<path d="M3.31733 478.377L9.89588 479.723L18.294 454.624L13.439 453.631L10.695 455.88L7.36142 458.612L3.31733 478.377Z" fill="#FFC0CC"/>
<path d="M2.38244 488.911L27.0433 488.911L27.0964 488.652C27.5298 486.534 27.116 484.332 25.9458 482.532C24.7757 480.732 22.9452 479.481 20.8568 479.053L11.6254 475.713L4.14849 477.146L2.38244 476.784L2.38244 488.911Z" fill="#2F2E41"/>
<path d="M65.1335 489.072L89.7944 489.072L89.8475 488.812C90.2809 486.694 89.867 484.493 88.6969 482.693C87.5268 480.893 85.6962 479.641 83.6079 479.214L74.3765 475.873L66.8996 477.306L65.1335 476.944L65.1335 489.072Z" fill="#2F2E41"/>
<path d="M2.09033 472.81H12.8458L33.063 437.132C34.2071 435.113 35.0758 432.95 35.6458 430.701L42.6364 403.115L51.5654 381.604L23.171 366.546L17.7817 427.072C17.6466 428.59 17.3193 430.084 16.8078 431.519L2.09033 472.81Z" fill="#2F2E41"/>
<path d="M51.5654 381.604L23.171 366.546L17.7817 427.072C17.6466 428.59 17.3193 430.084 16.8078 431.519L2.09033 472.81H12.8458L33.063 437.132C34.2071 435.113 35.0758 432.95 35.6458 430.701L42.6364 403.115L51.5654 381.604ZM51.5654 381.604L55.4374 377.732" stroke="#2F2E41"/>
<path d="M110.526 326.99L109.17 320.749C109.17 320.749 103.609 318.44 103.445 318.403C103.282 318.366 82.6632 328.877 82.6632 328.877C82.6632 328.877 67.9132 352.779 70.0645 357.511C72.2158 362.244 70.0648 363.965 73.9367 366.976C77.8087 369.988 79.5293 366.976 79.5293 366.976L92.0057 350.295C92.0338 350.331 92.0349 350.916 92.0057 350.813C91.4587 348.901 102.283 336.966 104.724 336.431C107.172 335.892 109.348 330.627 109.348 330.627L110.531 326.994L110.526 326.99Z" fill="#2F2E43"/>
<path d="M79.1301 340.669C79.035 342.412 79.6105 344.097 80.4882 345.605L90.3982 362.639C91.9419 365.292 94.8675 366.828 97.9279 366.592L126.424 364.395L124.703 358.802L97.6551 356.652L91.0243 339.285C89.5714 335.48 85.6566 332.349 82.0647 334.269C81.6118 334.511 81.2055 334.799 80.8768 335.141C79.6239 336.445 79.2312 338.815 79.1301 340.669Z" fill="#ACACAC"/>
<ellipse cx="99.3199" cy="322.234" rx="10.7555" ry="10.7555" fill="#FFC0CC"/>
<path d="M82.5415 329.978L92.4365 325.675L94.5876 329.117L87.7041 334.28L82.5415 329.978Z" fill="#FFC0CC"/>
<path d="M131.587 362.244C131.587 365.095 130.238 367.407 128.575 367.407C126.912 367.407 125.563 365.095 125.563 362.244C125.563 359.393 129.063 351.489 130.726 351.489C132.389 351.489 131.587 359.393 131.587 362.244Z" fill="#FFC0CC"/>
<path d="M81.6812 326.106L88.9949 333.419C89.3154 344.56 88.2336 350.134 85.9505 353.323C83.4549 356.809 78.6265 357.272 74.568 358.655C62.3202 362.826 58.8705 371.684 52.0856 383.301C51.8028 383.785 51.1743 383.942 50.6981 383.646L21.0999 365.247C20.4695 364.855 20.4707 363.937 21.1021 363.547L81.6812 326.106Z" fill="#E6E6E6" stroke="#E6E6E6"/>
<path d="M74.6673 342.453C74.5925 344.159 75.2965 345.764 76.2609 347.174L88.9782 365.761C90.5867 368.112 93.3237 369.43 96.1645 369.222L126.854 366.976L125.133 361.384L96.3085 359.233L89.294 340.934C87.6284 336.589 82.965 333.781 78.6695 335.57C75.5136 336.885 74.7692 340.13 74.6673 342.453Z" fill="#C7C7C7"/>
<path d="M109.216 330.838L108.355 328.257C111.87 320.99 107.231 319.085 106.718 318.938C106.204 318.792 97.2005 319.855 93.1195 325.541C89.041 331.224 80.0227 327.957 80.0227 327.957C80.0227 327.957 73.8093 330.482 69.1007 340.512C64.389 350.54 57.5129 349.483 57.5129 349.483C49.137 341.194 65.0529 333.142 68.4002 332.057C71.7476 330.971 74.0886 326.167 74.0886 326.167C73.5006 322.354 79.7132 320.224 79.7132 320.224C79.7132 320.224 84.0518 314.094 86.3516 314.128C88.6515 314.162 91.0065 311.476 91.0065 311.476C102.202 302.981 108.415 311.597 108.415 311.597C119.465 318.935 110.628 327.849 110.352 328.483C110.076 329.117 109.216 330.838 109.216 330.838Z" fill="#2F2E43"/>
<path d="M92.0056 484.426C92.0056 454.963 115.89 431.078 145.353 431.078C147.389 431.078 149.399 431.193 151.376 431.415L153.527 380.506C151.392 380.378 149.24 380.313 147.074 380.313C89.6304 380.313 41.9739 426.507 40.3796 483.565L92.0056 484.426Z" fill="#1F5F8B"/>
<path fill-rule="evenodd" clip-rule="evenodd" d="M157.399 473.24C157.399 485.12 147.768 494.751 135.888 494.751C124.008 494.751 114.377 485.12 114.377 473.24C114.377 461.36 124.008 451.729 135.888 451.729C147.768 451.729 157.399 461.36 157.399 473.24ZM135.888 484.425C142.066 484.425 147.074 479.417 147.074 473.24C147.074 467.062 142.066 462.054 135.888 462.054C129.71 462.054 124.702 467.062 124.702 473.24C124.702 479.417 129.71 484.425 135.888 484.425Z" fill="#1891AC"/>
<path d="M112.52 458.185C111.493 457.192 111.48 455.569 112.49 454.56L117.631 449.424C118.641 448.415 120.292 448.402 121.319 449.395L126.894 454.789C127.921 455.783 127.934 457.406 126.924 458.415L121.783 463.551C120.772 464.56 119.122 464.573 118.095 463.58L112.52 458.185Z" fill="#1891AC"/>
<path d="M145.819 492.906C144.792 491.913 144.779 490.29 145.789 489.281L150.93 484.145C151.94 483.136 153.591 483.123 154.618 484.116L158.472 487.845C159.499 488.839 159.512 490.462 158.502 491.471L153.361 496.607C152.351 497.616 150.7 497.629 149.673 496.636L145.819 492.906Z" fill="#1891AC"/>
<path d="M150.607 450.819C151.642 449.835 153.292 449.861 154.294 450.879L159.391 456.057C160.392 457.074 160.365 458.697 159.33 459.682L155.444 463.379C154.409 464.364 152.758 464.337 151.757 463.32L146.66 458.141C145.659 457.124 145.686 455.501 146.72 454.517L150.607 450.819Z" fill="#1891AC"/>
<path d="M115.841 483.29C116.875 482.306 118.526 482.332 119.528 483.35L124.625 488.528C125.626 489.545 125.599 491.168 124.564 492.153L120.678 495.85C119.643 496.835 117.992 496.808 116.991 495.791L111.894 490.613C110.892 489.595 110.919 487.972 111.954 486.988L115.841 483.29Z" fill="#1891AC"/>
<path d="M114.619 466.156C116.059 466.14 117.24 467.274 117.256 468.69L117.339 475.895C117.356 477.311 116.201 478.472 114.761 478.488L109.354 478.548C107.914 478.564 106.733 477.43 106.717 476.014L106.633 468.808C106.617 467.393 107.771 466.232 109.211 466.216L114.619 466.156Z" fill="#1891AC"/>
<path d="M162.423 467.865C163.863 467.849 165.043 468.983 165.06 470.399L165.143 477.604C165.159 479.02 164.005 480.181 162.565 480.197L157.157 480.257C155.717 480.273 154.537 479.139 154.52 477.723L154.437 470.517C154.421 469.102 155.575 467.941 157.015 467.925L162.423 467.865Z" fill="#1891AC"/>
<path d="M142.688 452.156C142.645 453.571 141.443 454.684 140.003 454.641L132.677 454.425C131.238 454.383 130.106 453.202 130.149 451.786L130.311 446.472C130.354 445.057 131.556 443.944 132.995 443.986L140.322 444.202C141.761 444.244 142.893 445.426 142.85 446.841L142.688 452.156Z" fill="#1891AC"/>
<path d="M140.949 500.008C140.906 501.423 139.704 502.536 138.265 502.493L130.939 502.278C129.499 502.235 128.368 501.054 128.411 499.639L128.573 494.324C128.616 492.909 129.818 491.796 131.257 491.838L138.583 492.054C140.023 492.097 141.155 493.278 141.111 494.693L140.949 500.008Z" fill="#1891AC"/>
<path d="M129.866 325.245C129.866 323.344 131.407 321.803 133.308 321.803H260.653C262.553 321.803 264.094 323.344 264.094 325.245V397.522C264.094 399.423 262.553 400.964 260.653 400.964H133.308C131.407 400.964 129.866 399.423 129.866 397.522V325.245Z" fill="white"/>
<path d="M255.06 388.917H138.04C138.04 388.917 155.679 364.137 160.412 366.288C166.092 368.87 169.093 373.469 177.354 376.871C178.374 377.291 179.479 377.486 180.581 377.437C190.222 377.009 195.218 372.805 202.143 366.288C210.371 358.544 210.747 354.268 215.049 353.408C219.352 352.548 225.805 375.634 232.688 373.026C239.572 370.418 249.467 345.465 253.339 354.07C257.211 362.674 255.06 388.917 255.06 388.917Z" fill="#C6DBFF"/>
<path d="M143.633 336.861V331.268H196.55V336.861H143.633Z" fill="#C6DBFF"/>
<path d="M143.633 341.593V346.756H170.307V341.593H143.633Z" fill="#1F5F8B"/>
<path d="M267.464 476.454L268.325 468.71H276.499V476.454H267.464Z" fill="#FFB6B6"/>
<path d="M334.148 478.605H326.834L323.823 485.919L331.567 486.78L334.148 478.605Z" fill="#FFB6B6"/>
<path d="M279.081 490.652H274.148L273.268 486.015L271.013 490.652H254.989C254.362 490.652 253.751 490.452 253.246 490.082C252.741 489.712 252.368 489.191 252.181 488.595C251.994 487.999 252.004 487.359 252.209 486.769C252.413 486.179 252.802 485.669 253.318 485.314L266.706 478.13V473.443L277.695 474.096L279.081 490.652Z" fill="#2B2A3C"/>
<path d="M348.283 478.273L347.341 483.226L342.511 483.355L346.742 486.375L344.497 500.643C344.377 501.273 344.06 501.854 343.591 502.301C343.123 502.748 342.528 503.038 341.893 503.128C341.258 503.218 340.617 503.104 340.062 502.802C339.508 502.501 339.07 502.027 338.812 501.451L333.332 488.658L328.619 487.894L331.374 476.964L348.283 478.273Z" fill="#2B2A3C"/>
<path d="M323.393 383.528L324.683 377.074L333.288 377.505V382.667L323.393 383.528Z" fill="#FFB6B6"/>
<path d="M327.27 378.03C333.765 379.469 340.155 375.557 341.542 369.294C342.929 363.03 338.788 356.786 332.293 355.348C325.797 353.91 319.407 357.821 318.02 364.085C316.633 370.348 320.774 376.592 327.27 378.03Z" fill="#FFB6B6"/>
<path d="M329.76 366.41C327.924 366.489 326.589 364.735 325.75 363.1C324.912 361.464 324.036 359.584 322.288 359.012C321.06 358.612 322.142 361.193 320.496 359.95C319.757 359.393 319.24 358.593 318.797 357.781C318.006 356.328 317.263 354.839 318.145 354C319.28 352.92 320.923 352.608 322.477 352.42C326.269 351.96 330.122 351.977 333.914 352.48C336.26 352.785 338.689 353.332 340.477 354.877C342.745 356.834 343.522 359.991 343.901 362.962C344.285 366.005 344.35 369.214 343.062 371.998C341.775 374.782 338.817 376.989 335.789 376.526C335.37 374.931 335.543 373.245 335.542 371.592C335.536 369.94 335.286 368.176 334.178 366.938C333.07 365.7 330.897 365.349 329.813 366.595" fill="#36344E"/>
<path d="M343.483 369.188C344.516 368.304 345.773 367.539 347.131 367.6C348.6 367.666 349.913 368.771 350.395 370.16C350.876 371.549 350.572 373.14 349.76 374.366C348.947 375.591 347.672 376.455 346.283 376.943C345.484 377.224 344.592 377.382 343.79 377.11C342.602 376.705 341.877 375.282 342.236 374.077" fill="#36344E"/>
<path d="M318.309 353.288C319.701 352.465 321.221 352.117 322.708 352.281C324.195 352.445 325.595 353.115 326.762 354.22C327.929 355.326 328.821 356.827 329.343 358.566C329.864 360.305 330.05 364.84 329.781 366.728C325.946 367.438 321.435 365.156 317.735 362.856L317.649 359.913L316.733 362.741C315.457 363.212 314.19 363.587 313.137 362.277C313.328 360.385 313.907 358.558 314.814 356.981C315.722 355.404 316.927 354.13 318.309 353.288Z" fill="#36344E"/>
<path d="M272.627 427.84C276.929 423.538 313.928 435.153 313.928 435.153V463.118C302.388 456.496 296.548 453.142 281.662 444.618C280.36 453.267 279.631 460.324 278.266 470.862H266.219C266.235 470.846 266.25 470.829 266.265 470.811L266.219 456.234C265.658 445.669 265.639 432.239 272.627 427.84Z" fill="#2B2A3C"/>
<path d="M338.45 465.269C337.766 468.75 333.981 470.604 325.974 473.873H328.125V486.78C328.125 486.78 282.091 486.78 276.499 486.78C270.906 486.78 270.046 477.315 274.348 473.873C278.65 470.432 312.207 448.921 312.207 448.921C312.207 448.921 337.59 460.967 338.45 461.827C339.31 462.688 338.45 465.269 338.45 465.269Z" fill="#2F2E41"/>
<path d="M306.615 414.073C303.827 400.834 315.65 398.585 322.963 383.528L333.719 380.086C333.719 380.086 338.166 391.702 338.451 395.574C338.737 399.446 338.451 400.306 338.451 405.899C338.451 410.925 341.926 455.908 342.63 464.972C342.687 465.713 341.944 466.232 341.255 465.953L308.741 452.793H305.324C305.324 452.793 306.615 450.642 307.045 449.781C307.476 448.921 308.812 433.262 310.057 422.678C310.057 422.678 307.361 417.615 306.615 414.073Z" fill="#E6E6E6"/>
<path d="M262.891 386.647C263.642 386.591 264.395 386.701 265.099 386.968C265.802 387.235 266.439 387.653 266.963 388.193C267.487 388.733 267.887 389.381 268.134 390.092C268.381 390.803 268.469 391.559 268.392 392.308L293.186 407.313C293.813 407.717 294.201 407.74 294.877 407.475C295.93 407.157 315.597 396.544 315.597 396.544L318.592 407.996C318.592 407.996 300.107 418.212 296.247 417.912C292.386 417.613 280.58 408.497 280.58 408.497L262.37 396.912C261.121 396.699 259.993 396.036 259.201 395.047C258.409 394.058 258.007 392.813 258.071 391.548C258.135 390.283 258.661 389.085 259.55 388.181C260.438 387.278 261.627 386.732 262.891 386.647Z" fill="#FFB6B6"/>
<path d="M311.103 396.641L319.854 390.223C321.612 388.935 323.651 387.905 325.831 387.909C327.892 387.913 330.434 388.46 332.428 390.841C334.827 393.705 333.853 398.708 333.063 401.427C332.705 402.659 331.776 403.612 330.608 404.14L314.358 411.491L307.475 401.166C305.972 399.351 306.057 398.846 307.867 398.24C309.016 397.856 310.127 397.357 311.103 396.641Z" fill="#E6E6E6"/>
<rect x="319.162" y="195.319" width="248.666" height="104.973" rx="4" fill="white"/>
<path d="M342.324 212.015C342.362 210.884 341.456 209.947 340.325 209.947H336.594C335.512 209.947 334.626 210.808 334.595 211.89L332.557 283.608C332.525 284.735 333.43 285.665 334.557 285.665H337.88C338.958 285.665 339.842 284.811 339.879 283.733L342.324 212.015Z" fill="#D7E6FE"/>
<path d="M342.324 212.015C342.362 210.884 341.456 209.947 340.325 209.947H336.594C335.512 209.947 334.626 210.808 334.595 211.89L332.557 283.608C332.525 284.735 333.43 285.665 334.557 285.665H337.88C338.958 285.665 339.842 284.811 339.879 283.733L342.324 212.015Z" fill="#D7E6FE"/>
<path d="M354.37 212.015C354.408 210.884 353.502 209.947 352.371 209.947H348.629C347.551 209.947 346.667 210.801 346.63 211.878L344.185 283.597C344.147 284.727 345.053 285.665 346.184 285.665H349.926C351.004 285.665 351.888 284.811 351.925 283.733L354.37 212.015Z" fill="#D7E6FE"/>
<path d="M354.37 212.015C354.408 210.884 353.502 209.947 352.371 209.947H348.629C347.551 209.947 346.667 210.801 346.63 211.878L344.185 283.597C344.147 284.727 345.053 285.665 346.184 285.665H349.926C351.004 285.665 351.888 284.811 351.925 283.733L354.37 212.015Z" fill="#D7E6FE"/>
<path d="M365.149 211.992C365.175 210.87 364.272 209.947 363.15 209.947H359.826C358.743 209.947 357.857 210.808 357.827 211.89L355.789 283.608C355.757 284.735 356.662 285.665 357.788 285.665H361.52C362.607 285.665 363.494 284.797 363.519 283.71L365.149 211.992Z" fill="#D7E6FE"/>
<path d="M365.149 211.992C365.175 210.87 364.272 209.947 363.15 209.947H359.826C358.743 209.947 357.857 210.808 357.827 211.89L355.789 283.608C355.757 284.735 356.662 285.665 357.788 285.665H361.52C362.607 285.665 363.494 284.797 363.519 283.71L365.149 211.992Z" fill="#D7E6FE"/>
<path d="M376.742 212.014C376.78 210.884 375.874 209.947 374.743 209.947H371.001C369.923 209.947 369.039 210.801 369.002 211.879L366.556 284.458C366.518 285.588 367.424 286.525 368.555 286.525H372.296C373.375 286.525 374.259 285.67 374.295 284.593L376.742 212.014Z" fill="#D7E6FE"/>
<path d="M387.951 211.991C387.976 210.87 387.074 209.947 385.952 209.947H382.209C381.122 209.947 380.234 210.815 380.209 211.902L378.578 284.48C378.553 285.602 379.456 286.525 380.578 286.525H384.321C385.408 286.525 386.296 285.657 386.32 284.57L387.951 211.991Z" fill="#D7E6FE"/>
<path d="M399.555 212.003C399.587 210.877 398.683 209.947 397.556 209.947H393.814C392.731 209.947 391.845 210.808 391.815 211.89L389.776 284.469C389.744 285.595 390.648 286.525 391.775 286.525H395.517C396.6 286.525 397.486 285.664 397.517 284.582L399.555 212.003Z" fill="#D7E6FE"/>
<path d="M373.724 252.46C373.766 251.328 372.859 250.387 371.725 250.387H371.403C370.336 250.387 369.457 251.224 369.405 252.29L367.879 283.567C367.824 284.709 368.734 285.665 369.877 285.665H370.581C371.657 285.665 372.54 284.813 372.58 283.738L373.724 252.46Z" fill="#1891AC"/>
<path d="M385.416 261.852C385.416 260.747 384.52 259.852 383.416 259.852H383.048C381.969 259.852 381.085 260.707 381.049 261.785L380.322 283.598C380.284 284.728 381.19 285.665 382.321 285.665H383.416C384.52 285.665 385.416 284.77 385.416 283.665V261.852Z" fill="#1891AC"/>
<path d="M396.602 252.387C396.602 251.282 395.706 250.387 394.602 250.387H394.299C393.195 250.387 392.299 251.282 392.299 252.387V283.665C392.299 284.77 393.195 285.665 394.299 285.665H394.602C395.706 285.665 396.602 284.77 396.602 283.665V252.387Z" fill="#1891AC"/>
<path d="M422.845 209.946V234.039L447.367 235.76L449.088 209.946H422.845Z" fill="#D7E6FE"/>
<path d="M454.251 209.086V215.539L554.061 218.551V211.667L454.251 209.086Z" fill="#D7E6FE"/>
<path d="M454.251 218.551V225.434L554.061 228.876V221.993L454.251 218.551Z" fill="#D7E6FE"/>
<path d="M454.251 231.457V234.899H496.412V231.457H454.251Z" fill="#1F5F8B"/>
<path d="M422.414 257.271V281.363L446.936 283.084L448.657 257.271H422.414Z" fill="#D7E6FE"/>
<path d="M453.82 256.41V262.863L553.63 265.875V258.991L453.82 256.41Z" fill="#D7E6FE"/>
<path d="M453.82 265.875V272.758L553.63 276.2V269.317L453.82 265.875Z" fill="#D7E6FE"/>
<path d="M453.82 278.781V282.223H495.981V278.781H453.82Z" fill="#1F5F8B"/>
<path d="M438.333 284.804L440.914 274.479H452.1L454.251 284.804H438.333Z" fill="#FFB8B8"/>
<path d="M412.519 482.274C414.67 480.553 419.403 477.542 419.403 477.542L420.693 483.135L425.426 481.844L427.577 480.553C429.466 482.045 430.158 483.995 429.298 487.867C428.912 489.603 427.489 490.301 421.311 489.807C419.755 489.683 418.209 489.4 416.721 488.929C414.445 488.208 413.337 487.661 412.625 487.287C412.276 487.104 411.981 486.826 411.833 486.46C411.451 485.511 410.934 483.542 412.519 482.274Z" fill="#3F3D56"/>
<path d="M479.997 482.132C477.846 480.463 473.114 477.542 473.114 477.542L471.029 479.693L468.017 480.463H464.941C463.052 481.91 461.994 484.112 462.854 487.867C463.242 489.557 464.971 489.981 471.273 489.441C472.784 489.311 474.288 489.047 475.739 488.603C478.051 487.897 479.171 487.36 479.888 486.995C480.24 486.816 480.538 486.543 480.688 486.178C481.069 485.254 481.574 483.356 479.997 482.132Z" fill="#3F3D56"/>
<path d="M418.972 483.564H427.146L430.157 459.473H421.123L418.972 483.564Z" fill="#FFB6B6"/>
<path d="M464.962 481.492L473.61 481.492L472.75 456.031L462.424 457.321L464.962 481.492Z" fill="#FFB6B6"/>
<path d="M465.523 348.147L476.418 405.266L473.85 413.846L477.22 419.923L473.752 469.114L475.761 473.545L470.149 477.014H458.728L456.641 432.877L453.82 425.783V421.874L446.618 392.873L437.785 432.618L436.114 439.723L437.518 444.782L435.684 448.326L430.814 481.192H418.007L418.998 473.545C417.882 472.979 416.986 472.058 416.45 470.926C415.914 469.794 415.769 468.516 416.037 467.292L416.771 463.94L415.1 454.031L418.007 399.242L419.994 366.976L428.181 349.914L435.672 344.175L465.523 348.147Z" fill="#2F2E41"/>
<path d="M446.506 276.2C455.06 276.2 461.994 269.843 461.994 262.003C461.994 254.162 455.06 247.805 446.506 247.805C437.953 247.805 431.019 254.162 431.019 262.003C431.019 269.843 437.953 276.2 446.506 276.2Z" fill="#2F2E41"/>
<path d="M462.495 251.216C461.435 249.141 459.546 247.5 457.202 246.62C454.879 245.778 452.282 245.78 449.961 246.625C447.865 245.435 445.536 244.492 443.083 244.375C440.63 244.258 438.037 245.076 436.526 246.876C436.188 247.351 435.805 247.799 435.38 248.214C434.165 249.225 432.319 249.079 430.704 248.872C431.428 249.43 432.153 249.988 432.878 250.546C432.001 250.752 431.124 250.958 430.247 251.164C431.27 251.722 432.293 252.28 433.316 252.837C430.346 254.44 428.996 257.938 429.353 261.114C429.69 264.122 431.305 266.872 433.237 269.316C434.007 267.855 433.841 266.107 433.828 264.461C433.815 262.722 434.157 260.748 435.707 259.776C436.753 259.12 438.098 259.091 439.359 259.097C445.719 259.129 452.073 259.485 458.388 260.165C459.245 260.198 460.081 260.416 460.825 260.8C462.221 261.657 462.494 263.424 462.634 264.975C463.372 262.414 463.733 259.778 463.708 257.134C463.77 255.107 463.357 253.09 462.495 251.216Z" fill="#2F2E41"/>
<path d="M473.779 295.479L459.413 286.095L454.249 280.61L438.325 280.373L433.17 286.095L420.261 296.058L421.124 360.523L417.252 372.139C417.252 372.139 429.07 381.408 474.04 379.022C474.58 378.994 473.779 377.732 473.779 377.732L473.779 295.479Z" fill="#3F3D56"/>
<path d="M350.927 291.157C351.772 290.956 352.625 290.948 353.425 291.135C354.226 291.321 354.954 291.697 355.559 292.237C356.164 292.776 356.631 293.465 356.927 294.256C357.223 295.047 357.341 295.92 357.273 296.814L376.166 302.901L367.154 310.22L350.595 303.317C349.181 303.293 347.892 302.718 346.974 301.699C346.055 300.681 345.571 299.291 345.612 297.792C345.653 296.293 346.216 294.79 347.196 293.567C348.176 292.344 349.503 291.487 350.927 291.157Z" fill="#FFB8B8"/>
<path d="M539.261 294.821C538.485 294.52 537.659 294.408 536.842 294.492C536.024 294.575 535.234 294.853 534.528 295.306C533.822 295.759 533.216 296.375 532.754 297.111C532.292 297.847 531.984 298.686 531.853 299.568L512.176 303.193L519.301 311.453L536.894 306.745C538.271 306.895 539.649 306.491 540.765 305.609C541.881 304.727 542.659 303.428 542.951 301.958C543.243 300.488 543.028 298.95 542.348 297.635C541.668 296.319 540.569 295.318 539.261 294.821Z" fill="#FFB8B8"/>
<path d="M436.612 289.106L436.389 286.748L437.404 282.559C437.404 282.559 428.732 283.688 422.851 285.834C419.987 286.879 407.981 297.287 393.445 301.935C391.296 302.622 389.002 302.634 386.793 302.174L359.173 296.42L356.161 307.606L388.328 318.079C391.462 319.099 394.845 319.059 397.954 317.964L423.706 308.896L436.612 289.106Z" fill="#3F3D56"/>
<path d="M452.96 288.463L451.846 284.605L456.148 283.315C456.148 283.315 465.882 285.156 471.069 288.463C473.632 290.097 481.11 294.239 493.749 300.563C496.326 301.853 499.225 302.356 502.088 302.03L528.679 299.002L534.272 309.242L500.994 315.975C498.826 316.413 496.589 316.367 494.441 315.84L473.18 310.618L452.96 288.463Z" fill="#3F3D56"/>
<path d="M277.001 208.656C276.14 208.656 275.28 203.063 275.28 203.063L278.292 201.342C278.292 201.342 277.861 208.656 277.001 208.656Z" fill="#9E616A"/>
<path d="M326.045 114.868L327.766 107.555L338.091 106.694L340.242 114.868H326.045Z" fill="#9E616A"/>
<path d="M330.347 109.276C337.95 109.276 344.114 103.497 344.114 96.369C344.114 89.2409 337.95 83.4625 330.347 83.4625C322.744 83.4625 316.58 89.2409 316.58 96.369C316.58 103.497 322.744 109.276 330.347 109.276Z" fill="#9E616A"/>
<path d="M278.818 200.8C279.287 200.107 279.592 199.33 279.711 198.522C279.831 197.714 279.763 196.895 279.511 196.123C279.259 195.351 278.83 194.645 278.254 194.054C277.678 193.464 276.969 193.003 276.177 192.704L277.556 172.947L268.113 178.24L268.251 196.19C267.777 197.494 267.82 198.906 268.374 200.159C268.928 201.411 269.953 202.417 271.256 202.985C272.558 203.553 274.048 203.645 275.441 203.242C276.835 202.839 278.037 201.97 278.818 200.8Z" fill="#9E616A"/>
<path d="M310.908 124.836L309.543 123.097L307.497 122.646C307.497 122.646 299.256 124.337 295.298 128.964C293.231 131.38 282.72 145.144 271.251 156.38C270.247 157.363 269.599 158.655 269.438 160.051L265.815 191.447L277.431 188.866L282.512 166.425C282.564 166.192 282.699 165.986 282.89 165.843L310.908 144.983L310.908 124.836Z" fill="#E6E6E6"/>
<path d="M342.673 86.6553C342.673 86.6553 346.209 80.1098 338.43 79.5147C338.43 79.5147 331.799 73.6894 325.041 78.4498C325.041 78.4498 321.354 78.4498 319.338 82.49C319.338 82.49 316.439 81.425 315.801 84.2751C315.801 84.2751 313.68 90.2256 315.801 95.581C317.923 100.936 318.628 101.531 318.628 101.531C318.628 101.531 315.141 90.3035 323.627 89.7085C332.113 89.1134 341.609 83.9776 342.317 90.5231C343.024 97.0686 344.088 98.6814 344.088 98.6814C344.088 98.6814 350.805 89.333 342.673 86.6553Z" fill="#2F2E41"/>
<path d="M404.909 197.123C404.136 196.875 403.438 196.458 402.863 195.902C402.289 195.346 401.852 194.664 401.583 193.904C401.315 193.144 401.222 192.324 401.31 191.503C401.399 190.682 401.667 189.879 402.095 189.151L389.235 174.584L399.632 172.817L410.251 186.921C411.394 187.643 412.204 188.774 412.528 190.098C412.852 191.422 412.667 192.848 412.009 194.105C411.35 195.363 410.264 196.365 408.955 196.921C407.647 197.477 406.207 197.549 404.909 197.123Z" fill="#9E616A"/>
<path d="M353.846 128.762L354.814 123.436L358.366 123.252C358.366 123.252 362.654 124.111 370.464 130.543C378.273 136.974 409.276 181.457 409.276 181.457L398.17 187.859L382.299 164.18L360.464 146.274L353.846 128.762Z" fill="#E6E6E6"/>
<path d="M364.765 125.372L351.227 119.223L342.036 111.116L325.276 110.996L319.869 117.68L305.596 122.291L307.975 169.096L306.353 172.695C306.353 172.695 307.483 173.666 307.999 174.209C308.515 174.752 307.286 179.297 307.286 179.297L306.728 181.231L308.652 182.537L306.489 185.854H356.634L355.706 182.165L356.634 179.379L358.256 177.837L355.536 175.25L357.28 162.975L364.765 125.372Z" fill="#3F3D56"/>
<path d="M395.741 389.347C395.741 394.337 391.696 398.382 386.706 398.382C381.717 398.382 377.672 394.337 377.672 389.347C377.672 384.358 381.717 380.313 386.706 380.313C391.696 380.313 395.741 384.358 395.741 389.347Z" fill="#1F5F8B"/>
<path d="M386.706 382.894L388.641 386.685L392.844 387.353L389.836 390.364L390.499 394.568L386.706 392.639L382.913 394.568L383.576 390.364L380.569 387.353L384.772 386.685L386.706 382.894Z" fill="white"/>
<path fill-rule="evenodd" clip-rule="evenodd" d="M226.235 269.317C235.264 269.317 242.583 261.997 242.583 252.969C242.583 243.94 235.264 236.62 226.235 236.62C217.206 236.62 209.887 243.94 209.887 252.969C209.887 261.997 217.206 269.317 226.235 269.317ZM222.363 250.817L219.352 254.259L224.514 259.852L233.979 250.387L230.967 246.946L224.514 253.399L222.363 250.817Z" fill="white"/>
<path d="M219.352 254.259L222.363 250.817L224.514 253.399L230.967 246.946L233.979 250.387L224.514 259.852L219.352 254.259Z" fill="#1F5F8B"/>
<path d="M530.831 336.431C530.831 335.481 531.601 334.71 532.551 334.71H573.852C574.803 334.71 575.573 335.481 575.573 336.431V366.546C575.573 367.497 574.803 368.267 573.852 368.267H532.551C531.601 368.267 530.831 367.497 530.831 366.546V336.431Z" fill="#1F5F8B"/>
<path d="M543.737 362.244V340.733L562.237 351.489L543.737 362.244Z" fill="white"/>
<path d="M613 462.914H587.617V487.437H613V462.914Z" fill="#1F5F8B"/>
<path d="M597.524 473.147L592.569 474.792L597.524 476.436V477.89L590.813 475.463V474.132L597.524 471.693V473.147Z" fill="white"/>
<path d="M601.015 469.564H602.995L599.773 480.123H597.805L601.015 469.564Z" fill="white"/>
<path d="M609.988 474.132V475.463L603.277 477.89V476.436L608.232 474.792L603.277 473.147V471.693L609.988 474.132Z" fill="white"/>
<path d="M477.529 137C481.086 137 483.961 138.605 484 142.685V165.454C484 165.709 483.948 165.964 483.842 166.189C483.672 166.549 483.383 166.819 483.029 166.939C482.688 167.059 482.307 166.999 481.992 166.789L473.487 161.929L464.969 166.789C464.773 166.907 464.549 166.984 464.326 166.984C463.591 166.984 463 166.294 463 165.454V142.685C463 138.605 465.887 137 469.431 137H477.529ZM478.422 146.06H468.539C467.974 146.06 467.515 146.585 467.515 147.245C467.515 147.903 467.974 148.43 468.539 148.43H478.422C478.986 148.43 479.446 147.903 479.446 147.245C479.446 146.585 478.986 146.06 478.422 146.06Z" fill="#1891AC"/>
</svg>
